<?xml version="1.0" encoding="utf-8"?>
<!-- Generator: Adobe Illustrator 22.0.1, SVG Export Plug-In . SVG Version: 6.00 Build 0)  -->
<svg version="1.1" id="Layer_1" xmlns="http://www.w3.org/2000/svg" xmlns:xlink="http://www.w3.org/1999/xlink" x="0px" y="0px"
	 viewBox="0 0 540.8 515.7" style="enable-background:new 0 0 540.8 515.7;" xml:space="preserve">
<style type="text/css">
	.st0{fill:#3AD9CE;}
	.st1{fill:#FFFFFF;}
</style>
<circle class="st0" cx="271.5" cy="257.5" r="246.5"/>
<g>
	<path class="st1" d="M412.8,149.9H132c-3.7,0-6.7,3-6.7,6.7v200.5c0,3.7,3,6.7,6.7,6.7h280.7c3.7,0,6.7-3,6.7-6.7V156.6
		C419.5,152.9,416.5,149.9,412.8,149.9L412.8,149.9z M406.1,334.3l-82.8-82.8l-9.5,9.4l89.5,89.5H141.5l89.5-89.5l-9.4-9.4
		l-82.8,82.8v-171h267.4V334.3z M406.1,334.3"/>
	<path class="st1" d="M392.6,163.3L272.4,283.5L152.2,163.3h-13.5v5.4l129,129c2.6,2.6,6.8,2.6,9.4,0l129-129v-5.4H392.6z
		 M392.6,163.3"/>
</g>
</svg>
