<?xml version="1.0" encoding="utf-8"?>
<!-- Generator: Adobe Illustrator 22.0.1, SVG Export Plug-In . SVG Version: 6.00 Build 0)  -->
<svg version="1.1" id="Layer_1" xmlns="http://www.w3.org/2000/svg" xmlns:xlink="http://www.w3.org/1999/xlink" x="0px" y="0px"
	 viewBox="0 0 3028 614.7" style="enable-background:new 0 0 3028 614.7;" xml:space="preserve">
<style type="text/css">
	.st0{fill:#1C1D26;}
</style>
<path class="st0" d="M2242.6,478.9V25.7h95v245.4l114.7-131.3h110.3L2416.4,304l151.1,174.9h-107.1l-97.5-110.2l-25.3,29.1v81.1
	H2242.6z"/>
<path class="st0" d="M778.3,478.9V25.7h95v245.4L988,139.8h110.3L952.1,304l151.1,174.9H996.1l-97.5-110.2l-25.3,29.1v81.1H778.3z"
	/>
<path class="st0" d="M23.2,478.9V25.7h187.4c37.6,0,71.4,14,102.6,41.4s47.2,63.7,47.2,109c0,43.3-15.3,79-45.9,107.7
	c-30.6,28.7-65,42.7-103.9,42.7h-89.2v152.3H23.2z M121.4,237.3h83.5c13.4,0,26.8-4.5,38.9-14c12.1-9.6,18.5-25.5,18.5-47.2
	c0-21.7-6.4-37-18.5-46.5c-12.1-9.6-25.5-14.7-38.9-14.7h-83.5V237.3z"/>
<path class="st0" d="M682.3,188.9c35.1,32.5,52.3,72.7,52.3,120.5c0,47.8-17.2,88-52.3,121.1c-35.1,32.5-77.1,49.1-126.2,49.1
	c-49.7,0-91.8-16.6-126.8-49.1c-34.4-33.1-51.6-73.3-51.6-121.1c0-47.8,17.2-88,51.6-120.5c35.1-33.1,77.1-49.7,126.8-49.7
	C605.1,139.1,647.2,155.7,682.3,188.9z M496.8,369.3c15.9,15.9,35.7,24.2,59.3,24.2s43.3-8.3,59.3-24.2
	c15.9-16.6,24.2-36.3,24.2-59.9c0-23.6-8.3-43.3-24.2-59.3c-15.9-16.6-35.7-24.9-59.3-24.9s-43.3,8.3-59.3,24.9
	c-15.9,15.9-24.2,35.7-24.2,59.3C472.6,332.9,480.8,353.3,496.8,369.3z"/>
<path class="st0" d="M1531.1,514.4c10.2,3.2,22.9,5.1,38.9,5.1c12.1,0,21-2.6,27.4-7c6.4-4.5,10.8-10.8,13.4-20.4l5.1-14
	l-137.1-339.5h96.9l85.8,222.5l86.6-222.5h93.9l-145.8,375.2c-10.8,27.4-22.9,47.2-37,59.3c-21,18.5-49.7,28-86.1,28
	c-14.7,0-28.7-1.3-42.1-4.5V514.4z"/>
<path class="st0" d="M2145.1,188.9c35.1,32.5,52.3,72.7,52.3,120.5c0,47.8-17.2,88-52.3,121.1c-35.1,32.5-77.1,49.1-126.2,49.1
	c-49.7,0-91.8-16.6-126.8-49.1c-34.4-33.1-51.6-73.3-51.6-121.1c0-47.8,17.2-88,51.6-120.5c35.1-33.1,77.1-49.7,126.8-49.7
	C2068,139.1,2110.1,155.7,2145.1,188.9z M1959.6,369.3c15.9,15.9,35.7,24.2,59.3,24.2s43.3-8.3,59.3-24.2
	c15.9-16.6,24.2-36.3,24.2-59.9c0-23.6-8.3-43.3-24.2-59.3c-15.9-16.6-35.7-24.9-59.3-24.9s-43.3,8.3-59.3,24.9
	c-15.9,15.9-24.2,35.7-24.2,59.3C1935.4,332.9,1943.7,353.3,1959.6,369.3z"/>
<path class="st0" d="M2925.9,396.7c-17.2,0-23.6-10.2-23.6-35.7V140.6h-93.5c0,0,0.1,6,0.4,16.2c-24.2-11.7-50.9-17.6-80.1-17.6
	c-49.7,0-91.8,16.6-126.8,49.7c-34.4,32.5-51.6,72.7-51.6,120.5c0,47.8,17.2,88,51.6,121.1c35.1,32.5,77.1,49.1,126.8,49.1
	c37,0,70-9.4,99.1-28c4.9,6,11.1,11.6,18.8,16.5c13.4,7.7,31.2,11.5,52.3,11.5c18.5,0,32.5-1.9,42.7-5.1v-79
	C2936.1,396,2930.3,396.7,2925.9,396.7z M2788.3,369.3c-15.9,15.9-35.7,24.2-59.3,24.2c-23.6,0-43.3-8.3-59.3-24.2
	c-15.9-15.9-24.2-36.3-24.2-59.9c0-23.6,8.3-43.3,24.2-59.3c15.9-16.6,35.7-24.9,59.3-24.9c23.6,0,43.3,8.3,59.3,24.9
	c15.9,15.9,24.2,35.7,24.2,59.3C2812.5,332.9,2804.2,352.7,2788.3,369.3z"/>
<path class="st0" d="M1463,396.7c-17.2,0-23.6-10.2-23.6-35.7V140.6h-93.5c0,0,0.1,6,0.4,16.2c-24.2-11.7-50.9-17.6-80.1-17.6
	c-49.7,0-91.8,16.6-126.8,49.7c-34.4,32.5-51.6,72.7-51.6,120.5c0,47.8,17.2,88,51.6,121.1c35.1,32.5,77.1,49.1,126.8,49.1
	c37,0,70-9.4,99.1-28c4.9,6,11.1,11.6,18.8,16.5c13.4,7.7,31.2,11.5,52.3,11.5c18.5,0,32.5-1.9,42.7-5.1v-79
	C1473.2,396,1467.5,396.7,1463,396.7z M1325.4,369.3c-15.9,15.9-35.7,24.2-59.3,24.2s-43.3-8.3-59.3-24.2
	c-15.9-15.9-24.2-36.3-24.2-59.9c0-23.6,8.3-43.3,24.2-59.3c15.9-16.6,35.7-24.9,59.3-24.9s43.3,8.3,59.3,24.9
	c15.9,15.9,24.2,35.7,24.2,59.3C1349.7,332.9,1341.4,352.7,1325.4,369.3z"/>
<g>
	<path class="st0" d="M2976.4,160.9c-19.7,0-35.7-16-35.7-35.7c0-19.7,16-35.7,35.7-35.7c19.7,0,35.7,16,35.7,35.7
		C3012.1,144.9,2996,160.9,2976.4,160.9z M2976.4,95.6c-16.3,0-29.6,13.3-29.6,29.6c0,16.3,13.3,29.6,29.6,29.6
		c16.3,0,29.6-13.3,29.6-29.6C3005.9,108.9,2992.7,95.6,2976.4,95.6z"/>
</g>
<g>
	<path class="st0" d="M2964.9,140.5v-31h13c2.9,0,5.4,1,7.4,3c2.1,2,3.1,4.4,3.1,7.3c0,4-2.2,7.4-5.5,8.8l7.6,12h-7.8l-6.5-10.3
		h-0.1h-4.5v10.3H2964.9z M2971.7,124.1h5.4c2.7,0,4.5-1.7,4.5-4.3c0-2.4-1.7-4.1-3.9-4.1h-6V124.1z"/>
</g>
</svg>
