<?xml version="1.0" encoding="utf-8"?>
<!-- Generator: Adobe Illustrator 23.0.1, SVG Export Plug-In . SVG Version: 6.00 Build 0)  -->
<svg version="1.1" id="Laag_1" xmlns="http://www.w3.org/2000/svg" xmlns:xlink="http://www.w3.org/1999/xlink" x="0px" y="0px"
	 viewBox="0 0 566.93 566.93" style="enable-background:new 0 0 566.93 566.93;" xml:space="preserve">
<style type="text/css">
	.st0{fill:#1E1E1C;}
</style>
<g>
	<g>
		<path class="st0" d="M503.66,103.34c0.09,0,0.17-0.01,0.26-0.01c0.83-0.03,1.36-0.53,1.66-1.26c2.17-5.44,4.14-16.38,0.5-21.48
			c-0.75-1.05-2.57-1.37-3.24,0c-1.49,3.04-0.94,6.02-0.88,9.32c0.06,3.9-0.17,7.81,0.24,11.7c0.09,0.83,0.49,1.36,1.26,1.66
			C503.52,103.31,503.59,103.33,503.66,103.34L503.66,103.34z"/>
	</g>
</g>
<g>
	<g>
		<path class="st0" d="M495.88,108.29c-1.16-2.7-5.73-2.31-8.19-2.38c-4.52-0.12-8.99,0.13-13.41,1.14
			c-2.95,0.67-2.06,4.82,0.68,5.02C476.92,112.21,497.41,111.85,495.88,108.29L495.88,108.29z"/>
	</g>
</g>
<g>
	<g>
		<path class="st0" d="M501.77,115.84c-0.37,3.3-0.2,6.62-0.53,9.92c-0.3,2.97-1.39,6.1-0.4,8.99c0.53,1.56,2.4,2.13,3.64,0.96
			c4.57-4.31,3.58-15.11,1.36-20.42C504.93,113.11,502.04,113.43,501.77,115.84L501.77,115.84z"/>
	</g>
</g>
<g>
	<g>
		<path class="st0" d="M511.88,109.61c2.4,2.77,6.53,3.42,10,3.91c3.66,0.52,7.34,0.88,10.79-0.61c1.97-0.85,0.97-3.4-0.53-4.03
			c-3.35-1.4-7.37-1.06-10.95-1.24c-3.09-0.15-6.29-0.58-9.16,0.77C511.57,108.65,511.59,109.27,511.88,109.61L511.88,109.61z"/>
	</g>
</g>
<g>
	<g>
		<path class="st0" d="M124.98,62.88c0.09,0,0.17-0.01,0.26-0.01c0.83-0.03,1.36-0.53,1.66-1.26c2.17-5.44,4.14-16.38,0.5-21.48
			c-0.75-1.05-2.57-1.37-3.24,0c-1.49,3.04-0.94,6.02-0.88,9.32c0.06,3.9-0.17,7.81,0.24,11.7c0.09,0.83,0.49,1.36,1.26,1.66
			C124.85,62.85,124.91,62.87,124.98,62.88L124.98,62.88z"/>
	</g>
</g>
<g>
	<g>
		<path class="st0" d="M117.21,67.83c-1.16-2.7-5.73-2.31-8.19-2.38c-4.52-0.12-8.99,0.13-13.41,1.14
			c-2.95,0.67-2.06,4.82,0.68,5.02C98.24,71.75,118.74,71.39,117.21,67.83L117.21,67.83z"/>
	</g>
</g>
<g>
	<g>
		<path class="st0" d="M123.1,75.37c-0.37,3.3-0.2,6.62-0.53,9.92c-0.3,2.97-1.39,6.1-0.4,8.99c0.53,1.56,2.4,2.13,3.64,0.96
			c4.57-4.31,3.58-15.11,1.36-20.42C126.26,72.65,123.36,72.97,123.1,75.37L123.1,75.37z"/>
	</g>
</g>
<g>
	<g>
		<path class="st0" d="M133.2,69.14c2.4,2.77,6.53,3.42,10,3.91c3.66,0.52,7.34,0.88,10.79-0.61c1.97-0.85,0.97-3.4-0.53-4.03
			c-3.35-1.4-7.37-1.06-10.95-1.24c-3.09-0.15-6.29-0.58-9.16,0.77C132.89,68.19,132.91,68.81,133.2,69.14L133.2,69.14z"/>
	</g>
</g>
<g>
	<g>
		<path class="st0" d="M79.78,350.97c0.09,0,0.17-0.01,0.26-0.01c0.83-0.03,1.36-0.53,1.66-1.26c2.17-5.44,4.14-16.38,0.5-21.48
			c-0.75-1.05-2.57-1.37-3.24,0c-1.49,3.04-0.94,6.02-0.88,9.32c0.06,3.9-0.17,7.81,0.24,11.7c0.09,0.83,0.49,1.36,1.26,1.66
			C79.64,350.93,79.71,350.96,79.78,350.97L79.78,350.97z"/>
	</g>
</g>
<g>
	<g>
		<path class="st0" d="M72,355.92c-1.16-2.7-5.73-2.31-8.19-2.38c-4.52-0.12-8.99,0.13-13.41,1.14c-2.95,0.67-2.06,4.82,0.68,5.02
			C53.04,359.84,73.53,359.48,72,355.92L72,355.92z"/>
	</g>
</g>
<g>
	<g>
		<path class="st0" d="M77.89,363.46c-0.37,3.3-0.2,6.62-0.53,9.92c-0.3,2.97-1.39,6.1-0.4,8.99c0.53,1.56,2.4,2.13,3.64,0.96
			c4.57-4.31,3.58-15.11,1.36-20.42C81.05,360.74,78.16,361.06,77.89,363.46L77.89,363.46z"/>
	</g>
</g>
<g>
	<g>
		<path class="st0" d="M88,357.23c2.4,2.77,6.53,3.42,10,3.91c3.66,0.52,7.34,0.88,10.79-0.61c1.97-0.85,0.97-3.4-0.53-4.03
			c-3.35-1.4-7.37-1.06-10.95-1.24c-3.09-0.15-6.29-0.58-9.16,0.77C87.68,356.28,87.71,356.9,88,357.23L88,357.23z"/>
	</g>
</g>
<g>
	<g>
		<path class="st0" d="M448.01,385.19c-36.49,4.37-61.99-34.73-53.1-67.95c2.25-8.42,6.31-16.46,12.22-22.92
			c2.41-2.63,5.05-4.9,8-6.9c1.72-1.16,3.2-1.99,4.01-4.02c1-2.51,0.76-5.67,0.85-8.29c0.21-5.81,0.52-11.61,1.05-17.4
			c0.36-4.05,0.77-8.1,1.21-12.14c0.69-6.33,1.39-12.69,2.59-18.96c0.28-1.46,0.42-4.57,1.45-5.71c-1.15,1.28-0.06,0.67,1.27,0.8
			c1.46,0.14,3.01-0.08,4.48-0.05c3.6,0.08,7.11,0.49,10.65,1.15c-0.84-1.11-1.69-2.21-2.53-3.32c1.64,26.18,5.33,52.17,9.09,78.11
			c1.86,12.86,3.76,25.77,7.2,38.32c3.23,11.81,7.98,23.12,13.14,34.2c19.42,41.74,40.09,83.73,65.63,122.11
			c14.27,21.45,30.36,42.31,49.53,59.63c3.92,3.54,9.6-2.04,5.83-5.83c-31.93-32.18-56.92-68.95-78.53-108.69
			c-10.73-19.73-20.76-39.83-30.74-59.95c-5.56-11.22-10.99-22.53-15.06-34.38c-4.12-12-6.56-24.45-8.54-36.95
			c-4.54-28.7-8.82-57.56-10.65-86.57c-0.09-1.41-1-3.03-2.53-3.32c-5.6-1.04-11.26-1.61-16.95-1.33c-2.89,0.14-5.52-0.03-7.2,2.61
			c-2.55,4.01-2.7,10.36-3.34,14.9c-2.06,14.76-3.35,29.62-3.95,44.5c-0.16,3.89,0.37,3.44-2.11,5.07c-3.79,2.5-7.2,5.65-10.14,9.11
			c-5.99,7.05-10.29,15.43-12.64,24.37c-4.82,18.39-1.08,37.69,10.15,53.01c11.19,15.27,31.37,27.78,50.06,18.11
			C448.95,386.2,448.71,385.11,448.01,385.19L448.01,385.19z"/>
	</g>
</g>
<g>
	<g>
		<path class="st0" d="M356.56,334.85c-8.13,13.99,3.44,34.1,12.9,44.42c6.08,6.63,13.33,12.13,20.87,16.99
			c3.8,2.44,7.69,4.73,11.62,6.94c4.51,2.54,9.33,4.73,11.79,9.57c2.32,4.56,3.71,9.8,5.54,14.59c1.96,5.15,3.93,10.29,5.91,15.44
			c3.85,9.98,7.8,19.93,11.79,29.86c7.97,19.86,16.12,39.65,24.43,59.38c9.19,21.82,18.9,43.4,28.84,64.88
			c1.81,3.9,7.34,0.5,5.71-3.34c-16.39-38.49-32.76-77.02-48.51-115.79c-7.82-19.24-15.46-38.54-23.13-57.84
			c-3.26-8.19-6.01-15.05-13.81-19.82c-7.69-4.71-15.64-8.82-22.94-14.16c-8.26-6.05-15.61-13.31-20.87-22.15
			c-2.63-4.41-4.67-9.18-5.92-14.16c-1.21-4.82-1.44-9.79-2.69-14.59C357.91,334.35,356.92,334.23,356.56,334.85L356.56,334.85z"/>
	</g>
</g>
<g>
	<g>
		<path class="st0" d="M136.23,381.26c5.08,3.13,14.35-0.19,19.85-1.2c8.48-1.56,16.91-3.37,25.36-5.07
			c16.25-3.27,32.47-6.64,48.7-9.99c32.78-6.76,65.56-13.54,98.33-20.37c18.82-3.92,37.63-7.84,56.45-11.75
			c4.93-1.03,2.84-8.57-2.08-7.55c-65.54,13.62-131.13,26.99-196.57,41.05c-9.39,2.02-18.79,4.02-28.18,6.06
			c-4.52,0.98-9.06,2-13.52,3.23c-3.33,0.92-6.6,1.51-8.65,4.43C135.66,380.48,135.87,381.03,136.23,381.26L136.23,381.26z"/>
	</g>
</g>
<g>
	<g>
		<path class="st0" d="M451.3,317.33c2.37,2.76,6.75,0.96,9.88,0.41c5.48-0.95,10.92-2.09,16.35-3.28
			c5.1-1.12,10.18-2.35,15.26-3.54c5.2-1.22,11.16-1.83,15.8-4.59c2.75-1.64,1.42-5.56-1.56-5.77c-5.65-0.38-11.72,2.01-17.19,3.33
			c-6.03,1.46-12.05,2.92-18.05,4.48C469.7,308.92,448.28,313.82,451.3,317.33L451.3,317.33z"/>
	</g>
</g>
<g>
	<g>
		<path class="st0" d="M140.08,377.48c-1.54-7.77-5.09-15.22-7.79-22.65c-2.74-7.54-5.56-15.04-8.16-22.63
			c-5.2-15.18-9.95-30.52-14.14-46.01c-8.37-30.95-14.69-62.51-18.57-94.34c-2.21-18.09-3.6-36.27-5.66-54.38
			c-0.3-2.61-4.07-2.75-4.17,0c-1.2,32.22,3.49,64.82,9.37,96.43c5.98,32.14,14.41,63.9,25.49,94.66
			c2.97,8.25,6.05,16.48,9.41,24.58c3.49,8.42,6.88,17.76,12.29,25.14C138.86,379.25,140.32,378.7,140.08,377.48L140.08,377.48z"/>
	</g>
</g>
<g>
	<g>
		<path class="st0" d="M85.62,139.56c22.56-3.82,44.91-9.15,67.37-13.58c22.14-4.37,44.33-8.45,66.54-12.42
			c44.75-7.99,89.63-15.21,134.51-22.43c12.28-1.97,24.56-3.97,36.88-5.68c6.84-0.95,13.69-1.81,20.56-2.55
			c2.93-0.32,5.86-0.61,8.79-0.87c1.63-0.15,3.26-0.28,4.89-0.41c0.65-0.05,1.3-0.1,1.96-0.15c1.93,0.52,2.53-0.08,1.78-1.81
			c-1.39,3.87,4.75,5.52,6.15,1.69c3.45-9.46-16.12-5.67-19.66-5.33c-11.69,1.11-23.33,2.67-34.94,4.4
			c-23.94,3.56-47.82,7.56-71.71,11.45c-48.09,7.82-96.14,15.9-143.94,25.37c-26.83,5.32-54.09,10.26-80.35,18.01
			C81.64,136.09,82.84,140.03,85.62,139.56L85.62,139.56z"/>
	</g>
</g>
<g>
	<g>
		<path class="st0" d="M431.5,78.35c12.52,37.29,26.95,73.86,38.63,111.46c5.8,18.66,11.33,37.41,16.35,56.3
			c5.07,19.06,8.71,38.95,15.35,57.53c0.8,2.22,4.65,2.1,4.42-0.6c-1.68-19.51-7.47-39.09-12.54-57.95
			c-5.16-19.18-10.72-38.26-16.9-57.13c-12.24-37.4-25.61-75.29-43.91-110.21C432.51,76.99,431.22,77.52,431.5,78.35L431.5,78.35z"
			/>
	</g>
</g>
<g>
	<g>
		<path class="st0" d="M129.91,125.62c0.69,15.85,3.77,31.74,6.17,47.4c2.44,15.91,5.23,31.78,8.22,47.59
			c6.01,31.81,13.35,63.42,23.19,94.27c5.48,17.19,11.32,34.6,19.64,50.65c1.38,2.66,5.86,0.83,4.88-2.06
			c-5.12-15.15-11.09-29.98-16.07-45.18c-4.98-15.21-9.38-30.62-13.4-46.11c-7.99-30.79-14.26-62.02-19.91-93.31
			c-3.21-17.79-5.5-36.16-10.37-53.58C131.9,124.04,129.85,124.25,129.91,125.62L129.91,125.62z"/>
	</g>
</g>
<g>
	<g>
		<path class="st0" d="M141.56,274.52c-5.45,1.67-10.7,4.22-16.36,1.33c-5.37-2.74-7.86-9.02-4.18-14.2c3.54-5,10.83-4.75,14.46,0
			c4.16,5.43,0.2,11.55-4.68,14.71c-2.21,1.43-0.77,4.64,1.75,4.16c8.81-1.7,12.83-12.81,8.7-20.38
			c-4.21-7.7-15.06-10.44-22.02-4.82c-7.13,5.76-7.67,16.46-0.93,22.73c6.43,5.98,19.54,5.47,23.35-3.41
			C141.67,274.57,141.63,274.5,141.56,274.52L141.56,274.52z"/>
	</g>
</g>
<g>
	<g>
		<path class="st0" d="M266.82,104.4c3.89,6.7,5.2,13.87,6.59,21.39c1.46,7.9,2.89,15.82,4.3,23.73c2.84,15.87,5.45,31.77,8.3,47.63
			c5.66,31.5,11.89,63.02,21.9,93.47c5.63,17.1,12.38,33.75,21.23,49.45c1.66,2.95,5.79,0.36,4.45-2.6
			c-13.56-29.98-23.67-61.1-31.12-93.13c-7.42-31.92-12.62-64.29-18.82-96.45c-1.69-8.76-3.5-17.48-5.51-26.16
			c-1.61-6.96-3.34-14.83-9.99-18.66C267.31,102.57,266.32,103.55,266.82,104.4L266.82,104.4z"/>
	</g>
</g>
<g>
	<g>
		<path class="st0" d="M325.76,270.71c6.31-20.17,9.92-41.22,14.17-61.89c-2.1,0.27-4.19,0.55-6.29,0.82
			c10.19,20.98,19.54,42.75,31.08,63.03c1.29,2.27,5.66,2.14,6.08-0.8c3.99-27.74,6.72-55.58,8.56-83.54
			c-2.08,0.56-4.17,1.13-6.25,1.69c7.87,11.34,14.49,23.59,19.42,36.49c1.13,2.95,5.88,3.64,6.7,0
			c3.69-16.35,9.48-32.21,14.66-48.13c5.26-16.16,10.54-32.32,15.76-48.5c1.47-4.55-5.68-6.49-7.14-1.97
			c-5.22,16.17-10.38,32.37-15.55,48.55c-5.1,15.94-10.81,31.83-14.43,48.19c2.23,0,4.47,0,6.7,0
			c-5.24-13.53-11.91-26.19-20.34-38.03c-1.92-2.7-6.06-1.76-6.25,1.69c-1.48,27.36-4.37,54.66-8.27,81.77c2.14,0,4.28,0,6.42,0
			c-9.12-21.8-20.71-42.77-31.22-63.94c-1.28-2.58-5.72-2.03-6.29,0.82c-4.16,20.95-9.04,41.97-11.08,63.24
			C322.02,272.33,325.18,272.58,325.76,270.71L325.76,270.71z"/>
	</g>
</g>
<g>
	<g>
		<path class="st0" d="M406.12,136.04c8.33,6.85,18.64,11.25,27.47,17.49c2.65,1.87,6.28-1.23,5.39-4.15
			c-2.74-9.05-5.67-18.06-8.19-27.17c-0.63-2.3-3.35-3.38-5.4-2.2c-6.59,3.8-13.81,8.11-19.17,13.57c-2.15,2.18-0.58,6.02,2.5,6.04
			c6.08,0.03,11.22-2.47,15.13-7.09c-1.85-1.42-3.69-2.85-5.54-4.27c-3.46,8.17,3.45,13.36,10.66,15.35
			c4.37,1.21,6.07-5.28,1.86-6.73c-2.65-0.91-7.36-2.15-6.07-5.9c1.4-4.06-4.25-5.71-6.44-2.72c-2.28,3.11-5.87,4.35-9.59,4.29
			c0.59,2.2,1.19,4.39,1.78,6.59c6.4-3.84,12.31-8.71,18.6-12.77c-1.8-0.73-3.6-1.47-5.4-2.2c2.94,8.98,5.48,18.12,8.2,27.17
			c1.8-1.38,3.6-2.76,5.39-4.15c-8.72-6.21-19.25-12.87-30.23-13.43C405.97,133.7,405.23,135.3,406.12,136.04L406.12,136.04z"/>
	</g>
</g>
<g>
	<g>
		<path class="st0" d="M328.7,306.16c5.25,1.9,12.45-0.75,17.7-1.85c6.99-1.47,13.99-2.9,20.96-4.47
			c13.52-3.04,27.02-6.11,40.53-9.2c2.83-0.65,1.63-4.96-1.2-4.34c-13.53,2.98-27.07,5.96-40.59,8.98
			c-6.97,1.55-13.9,3.24-20.84,4.89c-5.22,1.24-12.67,1.87-16.6,5.83C328.61,306.06,328.64,306.14,328.7,306.16L328.7,306.16z"/>
	</g>
</g>
<g>
	<g>
		<path class="st0" d="M342.13,293.47c-1.81,1.74-0.7,5.09-0.2,7.21c0.75,3.18,1.76,6.47,3.95,8.95c0.63,0.72,1.98,0.16,1.92-0.8
			c-0.19-3.14-1.43-6.14-2.38-9.12c-0.66-2.07-1.03-5.29-3.23-6.25C342.17,293.46,342.15,293.46,342.13,293.47L342.13,293.47z"/>
	</g>
</g>
<g>
	<g>
		<path class="st0" d="M370.46,288.75c-1.54,2.17-1.04,5.37-0.63,7.86c0.49,3.04,1.37,5.95,3.48,8.23c0.52,0.57,1.74,0.16,1.64-0.68
			c-0.33-2.72-1.31-5.23-2-7.87c-0.63-2.43-0.63-5.46-2.08-7.54C370.76,288.6,370.57,288.6,370.46,288.75L370.46,288.75z"/>
	</g>
</g>
<g>
	<g>
		<path class="st0" d="M393.63,284.72c-0.83,1.68-0.43,3.58-0.21,5.38c0.27,2.21,0.69,4.3,1.3,6.43c0.39,1.37,2.71,1.17,2.58-0.35
			c-0.19-2.21-0.5-4.3-1.03-6.47c-0.43-1.76-0.75-3.78-2.13-5.06C394,284.51,393.73,284.52,393.63,284.72L393.63,284.72z"/>
	</g>
</g>
<g>
	<g>
		<path class="st0" d="M451.72,280.86c3.37,1.57,7.28,0.56,10.86,0.12c4.34-0.53,8.81-0.86,12.89-2.54c1.46-0.6,1.27-2.62-0.37-2.76
			c-4.38-0.39-8.75,0.61-13.04,1.41c-3.55,0.66-7.64,0.85-10.38,3.37C451.56,280.56,451.58,280.79,451.72,280.86L451.72,280.86z"/>
	</g>
</g>
<g>
	<g>
		<path class="st0" d="M467.57,269.54c-1.24,1.36-0.59,3.78-0.17,5.39c0.68,2.66,1.71,5,3.28,7.26c0.77,1.11,2.91,0.47,2.36-0.99
			c-0.89-2.36-1.89-4.69-2.76-7.05c-0.56-1.51-1.05-3.84-2.58-4.61C467.65,269.5,467.6,269.5,467.57,269.54L467.57,269.54z"/>
	</g>
</g>
<g>
	<g>
		<path class="st0" d="M189.01,164.17c-11.57,1.35-18.41,12.29-19.88,23.07c-2.02,14.8,4.09,26.56,16.75,34.13
			c12.37,7.39,27.71,10.36,41.57,5.63c13.34-4.55,23.39-15.09,25.97-29.13c2.26-12.28-0.58-30.11-14.55-34.18
			c-2.86-0.83-4.9,3.61-2.08,4.93c13.21,6.16,14.15,23.46,8.86,35.47c-5.96,13.55-21.24,20.68-35.57,19.51
			c-13.89-1.13-31.92-9.3-35.16-24.16c-3.06-14.02,2.84-26.98,14.1-35.19C189.06,164.24,189.06,164.17,189.01,164.17L189.01,164.17z
			"/>
	</g>
</g>
<g>
	<g>
		<path class="st0" d="M189.4,162.68c0.04,5.21,6.45,11.21,9.31,15.36c2.05,2.97,4.02,6,5.87,9.11c1.35,2.27,2.76,6.41,4.93,8
			c4.39,3.21,8.7-4.52,11.02-7.12c5.44-6.12,10.88-12.24,16.31-18.36c1.96-2.2-1.26-5.45-3.25-3.25
			c-4.39,4.85-8.78,9.71-13.17,14.56c-2.14,2.37-4.71,4.69-6.59,7.28c-0.44,0.49-0.88,0.97-1.32,1.46c0.07,1.48-0.12,1.63-0.57,0.44
			c-0.78-0.58-1.78-3.17-2.23-3.93c-2.79-4.75-5.8-9.42-9.18-13.78c-2.64-3.4-6.35-9.3-10.92-9.94
			C189.5,162.5,189.4,162.56,189.4,162.68L189.4,162.68z"/>
	</g>
</g>
<g>
	<g>
		<path class="st0" d="M195.29,151.55c0.05,5.77,4.19,11.25,6.96,16.07c2.31,4.03,5.19,11.95,9.9,13.78
			c4.84,1.87,7.78-3.71,10.26-6.84c4.2-5.3,9.01-10.46,12.57-16.21c1.4-2.26-1.78-4.66-3.64-2.81c-3.73,3.7-6.81,8.17-10.08,12.28
			c-1.44,1.81-3.08,4.89-4.96,6.22c-0.7,1.88-1.88,2.14-3.53,0.78c-0.49-0.83-0.98-1.65-1.49-2.46c-2.51-4.1-5.08-8.15-7.73-12.16
			c-2.22-3.36-4.27-6.9-7.92-8.84C195.49,151.26,195.29,151.36,195.29,151.55L195.29,151.55z"/>
	</g>
</g>
<g>
	<g>
		<path class="st0" d="M197.41,152.54c2.47,0.79,4.63-0.73,7.03-1.34c3.19-0.81,6.44-1.11,9.73-0.8c3.49,0.33,6.91,1.29,10.02,2.94
			c2.91,1.54,4.97,4.16,7.84,5.63c1.52,0.78,3.95-0.55,3.2-2.46c-2.47-6.33-11.35-9.82-17.59-10.87c-7.72-1.3-13.82,0.81-20.58,4.26
			C195.9,150.49,196.29,152.18,197.41,152.54L197.41,152.54z"/>
	</g>
</g>
<g>
	<g>
		<path class="st0" d="M226.8,134.25c2.98,2.54,7.97,1.1,11.58,0.73c4.7-0.49,10.25-0.52,14.36-2.96c1.55-0.92,1.35-3.56-0.52-3.98
			c-4.65-1.04-9.98,0.58-14.57,1.56c-3.56,0.76-8.85,0.94-10.9,4.29C226.68,133.98,226.7,134.16,226.8,134.25L226.8,134.25z"/>
	</g>
</g>
<g>
	<g>
		<path class="st0" d="M230.88,142.62c1.62,2.22,5.21,1.19,7.52,0.88c4.23-0.57,8.44-1.31,12.45-2.78c2.16-0.79,2.04-4.42-0.58-4.28
			C248.25,136.54,228.98,140,230.88,142.62L230.88,142.62z"/>
	</g>
</g>
<g>
	<g>
		<path class="st0" d="M256.06,213.55c2.98,2.54,7.97,1.1,11.58,0.73c4.7-0.49,10.25-0.52,14.36-2.96c1.55-0.92,1.35-3.56-0.52-3.98
			c-4.65-1.04-9.98,0.58-14.57,1.56c-3.56,0.76-8.85,0.94-10.9,4.29C255.95,213.28,255.96,213.46,256.06,213.55L256.06,213.55z"/>
	</g>
</g>
<g>
	<g>
		<path class="st0" d="M260.15,221.92c1.62,2.22,5.21,1.19,7.52,0.88c4.23-0.57,8.44-1.31,12.45-2.78c2.16-0.79,2.04-4.42-0.58-4.28
			C277.52,215.84,258.24,219.3,260.15,221.92L260.15,221.92z"/>
	</g>
</g>
<g>
	<g>
		<path class="st0" d="M143.63,173.29c2.98,2.54,7.97,1.1,11.58,0.73c4.7-0.49,10.25-0.52,14.36-2.96c1.55-0.92,1.35-3.56-0.52-3.98
			c-4.65-1.04-9.98,0.58-14.57,1.56c-3.56,0.76-8.85,0.94-10.9,4.29C143.52,173.02,143.53,173.2,143.63,173.29L143.63,173.29z"/>
	</g>
</g>
<g>
	<g>
		<path class="st0" d="M147.72,181.66c1.62,2.22,5.21,1.19,7.52,0.88c4.23-0.57,8.44-1.31,12.45-2.78c2.16-0.79,2.04-4.42-0.58-4.28
			C165.09,175.58,145.81,179.05,147.72,181.66L147.72,181.66z"/>
	</g>
</g>
<g>
	<g>
		<path class="st0" d="M154.59,259.05c10.99,0.73,22.83-2.4,33.65-4.06c12.06-1.85,24.07-4.02,36.1-6.06
			c23.7-4.01,47.4-8.07,70.89-13.14c2-0.43,1.09-3.24-0.82-2.98c-23.87,3.22-47.59,7.44-71.29,11.72c-11.67,2.1-23.36,4.07-35,6.35
			c-10.99,2.15-23.35,3.24-33.66,7.74C154.24,258.72,154.39,259.04,154.59,259.05L154.59,259.05z"/>
	</g>
</g>
<g>
	<g>
		<path class="st0" d="M189.28,334.83c0.18,3.07,1.17,5.97,2.03,8.91c0.53,1.8,0.83,4.44,2.8,5.31c1.92,0.86,4.43-0.45,6.25-0.97
			c3.13-0.91,6.7-1.43,9.43-3.24c1.14-0.76,0.71-2.52-0.7-2.58c-2.19-0.08-4.07,0.6-6.18,1.18c-0.87,0.24-6.37,2.42-7.12,1.94
			c-0.04-0.02-0.91-3.84-1.2-4.81c-0.66-2.26-1.31-4.45-2.47-6.51C191.4,332.79,189.19,333.3,189.28,334.83L189.28,334.83z"/>
	</g>
</g>
<g>
	<g>
		<path class="st0" d="M192.73,336.3c4.76,0.09,9.2-1.36,13.76-2.48c-0.78-0.6-1.57-1.19-2.35-1.79c0.54,4.16,1.26,9.77,4.85,12.41
			c0.89,0.65,2.23-0.22,2.19-1.25c-0.1-2.07-0.96-3.34-1.7-5.31c-0.78-2.06-1.3-4.17-1.68-6.34c-0.17-0.98-1.39-1.56-2.28-1.3
			c-4.31,1.25-8.88,1.55-13.22,2.69C190.38,333.43,190.8,336.26,192.73,336.3L192.73,336.3z"/>
	</g>
</g>
<g>
	<g>
		<path class="st0" d="M210.33,317.15c-1.28,2.24,0.25,5.97,0.89,8.23c1.12,3.97,2.35,7.9,3.59,11.83c0.74,2.33,0.97,4.94,3.69,5.56
			c1.7,0.39,3.8-0.75,5.4-1.21c3.17-0.91,6.45-1.56,9.33-3.19c1.17-0.66,0.68-2.62-0.7-2.58c-2.42,0.08-4.56,0.74-6.89,1.39
			c-1.1,0.3-5.64,2.16-6.34,1.8c-0.72-0.37-1.72-6.33-2.01-7.31c-0.93-3.17-1.81-6.37-2.88-9.5c-0.61-1.78-1.22-4.36-3.01-5.29
			C211.02,316.68,210.55,316.77,210.33,317.15L210.33,317.15z"/>
	</g>
</g>
<g>
	<g>
		<path class="st0" d="M211.72,318.31c2.48,3.71,12.01,0.05,15.25-0.79c-0.83-0.47-1.67-0.95-2.5-1.42
			c0.45,3.1,4.87,23.44,9.07,22.02c3.13-1.06-0.77-7.61-1.39-9.34c-1.61-4.53-3-9.01-3.76-13.75c-0.17-1.09-1.54-1.68-2.5-1.42
			C224.62,313.94,210.46,316.42,211.72,318.31L211.72,318.31z"/>
	</g>
</g>
<g>
	<g>
		<path class="st0" d="M227.53,288.92c-1.4,3.01,0.25,6.82,1.22,9.97c2.06,6.74,4.4,13.43,6.77,20.07c1.7,4.76,3.18,9.59,4.83,14.36
			c0.62,1.81,1.18,3.2,3.28,3.46c1.87,0.23,4.33-1,6.04-1.49c2.9-0.83,5.8-1.43,8.43-2.91c1.18-0.66,0.68-2.63-0.7-2.58
			c-2.42,0.09-4.56,0.75-6.89,1.4c-1.07,0.3-5.8,2.12-6.31,1.83c-0.53-0.3-0.98-3.11-1.18-3.71c-1.73-5.34-3.45-10.7-5.24-16.02
			c-1.93-5.72-3.75-11.5-5.87-17.15c-1.04-2.77-1.87-5.72-4.35-7.24C227.55,288.9,227.54,288.91,227.53,288.92L227.53,288.92z"/>
	</g>
</g>
<g>
	<g>
		<path class="st0" d="M228.48,290.32c4.14,2.74,10.81,0.27,15.2-0.87c-0.82-0.47-1.64-0.93-2.46-1.4
			c1.24,7.92,4.98,15.76,7.52,23.32c1.58,4.69,3.15,9.39,4.91,14.02c0.78,2.05,1.44,5.61,3.64,6.59c0.77,0.34,1.95,0.15,2.13-0.87
			c0.44-2.49-1.28-5.29-2.14-7.57c-1.71-4.56-3.4-9.12-5.04-13.7c-2.62-7.31-5.91-15.15-7.17-22.84c-0.18-1.07-1.5-1.65-2.46-1.4
			c-4.41,1.19-10.84,1.15-14.16,4.54C228.4,290.19,228.41,290.28,228.48,290.32L228.48,290.32z"/>
	</g>
</g>
<g>
	<g>
		<path class="st0" d="M251.53,274.35c-1.38,3.88,0.64,8.65,1.78,12.53c2.2,7.55,4.65,15.05,7.05,22.54
			c1.78,5.54,3.44,11.11,5.2,16.66c0.5,1.56,0.83,3.41,2.55,4.07c1.82,0.7,4.42-0.6,6.08-1.08c3.18-0.91,6.45-1.54,9.34-3.17
			c1.18-0.66,0.68-2.63-0.7-2.58c-2.76,0.1-12.07,3.96-13.3,2.9c-0.82-0.71-1.19-3.95-1.5-4.96c-1.88-6.16-3.7-12.35-5.6-18.5
			c-2.06-6.65-4.02-13.33-6.27-19.92c-1.09-3.19-1.99-6.5-4.6-8.51C251.55,274.33,251.53,274.34,251.53,274.35L251.53,274.35z"/>
	</g>
</g>
<g>
	<g>
		<path class="st0" d="M252.48,275.75c4.79,2.24,10.32,0.4,15.2-0.87c-0.82-0.46-1.63-0.93-2.45-1.39
			c1.41,9.26,5.44,18.43,8.19,27.34c1.71,5.55,3.41,11.12,5.31,16.61c0.85,2.45,1.52,6.7,4,8.08c1.02,0.57,2.09-0.17,2.19-1.25
			c0.25-2.8-1.63-6.07-2.52-8.67c-1.91-5.59-3.81-11.18-5.64-16.79c-2.77-8.48-6.27-17.53-7.68-26.37c-0.17-1.07-1.5-1.64-2.45-1.39
			c-4.77,1.28-10.12,1.48-14.14,4.51C252.42,275.59,252.39,275.7,252.48,275.75L252.48,275.75z"/>
	</g>
</g>
<g>
	<g>
		<path class="st0" d="M273.53,259.35c-1.15,4.37,1.03,9.34,2.36,13.62c2.69,8.65,5.65,17.22,8.59,25.79
			c2.29,6.7,4.51,13.43,6.7,20.16c0.5,1.55,0.86,3.93,2.3,4.88c1.54,1.01,3.31,0.21,4.89-0.22c3.73-1.01,7.8-1.79,11.17-3.68
			c1.18-0.66,0.68-2.63-0.7-2.58c-3.12,0.12-11.98,4.06-13.4,2.61c-1-1.02-1.38-4.31-1.81-5.65c-2.28-7.02-4.55-14.05-6.82-21.07
			c-2.48-7.67-4.95-15.37-7.66-22.96c-1.4-3.92-2.52-8.15-5.57-10.92C273.56,259.33,273.53,259.33,273.53,259.35L273.53,259.35z"/>
	</g>
</g>
<g>
	<g>
		<path class="st0" d="M274.51,260.76c5.27,1.61,9.86,0.49,15.17-0.89c-0.81-0.46-1.63-0.92-2.44-1.39
			c1.68,10.77,6.83,21.53,10.22,31.82c2.17,6.58,4.32,13.18,6.67,19.7c1.04,2.91,1.85,7.67,4.6,9.5c0.94,0.63,2.18-0.21,2.19-1.25
			c0.04-3.35-2.02-6.98-3.13-10.09c-2.37-6.62-4.73-13.24-7.03-19.88c-2.28-6.59-4.27-13.24-6.41-19.88
			c-1.15-3.56-2.68-7.27-3.28-10.98c-0.17-1.07-1.5-1.64-2.44-1.39c-4.97,1.33-9.65,2.01-14.14,4.51
			C274.39,260.59,274.41,260.73,274.51,260.76L274.51,260.76z"/>
	</g>
</g>
</svg>
