<?xml version="1.0" encoding="utf-8"?>
<!-- Generator: Adobe Illustrator 23.0.1, SVG Export Plug-In . SVG Version: 6.00 Build 0)  -->
<svg version="1.1" id="Laag_1" xmlns="http://www.w3.org/2000/svg" xmlns:xlink="http://www.w3.org/1999/xlink" x="0px" y="0px"
	 viewBox="0 0 566.93 566.93" style="enable-background:new 0 0 566.93 566.93;" xml:space="preserve">
<style type="text/css">
	.st0{fill:#1E1E1C;}
</style>
<g>
	<g>
		<path class="st0" d="M329.01,381.42c-6.64,15.14-11.48,31.25-17.07,46.81c-5.77,16.07-10.82,32.42-13.31,49.35
			c-0.27,1.87,0.44,3.74,2.44,4.29c5.72,1.57,11.44,3.14,17.16,4.71c3.09,0.85,7.92,3.25,10.82,0.65c2.96-2.66,2.85-9.04,3.61-12.66
			c1.3-6.19,2.6-12.39,3.9-18.58c2.47-11.74,4.93-23.48,7.4-35.21c2.53-12.02,5.63-24.09,7.42-36.24c0.59-4.03-5.14-5.89-6.28-1.73
			c-5.63,20.46-8.99,41.78-13.36,62.54c-2.2,10.43-4.39,20.86-6.59,31.3c-0.27,1.3-0.55,2.61-0.82,3.91c-1,2.32-0.52,2.63,1.45,0.92
			c0-0.01-7.03-1.94-7.62-2.11c-5.08-1.4-10.16-2.82-15.24-4.23c0.85,1.12,1.71,2.24,2.56,3.36c2.21-16.96,7.27-33.33,12.39-49.59
			c4.81-15.3,11.2-31.05,12.27-47.18C330.18,381.14,329.25,380.86,329.01,381.42L329.01,381.42z"/>
	</g>
</g>
<g>
	<g>
		<path class="st0" d="M319.89,474.41c-1.51-1.52-3.67-1.98-4.7-4.06c-0.9-1.82-0.39-6.91,2.5-4.64c1.41,1.11,2.55,3.82,1.23,5.42
			c-0.87,1.05-2.91,1.47-3.96,0.53c-1.78-1.59-4.89,0.47-3.46,2.67c2.69,4.15,8.71,4.21,11.78,0.4c3.48-4.33,1.52-11.31-3.18-13.89
			c-5.68-3.12-10.53,2.14-9.9,7.83c0.29,2.61,1.66,5.03,3.94,6.4c1.69,1.02,4.12,1.65,5.75,0.25
			C320.15,475.09,320.12,474.64,319.89,474.41L319.89,474.41z"/>
	</g>
</g>
<g>
	<g>
		<path class="st0" d="M224.92,353.26c2.01,4.22,7.32,6.26,11.35,8.08c4.93,2.23,10.05,4.03,15.2,5.66
			c11.27,3.57,22.8,6.1,34.45,8.05c23.24,3.89,46.65,6.87,69.92,10.59c4.22,0.67,6.15-5.48,1.81-6.55
			c-22.55-5.56-46.12-6.94-69-10.69c-11.08-1.82-22.16-3.91-33-6.87c-5.52-1.51-10.93-3.33-16.33-5.23
			c-4.38-1.54-9.5-4.38-14.22-3.49C224.89,352.85,224.84,353.09,224.92,353.26L224.92,353.26z"/>
	</g>
</g>
<g>
	<g>
		<path class="st0" d="M231.62,356.57c-4.25,6.54-6.4,14.74-8.78,22.09c-2.63,8.1-5.21,16.22-7.75,24.35
			c-5.07,16.26-10.16,32.51-15.18,48.79c-0.48,1.57,0.57,3.59,2.23,3.92c8.76,1.79,17.31,4.35,26.03,6.28
			c2.06,0.46,3.64-0.91,3.84-2.92c1.64-16.86,4.4-33.85,8.82-50.21c3.94-14.6,9.53-29.74,9.11-45.08c-0.1-3.69-5.39-3.61-5.67,0
			c-1.24,15.98-5.84,30.71-9.86,46.14c-4.15,15.92-5.82,32.14-8.36,48.35c1.24-0.71,2.49-1.41,3.73-2.12
			c-8.45-2.85-17.27-4.58-25.95-6.59c0.74,1.31,1.48,2.62,2.23,3.92c5.08-16.26,10.09-32.53,15.12-48.8
			c2.51-8.14,4.98-16.28,7.4-24.44c2.2-7.41,5.02-15.29,5.22-23.08C233.84,355.95,232.23,355.64,231.62,356.57L231.62,356.57z"/>
	</g>
</g>
<g>
	<g>
		<path class="st0" d="M217.86,433.3c-1.34-1.27-3.45-0.58-4.95,0.18c-2.07,1.04-3.59,2.87-4.36,5.05
			c-1.64,4.63,0.35,10.01,5.23,11.52c4.42,1.37,8.65-1.42,9.56-5.86c0.98-4.83-2.44-9.99-6.93-11.65c-2.69-0.99-4.37,2.7-2.65,4.54
			c1.58,1.7,4.55,3.14,4.12,5.94c-0.35,2.23-2.81,2.05-3.79,0.36c-1.26-2.17,0.45-4.94,1.95-6.51
			C216.7,436.2,219.21,434.58,217.86,433.3L217.86,433.3z"/>
	</g>
</g>
<g>
	<g>
		<path class="st0" d="M258.62,365.78c-2.3,5.53,3.18,15.35,6.66,19.55c4.67,5.63,11.69,8.97,18.84,10.02
			c16.5,2.43,32.23-6.74,42.44-19.12c1.91-2.31-0.96-5.19-3.28-3.28c-10.61,8.73-22.72,18.03-37.32,16.4
			c-6.31-0.7-12.29-3.37-16.47-8.23c-2.27-2.63-3.8-5.68-5.22-8.82c-1.21-2.68-1.76-5.43-4.27-7.07
			C259.43,364.86,258.84,365.26,258.62,365.78L258.62,365.78z"/>
	</g>
</g>
<g>
	<g>
		<path class="st0" d="M212.79,447.77c-2.8,12.63-2.28,26.08-2.23,38.99c0.05,13.2,0.38,26.42,1.41,39.58
			c1,12.74,2.6,25.46,5.06,38.01c2.39,12.23,5.09,26.28,11.9,36.94c1.21,1.9,3.72,0.59,3.43-1.44c-1.8-12.53-6.5-24.79-8.99-37.24
			c-2.57-12.88-4.15-25.92-5.19-39.01c-0.99-12.56-1.45-25.16-1.61-37.76c-0.17-12.63,0.66-25.65-1.68-38.07
			C214.67,446.72,213.01,446.76,212.79,447.77L212.79,447.77z"/>
	</g>
</g>
<g>
	<g>
		<path class="st0" d="M238.87,432.36c1.58,12.05,17.63,19.15,27.65,22.53c7.33,2.48,14.99,3.83,22.74,3.7
			c7.43-0.12,16.43-1.04,22.66-5.42c1.88-1.32,0.67-3.85-1.5-3.56c-7.18,0.98-13.8,3.42-21.16,3.54c-7.04,0.11-13.9-1.09-20.58-3.27
			c-5.45-1.78-10.76-4.02-15.57-7.17c-4.85-3.17-8.6-7.77-13.49-10.79C239.33,431.76,238.82,431.98,238.87,432.36L238.87,432.36z"/>
	</g>
</g>
<g>
	<g>
		<path class="st0" d="M241.63,551.46c3.95,0.31,7.75,1.7,11.7,2.29c3.89,0.58,7.79,0.89,11.71,1.1c6.74,0.36,15.73,1.89,22.12-0.69
			c2.13-0.86,2.4-3.84,0-4.61c-6.65-2.13-15.2-0.33-22.12-0.2c-3.91,0.07-7.81,0.1-11.71,0.33c-3.84,0.23-7.89,1.08-11.7,0.79
			C241,550.43,241,551.41,241.63,551.46L241.63,551.46z"/>
	</g>
</g>
<g>
	<g>
		<path class="st0" d="M264.61,552.47c-2.56,5.06-1.34,12.12-0.94,17.6c0.51,6.93,1.4,13.85,2.39,20.73
			c1.57,10.85,2.38,23.7,11.84,30.79c2.98,2.23,6.87-2.78,4-5.19c-7.86-6.6-8.38-20.75-9.94-30.17c-0.99-6-1.74-12.02-2.5-18.05
			c-0.63-4.99-0.43-11.38-3.2-15.7C265.91,551.9,264.96,551.8,264.61,552.47L264.61,552.47z"/>
	</g>
</g>
<g>
	<g>
		<path class="st0" d="M224.25,352.78c-6.49,13.78-14.99,25.72-28.91,32.78c-15.05,7.63-31.98,5.59-45.18-4.82
			c-12.25-9.66-20.51-24.37-24.45-39.29c-2.01-7.61-2.85-15.41-2.71-23.27c0.14-7.59,2.52-14.92,2.72-22.42
			c0.06-2.15-2.76-2.66-3.84-1.04c-3.56,5.35-4.37,12.64-4.98,18.9c-0.66,6.88-0.34,13.77,0.72,20.6
			c2.09,13.52,7.39,26.7,15.52,37.74c8.12,11.02,19.03,20.31,32.62,23.52c13.41,3.16,27.01-0.32,38.34-7.87
			c11.62-7.74,21.53-19.95,22.3-34.24C226.45,352.25,224.74,351.74,224.25,352.78L224.25,352.78z"/>
	</g>
</g>
<g>
	<g>
		<path class="st0" d="M212.63,411.38c-14.38,6.75-29.28,13.44-45.62,10.65c-14.96-2.55-27.51-13.58-36.81-25.02
			c-10.47-12.87-17.53-28.36-21.11-44.52c-1.99-8.99-2.77-18.13-2.78-27.32c-0.01-8.86,1.58-17.53,2.02-26.34
			c0.09-1.82-2.8-2.73-3.58-0.97c-5.92,13.29-5.96,29.99-4.26,44.18c1.78,14.84,6.1,29.24,13.29,42.37
			c12.06,22.02,33.72,44.6,60.58,44.27c13.98-0.17,29.85-5.15,39.7-15.47C215.01,412.22,213.81,410.83,212.63,411.38L212.63,411.38z
			"/>
	</g>
</g>
<g>
	<g>
		<path class="st0" d="M114.03,275.22c1.86-7.78,0.36-17,0.44-24.99c0.05-4.47,0.17-8.95,0.48-13.41c0.17-2.38-0.1-5.12,2.04-6.85
			c1.57-1.26,4.31-1.09,6.21-1.11c-0.72-0.72-1.44-1.44-2.16-2.16c-0.29,17.75-0.16,35.51-0.14,53.26c0,1.99,2.59,3.15,4,1.66
			c5.16-5.45,12.03-22.15,21.86-16.71c-0.15-1.16-0.3-2.32-0.45-3.47c-5.4,6.27-10.21,13.14-14.36,20.29
			c-3.97,6.83-8.81,14.77-10.35,22.57c-0.43,2.15,2.43,3.55,3.64,1.54c3.98-6.62,6.43-14.24,10.32-20.99
			c4.11-7.14,8.82-13.79,13.88-20.28c0.81-1.03,0.96-2.77-0.45-3.47c-13.41-6.67-20.08,9.64-27.4,17.22c1.33,0.55,2.67,1.1,4,1.66
			c-0.01-17.75,0.1-35.51-0.22-53.26c-0.02-1.15-0.97-2.19-2.16-2.16c-3.36,0.06-7.21,0.27-9.78,2.74
			c-3.23,3.11-2.73,8.35-2.84,12.41c-0.18,6.39-0.15,12.78,0.23,19.16c0.32,5.34,0.33,11.49,2.5,16.46
			C113.44,275.63,113.96,275.53,114.03,275.22L114.03,275.22z"/>
	</g>
</g>
<g>
	<g>
		<path class="st0" d="M112.06,264.59c-2.93-0.8-8.59-1.65-11.35-0.1c-2.67,1.5-1.87,4.68-1.76,7.31
			c0.23,5.64,0.45,11.28,0.68,16.92c0.12,2.99-0.76,8.81,1.71,11.12c2.01,1.88,5.29,0.59,7.65,0.2c2.75-0.46,5.01-0.71,5.81-3.69
			c0.86-3.19-0.61-6.85-0.86-10.03c-0.45-5.75,0.4-11.52,0.19-17.27c-0.07-1.81-2.84-2.34-3.27-0.44
			c-1.34,5.97-1.84,12.51-1.19,18.62c0.21,1.99,1.07,3.98,1.12,5.96c0.06,2.22-0.29,2.37-2.06,3.05c-1.11,0.43-4.05,1.01-5,0.01
			c-0.95-1-0.3-7.85-0.38-9.4c-0.19-3.76-0.39-7.52-0.58-11.28c-0.09-1.75-1.13-6.7,0.05-7.94c0.48-0.51,4.92-0.76,5.66-0.94
			c1.39-0.34,2.37-0.75,3.66-1.4C112.44,265.13,112.35,264.67,112.06,264.59L112.06,264.59z"/>
	</g>
</g>
<g>
	<g>
		<path class="st0" d="M102.76,296.7c-1.95-1.4-3.81-0.78-5.81-1.83c-2.64-1.38-2.53-6.79-2.91-9.42
			c-0.49-3.36-0.88-6.74-1.19-10.12c-0.04-0.38-0.95-4.37-1.13-4.12c0.33-0.45,5.05,0.07,5.57,0.06c2.82-0.05,2.8-4.23,0-4.36
			c-6.43-0.31-9.61-0.7-9.05,6.46c0.6,7.63,0.8,16.86,3.45,24.07c0.26,0.71,0.82,1.54,1.65,1.65c3.18,0.45,6.8,0.09,9.41-1.87
			C102.95,297.08,102.96,296.84,102.76,296.7L102.76,296.7z"/>
	</g>
</g>
<g>
	<g>
		<path class="st0" d="M460.63,255.31c2.05-4.71,2.12-10.43,2.44-15.5c0.42-6.7,0.47-13.41,0.29-20.12
			c-0.11-3.92,0.35-8.79-2.45-11.95c-2.54-2.87-6.59-3.13-10.17-3.2c-1.18-0.02-2.14,1.01-2.16,2.16
			c-0.32,17.75-0.21,35.51-0.22,53.26c1.33-0.55,2.67-1.1,4-1.66c-7.32-7.58-13.98-23.89-27.4-17.22c-1.41,0.7-1.25,2.44-0.45,3.47
			c5.06,6.49,9.77,13.14,13.88,20.28c3.89,6.75,6.34,14.37,10.32,20.99c1.2,2,4.07,0.64,3.64-1.54c-1.54-7.78-6.4-15.77-10.35-22.57
			c-4.16-7.16-8.96-14.02-14.36-20.29c-0.15,1.16-0.3,2.32-0.45,3.47c9.82-5.43,16.66,11.22,21.86,16.71c1.41,1.49,4,0.33,4-1.66
			c0.02-17.75,0.15-35.51-0.14-53.26c-0.72,0.72-1.44,1.44-2.16,2.16c1.89,0.02,4.64-0.15,6.21,1.11c2.08,1.68,1.88,4.52,2.04,6.85
			c0.3,4.46,0.43,8.94,0.48,13.41c0.09,7.98-1.42,17.22,0.44,24.99C459.97,255.53,460.49,255.63,460.63,255.31L460.63,255.31z"/>
	</g>
</g>
<g>
	<g>
		<path class="st0" d="M461.79,245.27c2.59,1.3,6,0.93,8.37,2.2c1.64,0.88,1.18,0.41,1.29,2.45c0.1,1.8-0.2,3.83-0.29,5.64
			c-0.18,3.45-0.35,6.89-0.53,10.34c-0.08,1.57-0.17,3.13-0.24,4.7c-0.03,0.61,0.18,5.23-0.18,5.64c-1.61,1.8-6.88-0.06-7.21-2.07
			c-0.33-2.05,1.05-4.85,1.27-6.95c0.66-6.1,0.15-12.65-1.19-18.62c-0.42-1.88-3.2-1.38-3.27,0.44c-0.2,5.46,0.53,10.91,0.24,16.37
			c-0.18,3.35-1.65,7.09-1.02,10.44c0.57,2.97,2.41,3.58,5.15,4.06c2.49,0.44,6.28,1.92,8.41-0.08c2.29-2.14,1.57-7.46,1.68-10.18
			c0.23-5.64,0.45-11.28,0.68-16.92c0.1-2.51,1.16-6.46-1.41-8.07c-2.8-1.76-8.71-0.89-11.67-0.08
			C461.58,244.67,461.49,245.13,461.79,245.27L461.79,245.27z"/>
	</g>
</g>
<g>
	<g>
		<path class="st0" d="M471.17,277.22c2.61,1.96,6.23,2.32,9.41,1.87c0.83-0.12,1.39-0.94,1.65-1.65
			c2.64-7.19,2.85-16.49,3.45-24.07c0.56-7.13-2.62-6.77-9.05-6.46c-2.79,0.13-2.82,4.31,0,4.36c0.74,0.01,3.9-0.43,4.64-0.04
			c1.3-0.28,1.31,0.11,0.05,1.16c-0.05,0.65-0.11,1.3-0.16,1.96c-0.78,3.54-0.76,7.5-1.28,11.1c-0.38,2.63-0.23,6.67-2.09,8.58
			c-1.66,1.71-4.58,1.2-6.63,2.67C470.98,276.84,470.98,277.08,471.17,277.22L471.17,277.22z"/>
	</g>
</g>
<g>
	<g>
		<path class="st0" d="M304.88,153.26c4.5-4.16,0.49-9.83-4.34-11.27c-5.7-1.7-13.48-0.15-18.14,3.53
			c-4.6,3.63-5.91,9.88-2.66,14.88c3.62,5.58,10.92,7.47,17.13,8.05c14.99,1.4,34.61-4.36,42.89-17.93
			c7.97-13.05-2.18-28.32-14.69-33.44c-14.77-6.05-33.47-3.23-48.54,0.48c-14.86,3.66-29.43,10.4-40.29,21.41
			c-10.97,11.12-19.36,28.1-12.63,43.55c7.06,16.2,24.8,22.51,41.02,24.95c22.28,3.35,45.04,2.99,67.22-0.91
			c18.14-3.19,39.22-10.19,44.25-30.19c0.81-3.23-3.72-4.32-4.88-1.35c-5.08,12.94-18.01,19.77-30.76,23.04
			c-14.2,3.64-29.14,5.03-43.76,5.13c-14.2,0.1-29.21-0.69-42.9-4.72c-12.46-3.67-25.44-12.63-25.9-26.89
			c-0.41-12.75,8.5-24.47,17.93-32.16c9-7.33,19.91-12.05,31.07-14.99c11.36-3,23.83-4.85,35.59-3.81
			c11.43,1,27.92,9.55,23.74,23.75c-2.03,6.91-9.59,11.64-15.74,14.46c-6.85,3.15-14.5,4.51-22.01,3.91
			c-4.7-0.38-19.05-3.84-13.24-11.27c1.57-2,4.53-3.01,6.88-3.55c2.49-0.58,13.32-1.72,10.74,3.76
			C302.25,153,303.76,154.3,304.88,153.26L304.88,153.26z"/>
	</g>
</g>
<g>
	<g>
		<path class="st0" d="M243.53,259.13c-10.13,2.8-22.1-3.29-22.82-14.75c-0.73-11.61,12.61-20.31,21.9-11.74
			c2.7,2.49,6.74-1.52,4.04-4.04c-12.63-11.83-32.06-1.52-31.84,15.09c0.1,7.61,4.48,14.38,10.89,18.31
			c5.55,3.41,15.27,5.85,19.82-0.28C246.48,260.43,244.91,258.75,243.53,259.13L243.53,259.13z"/>
	</g>
</g>
<g>
	<g>
		<path class="st0" d="M372.2,261.72c4.42,5.95,13.69,3.77,19.22,0.62c6.72-3.84,11.38-10.81,11.49-18.65
			c0.22-16.62-19.21-26.92-31.84-15.09c-2.69,2.52,1.34,6.53,4.04,4.04c9.28-8.56,22.64,0.12,21.9,11.74
			c-0.72,11.46-12.68,17.55-22.82,14.75C372.82,258.75,371.24,260.43,372.2,261.72L372.2,261.72z"/>
	</g>
</g>
<g>
	<g>
		<path class="st0" d="M355.64,332.72c6.58-7.72,10.2-19.35,13.3-28.87c3.51-10.77,6.11-21.85,7.76-33.05
			c3.13-21.39,4.02-45.31-2.1-66.28c-0.63-2.17-4.32-1.87-4.1,0.55c1,10.7,2.59,21.27,2.98,32.03c0.39,10.75-0.1,21.51-1.39,32.19
			c-1.31,10.76-3.47,21.41-6.49,31.83c-1.53,5.29-3.23,10.55-5.13,15.73c-1.87,5.09-4.41,10.14-5.54,15.46
			C354.86,332.69,355.35,333.07,355.64,332.72L355.64,332.72z"/>
	</g>
</g>
<g>
	<g>
		<path class="st0" d="M265.44,332.31c-1.07-5.04-3.45-9.82-5.24-14.64c-1.92-5.17-3.63-10.42-5.18-15.71
			c-3.14-10.68-5.39-21.61-6.73-32.66c-1.26-10.39-1.76-20.86-1.43-31.32c0.36-11.06,1.99-21.91,3.01-32.9
			c0.22-2.4-3.46-2.75-4.1-0.55c-6.12,20.96-5.23,44.88-2.1,66.28c1.64,11.21,4.25,22.28,7.76,33.05
			c3.09,9.52,6.72,21.15,13.3,28.87C265.02,333.07,265.52,332.69,265.44,332.31L265.44,332.31z"/>
	</g>
</g>
<g>
	<g>
		<path class="st0" d="M263.34,334.64c2.99,5.24,13.66,6.9,19.15,8.1c8.1,1.77,16.46,2.39,24.74,2.24
			c16.54-0.31,33.28-3.77,47.76-11.98c2.29-1.3,0.76-5.2-1.82-4.33c-14.92,5.04-30.12,9.04-45.94,9.57
			c-7.44,0.25-14.87-0.23-22.25-1.13c-4.3-0.52-8.56-1.24-12.83-2c-2.9-0.52-5.94-1.63-8.78-0.54
			C263.34,334.58,263.33,334.61,263.34,334.64L263.34,334.64z"/>
	</g>
</g>
<g>
	<g>
		<path class="st0" d="M245.69,261.25c2.98,8.53,12.84,15.12,20.56,18.9c9.35,4.58,19.56,6.91,29.91,7.7
			c24.9,1.88,50.04-4.69,71.4-17.4c1.79-1.07,0.2-3.79-1.63-2.79c-20.27,11.03-43.68,17.29-66.83,16.53
			c-9.61-0.31-19.33-2-28.32-5.47c-4.78-1.84-9.33-4.31-13.52-7.26c-4.28-3.02-7.35-7.06-11.29-10.38
			C245.85,261,245.63,261.09,245.69,261.25L245.69,261.25z"/>
	</g>
</g>
<g>
	<g>
		<path class="st0" d="M266.92,291.02c-0.4,7.05,8.23,15.26,13.25,19.25c6.58,5.22,14.81,8.61,23.13,9.65
			c17.72,2.22,35.03-5.62,45.69-19.75c1.86-2.47-2.31-5.71-4.31-3.32c-9.87,11.84-25.48,18.85-40.96,16.86
			c-7.57-0.97-14.52-3.92-20.84-8.16c-3.09-2.07-6-4.53-8.58-7.22c-2.34-2.43-4.03-5.78-6.89-7.59
			C267.19,290.6,266.93,290.78,266.92,291.02L266.92,291.02z"/>
	</g>
</g>
<g>
	<g>
		<path class="st0" d="M254.08,226.72c3.62,0.92,7.47-0.68,10.99-1.59c4.15-1.07,8.29-2.12,12.49-2.96
			c8.97-1.8,18.07-2.56,27.12-3.83c2.41-0.34,1.59-3.84-0.54-4.01c-9.41-0.75-18.81,0.63-27.97,2.79c-4.75,1.12-9.5,2.49-14.02,4.31
			c-3.04,1.22-6.3,2.31-8.13,5.15C253.99,226.64,254.03,226.71,254.08,226.72L254.08,226.72z"/>
	</g>
</g>
<g>
	<g>
		<path class="st0" d="M325.78,220.47c3.53-0.32,7.92,0.84,11.45,1.44c3.64,0.62,7.25,1.36,10.81,2.31
			c6.89,1.84,13.25,4.97,19.85,7.61c1.93,0.77,3.65-2.23,2.05-3.53c-5.94-4.82-13.09-7.46-20.54-9.02
			c-3.52-0.73-7.21-1.22-10.81-1.19c-4.5,0.03-8.42,1.46-12.81,1.85C325.45,219.99,325.45,220.5,325.78,220.47L325.78,220.47z"/>
	</g>
</g>
<g>
	<g>
		<path class="st0" d="M353.69,237.25c-8.33-1.06-17.69,2.05-25.77,3.88c-2.82,0.64-2.9,5.19,0,5.78c6.41,1.31,13.9,3.47,20.41,2.08
			c2.54-0.55,1.93-3.76,0-4.57c-5.68-2.38-12.77-2.24-18.82-3.3c0,1.93,0,3.86,0,5.78c8-2.05,17.67-3.53,24.56-8.27
			C354.72,238.2,354.43,237.34,353.69,237.25L353.69,237.25z"/>
	</g>
</g>
<g>
	<g>
		<path class="st0" d="M309.08,242.99c-3.75,3.07-6.6,7.61-9.14,11.68c-1.79,2.86-3.56,5.95-3.67,9.41
			c-0.21,6.61,5.33,10.48,11.47,10.93c6.66,0.49,10.18-4.54,9.79-10.82c-0.48-7.57-4.98-16.32-10.47-21.47
			c-1.39-1.3-3.22,0.33-2.5,1.93c1.95,4.41,5.23,8.07,7.09,12.56c2.14,5.15,3.62,15.77-5.42,13.38c-13.28-3.5,1.58-20.05,3.14-27.46
			C309.39,242.98,309.21,242.89,309.08,242.99L309.08,242.99z"/>
	</g>
</g>
<g>
	<g>
		<path class="st0" d="M282.86,246.76c0.35,0.05,0.7,0.16,1.06,0.12c-0.29-0.04-0.58-0.08-0.87-0.12c0.23,0.08,0.76,0.15,1.01,0.14
			c0.79-0.01,1.51-0.28,2.13-0.75c0.55-0.42,1.15-1.11,1.26-1.82c0.12-0.79,0.18-1.31,0-2.09c-0.15-0.63-0.55-1.27-0.99-1.73
			c-0.76-0.79-1.87-1.23-2.96-1.23c-0.96,0-1.87,0.32-2.62,0.91c-0.64,0.49-1.1,1.14-1.34,1.92c-0.23,0.73-0.12,1.46,0.03,2.2
			c-0.04-0.31-0.08-0.61-0.12-0.92c0.02,0.09,0.02,0.19,0.02,0.28c0.04-0.31,0.08-0.62,0.12-0.92c-0.01,0.04-0.02,0.09-0.02,0.13
			c0.12-0.28,0.23-0.56,0.35-0.83c-0.02,0.04-0.04,0.07-0.06,0.11c0.7-0.54,1.4-1.07,2.1-1.61c-0.32,0.1-0.75,0.25-1.03,0.44
			c0.28-0.12,0.57-0.24,0.85-0.36c-0.03,0.01-0.06,0.01-0.08,0.02c0.32-0.04,0.63-0.09,0.95-0.13c-0.03,0-0.06-0.01-0.09-0.01
			c0.32,0.04,0.63,0.09,0.95,0.13c-0.31-0.12-0.77-0.14-1.11-0.17c-1.08-0.1-2.14,0.58-2.76,1.39c-0.61,0.8-1.05,2.07-0.63,3.07
			c0.12,0.29,0.23,0.65,0.39,0.92c0.3,0.51,0.78,0.97,1.28,1.28c0.56,0.34,1.36,0.57,2.01,0.54c0.86-0.04,1.62-0.3,2.29-0.82
			c0.93-0.72,1.37-1.75,1.42-2.92c-0.04,0.31-0.08,0.62-0.13,0.93c0.19-0.89,0.24-1.79-0.1-2.66c0,0.61,0,1.22,0,1.83
			c0.01-0.03,0.02-0.06,0.03-0.09c-0.12,0.27-0.23,0.55-0.35,0.82c0.01-0.03,0.03-0.05,0.04-0.08c-0.18,0.23-0.36,0.46-0.54,0.7
			c0.03-0.05,0.07-0.09,0.12-0.12c-0.23,0.18-0.46,0.36-0.69,0.54c0.05-0.04,0.1-0.06,0.15-0.08c-0.27,0.11-0.54,0.23-0.82,0.34
			c0.03-0.01,0.06-0.01,0.09-0.02c-0.3,0.04-0.61,0.08-0.91,0.12c0.06-0.01,0.12-0.01,0.18,0c-0.3-0.04-0.61-0.08-0.91-0.12
			c0.1,0.01,0.17,0.04,0.26,0.07c-0.28-0.12-0.55-0.23-0.83-0.35c0.05,0.02,0.1,0.06,0.15,0.09c-0.23-0.18-0.47-0.36-0.7-0.54
			c0.02,0.02,0.04,0.04,0.06,0.06c-0.18-0.23-0.36-0.47-0.54-0.7c0.04,0.04,0.07,0.09,0.09,0.14c-0.12-0.28-0.23-0.56-0.35-0.83
			c0.01,0.03,0.02,0.06,0.02,0.08c-0.04-0.31-0.08-0.62-0.12-0.93c0.01,0.06,0.01,0.12,0,0.18c0.04-0.31,0.08-0.62,0.13-0.93
			c-0.37,1.28,0.02,2.57,0.9,3.52c-0.18-0.23-0.36-0.46-0.54-0.69c0.01,0.02,0.02,0.04,0.04,0.05c-0.11-0.84-0.22-1.68-0.33-2.52
			c-0.01,0.02-0.01,0.05-0.02,0.07c0.11-0.26,0.22-0.51,0.32-0.77c-0.02,0.05-0.04,0.09-0.07,0.14c-0.52,0.85-0.54,1.88-0.16,2.78
			C281.18,245.75,281.94,246.63,282.86,246.76L282.86,246.76z"/>
	</g>
</g>
<g>
	<g>
		<path class="st0" d="M234.36,226.82c-2.75-4.27-3.33-11.69-3.25-16.65c0.09-6.09,1.89-11.97,5.17-17.09
			c1.48-2.31-2.12-4.34-3.64-2.13c-3.92,5.68-6,12.29-5.68,19.22c0.15,3.12,0.67,6.29,1.86,9.19c1.26,3.06,3.43,4.95,5.18,7.67
			C234.15,227.26,234.51,227.05,234.36,226.82L234.36,226.82z"/>
	</g>
</g>
<g>
	<g>
		<path class="st0" d="M335.88,134.79c9.08,3.02,18.53,4.81,27.12,9.23c9.16,4.71,16.68,11.83,21.4,21.03
			c4.85,9.45,6.51,20.25,6.19,30.79c-0.34,11.51-4.21,22.46-4.84,33.86c-0.09,1.58,2.24,2.17,2.97,0.8
			c5.86-10.89,7.57-25.24,7.55-37.45c-0.01-11.14-2.33-22.48-7.75-32.29c-9.76-17.68-32.46-30.02-52.65-27.05
			C335.29,133.79,335.41,134.63,335.88,134.79L335.88,134.79z"/>
	</g>
</g>
<g>
	<g>
		<path class="st0" d="M349.95,426.92c-4.07,5.16-6.05,12.2-8.01,18.38c-2.15,6.79-3.95,13.69-5.48,20.64
			c-3.18,14.48-5.03,29.2-5.62,44.01c-1.15,29,1.62,60.46,12.53,87.6c1.11,2.77,5.25,1.79,4.57-1.26
			c-3.18-14.22-6.75-28.32-8.65-42.8c-1.85-14.12-2.59-28.42-2.22-42.65c0.37-14.56,1.92-29.15,4.6-43.47
			c1.26-6.71,2.79-13.38,4.52-19.99c1.71-6.51,4.48-13.31,4.77-20.06C350.97,426.86,350.27,426.51,349.95,426.92L349.95,426.92z"/>
	</g>
</g>
<g>
	<g>
		<path class="st0" d="M255.12,445.79c0.67-5.75-0.27-11.84-0.69-17.6c-0.42-5.9-0.71-11.81-0.81-17.72
			c-0.87,0.87-1.75,1.75-2.62,2.62c23.16-0.46,46.3-1.3,69.44-2.23c3.6-0.14,3.63-5.73,0-5.62c-23.15,0.69-46.3,1.46-69.44,2.6
			c-1.39,0.07-2.66,1.15-2.62,2.62c0.3,11.38,0.16,25.27,5.08,35.77C253.88,447.13,255.03,446.56,255.12,445.79L255.12,445.79z"/>
	</g>
</g>
<g>
	<g>
		<path class="st0" d="M261.37,419.13c-2.47-1.92-5.28,0.56-5.18,3.3c0.13,3.35,3.3,5.47,6.45,5.34c3.23-0.13,5.71-2.7,4.77-6
			c-0.46-1.6-1.61-2.87-3.05-3.67c-1.33-0.75-3.5-1.69-4.88-0.65c-0.73,0.55-1.02,1.35-0.58,2.21c0.78,1.52,2.54,1.34,3.89,2.01
			c1.08,0.54,2.01,1.96,0.41,2.46c-1.15,0.36-2.88-0.07-3.41-1.24c-0.52-1.15,0.47-2.48,1.48-2.97
			C261.54,419.79,261.62,419.32,261.37,419.13L261.37,419.13z"/>
	</g>
</g>
<g>
	<g>
		<path class="st0" d="M188.59,393.5c-1.13,3.76,0.56,7.81,1.54,11.48c1.28,4.82,2.68,9.58,4.3,14.3c1.04,3.05,5.77,1.82,4.88-1.35
			c-1.35-4.81-2.89-9.52-4.57-14.23c-1.28-3.58-2.19-7.98-5.25-10.44C189.18,393.01,188.71,393.09,188.59,393.5L188.59,393.5z"/>
	</g>
</g>
<g>
	<g>
		<path class="st0" d="M476.5,277.15c-0.95,3.84-3.15,6.56-6.97,7.3c-1.33,0.26-5.37,0.98-5.39,0.97c-1.04-0.63-2.73,0.17-2.59,1.49
			c1.92,18.71-0.77,38.08-5.22,56.27c-4.04,16.51-10.44,32.57-21.05,46.01c-10.24,12.96-24.09,24.87-38.86,32.36
			c-14.41,7.31-31.49,9.14-47.41,9.68c-4,0.13-4.02,6.35,0,6.23c13.13-0.38,26.51-1.74,39.08-5.72
			c12.93-4.09,24.17-11.96,34.46-20.64c11.01-9.29,20.56-20.26,27.27-33.06c6.56-12.52,10.69-26.19,13.4-40.02
			c3.35-17.1,4.8-34.32,1.72-51.57c-0.84,0.65-1.69,1.3-2.53,1.95c2.35,1.2,6.77-0.9,8.89-1.96c3.45-1.73,5.18-5.51,5.67-9.24
			C476.99,276.95,476.56,276.9,476.5,277.15L476.5,277.15z"/>
	</g>
</g>
<g>
	<g>
		<path class="st0" d="M451.54,289.55c-3.22,5.46-4.76,12.36-6.39,18.45c-1.69,6.33-3.34,12.65-5.32,18.89
			c-3.81,12-9.01,23.67-16.76,33.67c-7.43,9.59-17.16,17.6-28.6,21.88c-12.33,4.6-24.53,4.23-36.95,0.46
			c-3.06-0.93-5.22,3.86-2.22,5.27c24.03,11.26,53-1.28,69.19-20.06c8.72-10.12,14.8-22.05,19.19-34.61
			c2.36-6.75,4.15-13.66,5.74-20.63c1.65-7.25,3.64-15.74,2.65-23.18C452.03,289.44,451.69,289.29,451.54,289.55L451.54,289.55z"/>
	</g>
</g>
<g>
	<g>
		<path class="st0" d="M381.14,386.08c-0.39,7.39,2.77,15.26,5.48,22c2.49,6.17,5.46,13.23,10.95,17.3
			c1.73,1.28,3.38-1.11,2.66-2.66c-2.96-6.39-7.37-11.89-10.1-18.49c-2.51-6.08-3.85-13.05-7.64-18.51
			C382.08,385.12,381.18,385.34,381.14,386.08L381.14,386.08z"/>
	</g>
</g>
<g>
	<g>
		<path class="st0" d="M104.51,107.38c-2.83-5.25-9.67-8.93-14.05-12.91c-5.09-4.64-9.91-9.62-14.46-14.79c0,1.12,0,2.24,0,3.35
			c4.12-3.36,8.25-6.71,12.38-10.06c-1.12,0-2.23,0-3.35,0c8.24,7.67,16.33,15.53,24.18,23.59c2.28,2.34,5.86-1.24,3.58-3.58
			c-7.88-8.08-15.98-15.86-24.42-23.36c-1.03-0.92-2.3-0.85-3.35,0c-4.13,3.35-8.25,6.71-12.39,10.06c-1.05,0.85-0.76,2.46,0,3.35
			c4.68,5.5,9.67,10.61,15.14,15.32c4.27,3.68,9.92,9.54,15.66,10.4C104.24,108.87,104.92,108.15,104.51,107.38L104.51,107.38z"/>
	</g>
</g>
<g>
	<g>
		<path class="st0" d="M113.41,118.03c2.45,4.8,7.85,8.24,11.97,11.57c4.19,3.39,8.71,8.23,13.5,10.7c3.02,1.55,4.6-0.88,6.61-2.96
			c3.88-4.02,7.23-8.29,10.24-13c0.75-1.18,0.27-2.95-0.95-3.62c-8.78-4.81-17.29-10.08-25.35-16.01c-2.83-2.08-5.51,2.63-2.74,4.7
			c8.04,6.03,16.44,11.38,25.43,15.88c-0.32-1.21-0.63-2.41-0.95-3.62c-2.89,4.71-6.75,11.99-11.53,14.93c0.78,0,1.56,0,2.34,0
			c-4.82-2.07-9.73-7.32-13.92-10.48c-4.21-3.18-8.86-7.6-14.1-8.82C113.54,117.21,113.22,117.64,113.41,118.03L113.41,118.03z"/>
	</g>
</g>
<g>
	<g>
		<path class="st0" d="M114.31,116.34c-4.41,2.19-7.2,7.72-10.51,11.29c-3.74,4.04-7.92,7.68-12.06,11.31c1.12,0,2.24,0,3.37,0
			c-3.38-4.11-6.76-8.22-10.05-12.4c0,1.13,0,2.26,0,3.39c5.98-6.28,12.2-12.28,18.43-18.31c2.34-2.27-1.24-5.85-3.58-3.58
			c-6.24,6.04-12.53,11.94-18.24,18.5c-0.91,1.04-0.88,2.34,0,3.39c3.41,4.08,6.75,8.22,10.07,12.37c0.85,1.06,2.47,0.75,3.37,0
			c4.55-3.83,8.95-7.74,12.81-12.28c3.08-3.63,7.27-8.01,7.81-12.88C115.81,116.39,114.88,116.06,114.31,116.34L114.31,116.34z"/>
	</g>
</g>
<g>
	<g>
		<path class="st0" d="M124.97,107.43c4.8-2.45,8.24-7.85,11.57-11.97c3.39-4.19,8.23-8.71,10.7-13.5c1.55-3.02-0.88-4.6-2.96-6.61
			c-4.02-3.88-8.29-7.23-13-10.24c-1.18-0.75-2.95-0.27-3.62,0.95c-4.81,8.78-10.08,17.29-16.01,25.35
			c-2.08,2.83,2.63,5.51,4.7,2.74c6.03-8.04,11.38-16.44,15.88-25.43c-1.21,0.32-2.41,0.63-3.62,0.95
			c4.71,2.89,11.99,6.75,14.93,11.53c0-0.78,0-1.56,0-2.34c-2.07,4.82-7.32,9.73-10.48,13.92c-3.18,4.21-7.6,8.86-8.82,14.1
			C124.14,107.31,124.58,107.63,124.97,107.43L124.97,107.43z"/>
	</g>
</g>
<g>
	<g>
		<path class="st0" d="M122.54,156.07c-5.02-1.38-10.11-1.58-15.23-2.52c-5.77-1.06-11.42-2.45-16.87-4.63
			c-9.98-4.01-19.55-10.22-25.37-19.47c-10.19-16.19-8.83-38.13,1.91-53.69c11.2-16.22,31.14-25.36,50.56-25.8
			c10.59-0.24,21.48,2.07,30.54,7.7c9.36,5.82,15.93,15.51,20.25,25.48c5.07,11.7,6.64,25.2,1.81,37.24
			c-4.64,11.58-14.92,19.34-26.32,23.64c-2.2,0.83-3.27,3.05-2.13,5.23c5.43,10.31,10.16,20.89,14.2,31.82
			c1.63-1.25,3.26-2.51,4.9-3.76c-12.69-7.66-25.09-15.75-37.32-24.12c-3.35-2.29-6.48,3.14-3.17,5.42
			c12.2,8.42,24.61,16.51,37.13,24.45c2.37,1.5,5.86-1.01,4.9-3.76c-4.02-11.54-8.86-22.79-14.48-33.64
			c-0.71,1.74-1.42,3.49-2.13,5.23c11.12-4.24,21.43-11,27.55-21.48c6.15-10.54,7.44-23.37,5.11-35.21
			c-4.77-24.2-22.56-44.79-47.32-48.93c-22.03-3.68-45.88,3.14-61.84,19c-15.65,15.55-21.29,39.81-12.98,60.45
			c4.83,12,14.22,20.89,25.66,26.66c11.44,5.77,28.11,11.1,40.65,6.27C123.26,157.38,123.37,156.3,122.54,156.07L122.54,156.07z"/>
	</g>
</g>
<g>
	<g>
		<path class="st0" d="M471.38,157.65c11.61,4.46,26.7,0.04,37.57-4.81c10.6-4.73,20.23-12.08,25.99-22.31
			c10.53-18.72,8.06-43.16-4.83-60.07c-13.55-17.78-36.44-27.06-58.51-26.11c-11.73,0.5-23.56,3.9-32.97,11.11
			c-9.71,7.44-16.67,18.82-20.72,30.23c-4.67,13.16-4.89,28.02,1.19,40.77c5.75,12.06,16.93,19.79,29.1,24.44
			c-0.71-1.74-1.42-3.49-2.13-5.23c-5.62,10.85-10.46,22.1-14.48,33.64c-0.96,2.74,2.52,5.28,4.9,3.76
			c12.52-7.94,24.93-16.03,37.13-24.45c3.3-2.28,0.18-7.72-3.17-5.42c-12.23,8.37-24.63,16.46-37.32,24.12
			c1.63,1.25,3.26,2.51,4.9,3.76c4.04-10.93,8.77-21.51,14.2-31.82c1.15-2.18,0.07-4.4-2.13-5.23
			c-9.92-3.74-19.13-10.08-24.37-19.51c-5.57-10.02-6.01-22.03-3.07-32.93c2.81-10.44,8.49-20.96,16.3-28.53
			c7.87-7.63,18.66-11.69,29.45-12.77c19.35-1.94,39.82,4.93,53.32,19.1c13.58,14.24,18.15,36.22,10.14,54.43
			c-4.63,10.52-13.34,17.93-23.51,22.92c-5.82,2.85-11.96,4.87-18.31,6.17c-6.21,1.27-12.57,1.49-18.67,3.17
			C470.55,156.3,470.66,157.38,471.38,157.65L471.38,157.65z"/>
	</g>
</g>
<g>
	<g>
		<path class="st0" d="M441.33,104.05c4.97-1.26,9.23-5.23,13.53-7.94c-1.31-0.34-2.62-0.69-3.93-1.03
			c2.54,5.42,5.76,10.62,8.8,15.78c1,1.7,3.5,2.09,4.89,0.63c12.47-13.03,24.89-26.11,37.43-39.08c-1.38,0-2.77,0-4.15,0
			c3.29,3.73,6.28,7.72,9.6,11.42c2.12,2.36,6.18-0.73,4.42-3.41c-2.86-4.35-6.42-8.28-9.86-12.16c-1.04-1.17-3.1-1.09-4.15,0
			c-12.5,13-25.12,25.89-37.68,38.83c1.63,0.21,3.26,0.42,4.89,0.63c-2.93-5.22-5.81-10.61-9.22-15.53
			c-1.08-1.55-3.07-1.9-4.51-0.58c-3.74,3.44-8.66,6.49-11.19,10.97C439.76,103.34,440.47,104.26,441.33,104.05L441.33,104.05z"/>
	</g>
</g>
<g>
	<g>
		<path class="st0" d="M439.73,102.87c6.66,10.62,14.76,20.19,21.12,31.04c0.81,1.38,3.03,1.84,4.16,0.54
			c14.62-16.92,31.33-31.61,47.13-47.36c1.7-1.7-0.56-4.88-2.64-3.42c-18.43,12.91-33.8,29.92-48.23,47.05
			c1.39,0.18,2.77,0.36,4.16,0.54c-6.58-10.9-14.08-22.01-24.47-29.59C440.21,101.11,439.27,102.15,439.73,102.87L439.73,102.87z"/>
	</g>
</g>
</svg>
