<?xml version="1.0" encoding="utf-8"?>
<!-- Generator: Adobe Illustrator 23.0.1, SVG Export Plug-In . SVG Version: 6.00 Build 0)  -->
<svg version="1.1" id="Laag_1" xmlns="http://www.w3.org/2000/svg" xmlns:xlink="http://www.w3.org/1999/xlink" x="0px" y="0px"
	 viewBox="0 0 566.93 566.93" style="enable-background:new 0 0 566.93 566.93;" xml:space="preserve">
<style type="text/css">
	.st0{fill:#1E1E1C;}
</style>
<g>
	<g>
		<path class="st0" d="M398.55,179.63c-10.74,4.84-23.68,7.53-35.3,9.27c-11.71,1.76-23.5,2.34-35.32,1.76
			c-23.75-1.16-47.73-6.1-62.56-26.44c-7.19-9.86-11.15-21.42-3.76-32.36c6.84-10.13,19.54-14.25,31.12-15.69
			c11.29-1.4,24.39-1.08,34.81,4.01c10.98,5.37,14.43,16.94,9.01,27.88c-6.1,12.3-19.7,18.07-32.97,16.66
			c-4.99-0.53-12.26-2.12-14.66-7.18c-1.81-3.83,0.6-7.97,4.1-9.74c1.4-0.71,3.17-1.08,4.75-1.17c1.4-0.07,2.78,0.05,4.15,0.37
			c1.47,0.25,2.81,0.83,4.02,1.75c-3.82,1.11-2.22,6.71,1.63,5.92c5.84-1.2,5.92-8.28,1.75-11.49c-5.01-3.86-13.72-3.98-19.25-1.27
			c-5.68,2.79-9.64,8.94-8.45,15.37c1.1,5.95,6.05,9.98,11.36,12.24c13.48,5.76,30.59,2.59,41.5-6.97
			c10.39-9.1,16.24-25.92,8.42-38.45c-7.86-12.61-25.06-15.48-38.7-15.68c-15.33-0.22-33,3.04-44.3,14.24
			c-25.58,25.37,4.91,59.79,30.5,69.37c17.56,6.57,38.09,7.17,56.6,5.89c9.22-0.64,18.38-2.01,27.28-4.57
			c9.35-2.69,17.05-6.96,25.38-11.81C400.92,180.8,399.82,179.06,398.55,179.63L398.55,179.63z"/>
	</g>
</g>
<g>
	<g>
		<path class="st0" d="M399.93,181.06c-4.02,6.93-4.38,17.38-4.91,25.27c-0.62,9.16-0.04,18.24,2.17,27.16
			c0.83,3.35,5.81,3.26,6.69,0c0.94-3.49,4.23-5.44,7.46-6.61c4.31-1.56,6.75-0.69,8.42,3.36c1.81,4.4,2.88,9.88,1.72,14.58
			c-1.07,4.34-4.23,7.18-8.34,8.68c-6.43,2.34-11.48,1.17-16.93-2.59c-2.58-1.78-5.15,1.59-3.98,3.98
			c4.29,8.68,16.83,7.94,24.36,4.78c7.24-3.04,11.64-9.32,12.15-17.15c0.46-7.16-1.77-18.53-8.67-22.28
			c-8.05-4.37-20.7,3.3-22.88,11.42c2.23,0,4.46,0,6.69,0c-2.14-8.63-2.61-17.4-2.3-26.26c0.27-7.66,2.5-16.52,0.66-24.02
			C401.98,180.29,400.47,180.13,399.93,181.06L399.93,181.06z"/>
	</g>
</g>
<g>
	<g>
		<path class="st0" d="M414.54,233.2c-1.88-1.34-4.6,0.86-6,2.02c-2.28,1.89-4.03,4.16-5.31,6.82c-0.95,1.97,0.61,4.17,2.82,3.67
			c1.44-0.32,3.18-1.26,4.65-1.19c1.39,0.07,1.32,1.02,1.88,2.13c0.51,1,2.08,1.45,3.01,0.79c2.97-2.08,1.6-5.68-1.18-7.24
			c-3.35-1.87-6.35-0.11-9.7,0.69c0.94,1.22,1.88,2.45,2.82,3.67c1.29-2.75,2.97-5.15,5.1-7.3
			C413.25,236.66,415.96,234.21,414.54,233.2L414.54,233.2z"/>
	</g>
</g>
<g>
	<g>
		<path class="st0" d="M283.45,184.98c-2.31,11.28-4.2,22.51-7.97,33.44c-3.89,11.28-9.2,21.97-14.94,32.4
			c-2.65,4.81-5.47,9.53-8.34,14.21c-2.57,4.18-6.68,8.77-8.15,13.49c-1.1,3.55,0.19,7.22,1.95,10.31
			c2.96,5.19,6.68,10.29,10.25,15.08c12.45,16.7,29.51,32.69,48.78,41.22c5.05,2.23,9.08,0.95,13.97-1.01
			c4.96-1.98,9.82-4.2,14.56-6.68c9.72-5.09,18.83-11.23,27.4-18.06c9.71-7.75,18.92-16.43,26.51-26.29
			c7.44-9.66,14.72-21.52,17.19-33.6c0.66-3.24-4.13-5.8-5.7-2.4c-4.38,9.48-7.97,18.91-13.92,27.6
			c-5.8,8.47-13.02,15.86-20.62,22.71c-7.5,6.77-15.55,12.9-24.12,18.25c-4.28,2.67-8.69,5.14-13.2,7.39
			c-4.54,2.26-9.63,5.11-14.62,6.24c-4.87,1.1-10.61-3.49-14.59-5.97c-4.76-2.96-9.35-6.22-13.68-9.78
			c-7.88-6.47-15.08-13.82-21.33-21.88c-3.09-3.99-5.82-8.2-8.61-12.4c-1.07-1.62-2.47-3.28-3.14-5.12
			c-1.2-3.31,0.14-4.93,1.91-7.65c5.66-8.69,10.88-17.74,15.49-27.03c9.47-19.12,18.52-42.61,15.98-64.32
			C284.45,184.57,283.58,184.33,283.45,184.98L283.45,184.98z"/>
	</g>
</g>
<g>
	<g>
		<path class="st0" d="M343.37,144.46c23.34-0.07,52.21-0.29,69.95,17.65c18.13,18.33,16.64,45.04,8.81,67.63
			c-1.34,3.86,4.54,5.28,6.01,1.66c9.72-23.93,8.49-54.43-10.58-73.53c-9.01-9.03-21.22-13.86-33.57-16.22
			c-13.19-2.53-28.46-4.6-41.16,0.85C341.84,142.93,342.4,144.46,343.37,144.46L343.37,144.46z"/>
	</g>
</g>
<g>
	<g>
		<path class="st0" d="M267.46,275.62c-1.42,9.94,9.43,21.57,16.56,27.13c9.78,7.61,21.93,11.5,34.29,9.61
			c11.71-1.79,22.28-8.28,29.01-18.04c6.01-8.72,10.53-23.17,6.59-33.56c-0.93-2.45-4.71-2.23-4.74,0.64
			c-0.06,5.11,0.76,9.84-0.22,14.97c-0.94,4.95-2.79,9.7-5.48,13.95c-5.79,9.16-15.56,15.21-26.23,16.8
			c-10.92,1.63-21.71-1.96-30.29-8.74c-4.08-3.22-7.73-7.12-10.62-11.44c-2.5-3.73-4.02-8.59-7.15-11.79
			C268.69,274.67,267.57,274.83,267.46,275.62L267.46,275.62z"/>
	</g>
</g>
<g>
	<g>
		<path class="st0" d="M271.07,214.78c0.03,0.05,0.06,0.09,0.09,0.14c0.45,0.68,1.38,1.21,2.21,0.9c6.39-2.32,12.77-4.33,19.45-5.62
			c6.6-1.27,13.42-0.99,19.97-2.43c1.62-0.36,1.5-2.74,0-3.16c-6.56-1.85-13.85-0.69-20.44,0.56c-7.11,1.35-14.07,3.71-20.49,7.07
			c-0.75,0.39-1.14,1.42-0.9,2.21C270.99,214.56,271.02,214.67,271.07,214.78L271.07,214.78z"/>
	</g>
</g>
<g>
	<g>
		<path class="st0" d="M330.05,210.88c4.15,0.54,8.12-0.07,12.25,0.99c4.04,1.04,7.79,2.9,11.33,5.08
			c6.52,4.01,12.42,9.37,19.62,12.15c1.69,0.65,2.67-1.68,1.64-2.82c-6.15-6.79-15.82-12.73-24.16-16.41
			c-6.08-2.68-15.68-5.21-21.09,0.01C329.23,210.27,329.58,210.82,330.05,210.88L330.05,210.88z"/>
	</g>
</g>
<g>
	<g>
		<path class="st0" d="M336.24,234.47c-0.06-0.08-0.11-0.17-0.15-0.27c0.11,0.26,0.22,0.52,0.33,0.79
			c-0.04-0.09-0.07-0.18-0.08-0.28c0.04,0.29,0.08,0.58,0.12,0.87c0-0.05,0-0.09-0.01-0.14c-0.04,0.29-0.08,0.58-0.12,0.87
			c0-0.1,0.03-0.19,0.07-0.27c-0.11,0.26-0.22,0.52-0.33,0.78c0.02-0.02,0.03-0.05,0.05-0.07c-0.17,0.22-0.34,0.44-0.51,0.66
			c0.02-0.02,0.04-0.03,0.06-0.05c-0.22,0.17-0.44,0.34-0.66,0.51c0.85-0.36,1.26-1.22,1.58-2.01c-0.11,0.25-0.21,0.51-0.32,0.76
			c0.01-0.02,0.02-0.03,0.03-0.05c-1.02,0.41-2.04,0.83-3.05,1.24c-0.47-0.36-0.94-0.73-1.4-1.09c-0.12-0.43-0.23-0.85-0.35-1.28
			c0.03-0.18,0.05-0.36,0.08-0.54c-0.35,1.59,0.72,3.01,2.35,3.09c1.09,0.05,2.09-0.68,2.5-1.66c0.17-0.39,0.13-0.28,0.19-0.71
			c0.17-1.24-0.16,1.25,0.03-0.18c0.08-0.58,0.01-1.11-0.22-1.65c-0.18-0.42-0.41-0.71-0.69-1.06c-0.66-0.84-2.19-1.18-3.17-0.84
			c-1.22,0.42-2.25,1.31-2.55,2.62c-0.27,1.17-0.04,2.25,0.51,3.3c0.81,1.53,3.06,2.12,4.52,1.18
			C336.52,238.04,337.21,236.04,336.24,234.47L336.24,234.47z"/>
	</g>
</g>
<g>
	<g>
		<path class="st0" d="M294.45,233.81c0.23-0.48,0.4-0.98,0.61-1.46c-0.12,0.29-0.24,0.58-0.37,0.87c0.02-0.04,0.04-0.08,0.06-0.12
			c-1.37,0.56-2.74,1.11-4.1,1.67c0.42,0.11,0.83,0.23,1.25,0.34c1.81,0.5,3.98-0.62,4.41-2.5c0.46-2.02-0.61-3.73-2.5-4.41
			c-0.41-0.15-0.81-0.29-1.22-0.44c-0.32-0.04-0.64-0.09-0.97-0.13c-0.5-0.02-0.97,0.09-1.4,0.31c-0.72,0.31-1.33,0.8-1.74,1.49
			c-0.77,1.3-1.05,3.08-0.12,4.39c0.74,1.04,1.72,1.75,3.05,1.75C292.57,235.56,293.92,234.91,294.45,233.81L294.45,233.81z"/>
	</g>
</g>
<g>
	<g>
		<path class="st0" d="M310.74,234.95c-6.17,0.91-13.46,6.08-15.73,12.03c-2.47,6.47,3.23,10.9,9.05,12
			c6.13,1.16,12.2-1.33,14.72-7.25c2.98-6.99-0.7-13.72-4.1-19.76c-0.84-1.5-3.01-1.06-3.51,0.46c-1.17,3.59,1.39,6.09,2.64,9.32
			c1.99,5.12,0.65,12.19-5.9,12.74c-1.93,0.16-4.63-0.24-6.27-1.37c-3.22-2.23-2.17-5.43,0.06-7.9c3.01-3.31,6.77-5.56,10.11-8.45
			C312.74,235.99,311.7,234.8,310.74,234.95L310.74,234.95z"/>
	</g>
</g>
<g>
	<g>
		<path class="st0" d="M409.61,472.96c8.5-9,14.55-21.24,20.75-31.88c6.48-11.12,12.53-22.52,18.33-34.01
			c2.08-4.12,3.7-7.38,2.1-11.97c-1.83-5.24-4.73-10.17-7.69-14.84c-2.99-4.7-6.51-9.11-9.19-14c-2.9-5.32-5.09-10.97-8.21-16.17
			c-0.34,1.29-0.68,2.58-1.02,3.87c4.26-2.08,8.14-4.7,11.87-7.62c-1.56-0.41-3.12-0.82-4.68-1.24c1.78,8.5,4.04,16.85,6.81,25.08
			c0.55,1.63,2.74,3.01,4.37,1.78c4.8-3.6,11.69,0.7,15.91,3.53c5.46,3.67,10.19,9.43,7.55,16.29c-0.99,2.57,3.21,4.33,4.46,1.88
			c4.19-8.27,0.23-16.98-6.84-22.18c-6.26-4.6-16.83-10.24-24.07-4.66c1.46,0.59,2.92,1.19,4.37,1.78
			c-2.87-8.2-5.25-16.52-7.15-24.99c-0.5-2.25-3.16-2.46-4.68-1.24c-3.36,2.7-6.91,4.79-10.76,6.69c-1.36,0.67-1.77,2.64-1.02,3.87
			c2.72,4.49,4.77,9.29,7.16,13.95c2.29,4.48,5.25,8.47,8.08,12.62c3,4.41,5.89,8.94,8.16,13.78c1.65,3.52,2.4,5.89,0.74,9.41
			c-1.34,2.84-2.81,5.63-4.23,8.42c-5.29,10.35-10.84,20.57-16.51,30.72c-5.47,9.8-12.45,19.51-16.55,29.97
			C407.22,472.93,408.85,473.76,409.61,472.96L409.61,472.96z"/>
	</g>
</g>
<g>
	<g>
		<path class="st0" d="M457.33,348.31c0.03,0,0.03-0.05,0-0.05C457.3,348.26,457.3,348.31,457.33,348.31L457.33,348.31z"/>
	</g>
</g>
<g>
	<g>
		<path class="st0" d="M463.93,335.7c-3.76,5.69-6.06,12.55-8.55,18.87c-2.04,5.19-1.61,7.31,3.48,9.72
			c6.87,3.25,13.7,6.59,20.61,9.76c4.79,2.19,6.7,2.45,9.91-1.85c3.91-5.23,7.89-10.82,10.81-16.68c2.48-4.97-0.18-7.63-4.45-10.11
			c-5.26-3.05-11.27-4.73-17.01-6.61c-6.66-2.18-14.31-5.81-21.37-5.82c-2.03,0-2.45,2.52-0.97,3.58c3.84,2.75,8.88,3.85,13.33,5.3
			c4.28,1.4,8.59,2.72,12.87,4.11c2.9,0.94,12.48,3,12.92,6.81c0.15,1.34-2.9,5.08-3.62,6.26c-1.11,1.8-2.26,3.56-3.44,5.31
			c-0.82,1.2-2.37,4.56-3.67,5.16c-2.27,1.04-5.11-1.2-7.15-2.11c-4.54-2.04-9.12-3.96-13.68-5.96c-1.52-0.67-4.39-1.22-4.98-2.9
			c-0.38-1.09,2.34-5.98,2.8-7.18c1.81-4.77,3.83-9.55,4.68-14.6C466.71,335.24,464.83,334.33,463.93,335.7L463.93,335.7z"/>
	</g>
</g>
<g>
	<g>
		<path class="st0" d="M466.87,365.07c3.01-2.51,3.89-8.15,5.46-11.66c1.83-4.09,4.32-7.93,5.68-12.21c0.51-1.62-1.57-2.6-2.7-1.57
			c-3.69,3.35-5.76,8.17-7.47,12.76c-1.37,3.67-3.65,8.77-1.92,12.56C466.09,365.34,466.6,365.3,466.87,365.07L466.87,365.07z"/>
	</g>
</g>
<g>
	<g>
		<path class="st0" d="M477.13,365.34c0.7-4.03,3.88-7.78,5.95-11.26c2.01-3.37,4.26-6.64,5.54-10.37c0.75-2.16-2.37-3.98-3.88-2.26
			c-3.13,3.56-5.21,8.06-7.53,12.18c-1.97,3.51-4.3,6.99-4.34,11.13C472.86,367.13,476.7,367.8,477.13,365.34L477.13,365.34z"/>
	</g>
</g>
<g>
	<g>
		<path class="st0" d="M418.3,509.78c4.86-9.01,6.83-19.82,10.77-29.3c4.35-10.48,9.66-20.55,15.55-30.24
			c12.03-19.81,26.87-37.59,40.38-56.37c1.89-2.62-2.37-5.92-4.49-3.47c-15.65,18.08-30.18,37.5-42.1,58.26
			c-5.44,9.48-10.22,19.36-14.08,29.59c-3.57,9.47-7.94,21.19-6.49,31.46C417.86,509.95,418.2,509.97,418.3,509.78L418.3,509.78z"/>
	</g>
</g>
<g>
	<g>
		<path class="st0" d="M420.48,506.75c-1.98-5.88-8.29-10.81-12.19-15.45c-5.16-6.13-9.71-12.71-13.79-19.6
			c-7.94-13.4-13.26-27.78-17.62-42.67c-0.87-2.97-4.95-1.66-4.52,1.25c2.34,15.74,8.61,30.96,16.8,44.54
			c3.97,6.59,8.56,12.83,13.53,18.7c4.23,5,10.03,12.75,16.79,14.23C420.04,507.89,420.69,507.38,420.48,506.75L420.48,506.75z"/>
	</g>
</g>
<g>
	<g>
		<path class="st0" d="M416.81,454.56c-8.09-8.71-13.45-20.61-17.74-31.58c-4.33-11.07-6.25-22.93-10.58-33.93
			c-0.71-1.8-3.35-1.61-3.45,0.47c-0.61,12.55,4.62,25.95,9.54,37.29c2.59,5.98,5.55,11.81,8.87,17.42c2.96,5,6.1,10.1,11.14,13.22
			C416.4,458.58,418.21,456.06,416.81,454.56L416.81,454.56z"/>
	</g>
</g>
<g>
	<g>
		<path class="st0" d="M384.48,454.85c0.96-1.3,1.06-2.68,1.62-4.19c0.95-2.55,2.62-5.01,4.09-7.28c2.52-3.9,5.37-7.57,7.97-11.42
			c1.21-1.79-1.28-4.46-3.08-3.08c-5.19,3.97-9.18,9.21-11.78,15.24c-1.35,3.12-3.36,9.16,0.81,10.88
			C384.25,455.06,384.4,454.96,384.48,454.85L384.48,454.85z"/>
	</g>
</g>
<g>
	<g>
		<path class="st0" d="M364.92,381.42c-6.64,15.14-11.48,31.25-17.07,46.81c-5.77,16.07-10.82,32.42-13.31,49.35
			c-0.27,1.87,0.44,3.74,2.44,4.29c5.72,1.57,11.44,3.14,17.16,4.71c3.09,0.85,7.92,3.25,10.82,0.65c2.96-2.66,2.85-9.04,3.61-12.66
			c1.3-6.19,2.6-12.39,3.9-18.58c2.47-11.74,4.93-23.48,7.4-35.21c2.53-12.02,5.63-24.09,7.42-36.24c0.59-4.03-5.14-5.89-6.28-1.73
			c-5.63,20.46-8.99,41.78-13.36,62.54c-2.2,10.43-4.39,20.86-6.59,31.3c-0.27,1.3-0.55,2.61-0.82,3.91c-1,2.32-0.52,2.63,1.45,0.92
			c0-0.01-7.03-1.94-7.62-2.11c-5.08-1.4-10.16-2.82-15.24-4.23c0.85,1.12,1.71,2.24,2.56,3.36c2.21-16.96,7.27-33.33,12.39-49.59
			c4.81-15.3,11.2-31.05,12.27-47.18C366.09,381.14,365.16,380.86,364.92,381.42L364.92,381.42z"/>
	</g>
</g>
<g>
	<g>
		<path class="st0" d="M355.8,474.41c-1.51-1.52-3.67-1.98-4.7-4.06c-0.9-1.82-0.39-6.91,2.5-4.64c1.41,1.11,2.55,3.82,1.23,5.42
			c-0.87,1.05-2.91,1.47-3.96,0.53c-1.78-1.59-4.89,0.47-3.46,2.67c2.69,4.15,8.71,4.21,11.78,0.4c3.48-4.33,1.52-11.31-3.18-13.89
			c-5.68-3.12-10.53,2.14-9.9,7.83c0.29,2.61,1.66,5.03,3.94,6.4c1.69,1.02,4.12,1.65,5.75,0.25
			C356.06,475.09,356.03,474.64,355.8,474.41L355.8,474.41z"/>
	</g>
</g>
<g>
	<g>
		<path class="st0" d="M260.82,353.26c2.01,4.22,7.32,6.26,11.35,8.08c4.93,2.23,10.05,4.03,15.2,5.66
			c11.27,3.57,22.8,6.1,34.45,8.05c23.24,3.89,46.65,6.87,69.92,10.59c4.22,0.67,6.15-5.48,1.81-6.55
			c-22.55-5.56-46.12-6.94-69-10.69c-11.08-1.82-22.16-3.91-33-6.87c-5.52-1.51-10.93-3.33-16.33-5.23
			c-4.38-1.54-9.5-4.38-14.22-3.49C260.8,352.85,260.75,353.09,260.82,353.26L260.82,353.26z"/>
	</g>
</g>
<g>
	<g>
		<path class="st0" d="M267.53,356.57c-4.25,6.54-6.4,14.74-8.78,22.09c-2.63,8.1-5.21,16.22-7.75,24.35
			c-5.07,16.26-10.16,32.51-15.18,48.79c-0.48,1.57,0.57,3.59,2.23,3.92c8.76,1.79,17.31,4.35,26.03,6.28
			c2.06,0.46,3.64-0.91,3.84-2.92c1.64-16.86,4.4-33.85,8.82-50.21c3.94-14.6,9.53-29.74,9.11-45.08c-0.1-3.69-5.39-3.61-5.67,0
			c-1.24,15.98-5.84,30.71-9.86,46.14c-4.15,15.92-5.82,32.14-8.36,48.35c1.24-0.71,2.49-1.41,3.73-2.12
			c-8.45-2.85-17.27-4.58-25.95-6.59c0.74,1.31,1.48,2.62,2.23,3.92c5.08-16.26,10.09-32.53,15.12-48.8
			c2.51-8.14,4.98-16.28,7.4-24.44c2.2-7.41,5.02-15.29,5.22-23.08C269.74,355.95,268.13,355.64,267.53,356.57L267.53,356.57z"/>
	</g>
</g>
<g>
	<g>
		<path class="st0" d="M253.77,433.3c-1.34-1.27-3.45-0.58-4.95,0.18c-2.07,1.04-3.59,2.87-4.36,5.05
			c-1.64,4.63,0.35,10.01,5.23,11.52c4.42,1.37,8.65-1.42,9.56-5.86c0.98-4.83-2.44-9.99-6.93-11.65c-2.69-0.99-4.37,2.7-2.65,4.54
			c1.58,1.7,4.55,3.14,4.12,5.94c-0.35,2.23-2.81,2.05-3.79,0.36c-1.26-2.17,0.45-4.94,1.95-6.51
			C252.6,436.2,255.12,434.58,253.77,433.3L253.77,433.3z"/>
	</g>
</g>
<g>
	<g>
		<path class="st0" d="M275.94,398.85c2.4,6.35,9.53,10.9,15.12,14.26c6.3,3.78,13.26,6.79,20.35,8.71
			c13.22,3.58,31.79,5.91,44.08-1.53c1.65-1,0.93-3.52-0.97-3.58c-7.03-0.23-14.03,1.2-21.09,1.15c-6.83-0.05-13.58-0.94-20.18-2.69
			c-6.64-1.76-13.01-4.15-19.06-7.4c-5.68-3.05-11.01-8.06-17.15-10.01C276.43,397.56,275.7,398.21,275.94,398.85L275.94,398.85z"/>
	</g>
</g>
<g>
	<g>
		<path class="st0" d="M294.52,365.78c-2.3,5.53,3.18,15.35,6.66,19.55c4.67,5.63,11.69,8.97,18.84,10.02
			c16.5,2.43,32.23-6.74,42.44-19.12c1.91-2.31-0.96-5.19-3.28-3.28c-10.61,8.73-22.72,18.03-37.32,16.4
			c-6.31-0.7-12.29-3.37-16.47-8.23c-2.27-2.63-3.8-5.68-5.22-8.82c-1.21-2.68-1.76-5.43-4.27-7.07
			C295.34,364.86,294.74,365.26,294.52,365.78L294.52,365.78z"/>
	</g>
</g>
<g>
	<g>
		<path class="st0" d="M208.09,369.35c-6.24-0.91-11.35-3.87-13.58-10.1c-1.85-5.19-2.31-15.81,5.87-14.9
			c1.36,0.15,2.59-1.54,2.12-2.79c-2.87-7.67-5.2-15.49-7.41-23.37c-0.52,0.92-1.04,1.84-1.56,2.76c4.25-0.69,8.54-1.2,12.74-2.16
			c-0.86-0.49-1.71-0.97-2.57-1.46c7.66,32.61,13.98,65.53,22.34,97.99c0.66,2.56,4.7,2.67,5.3,0c2.3-10.28,8.37-18.8,14.63-27.07
			c6.7-8.86,15.04-17.54,20.16-27.44c1.02-1.97-1.34-3.67-2.98-2.3c-8.84,7.38-15.79,18.3-22.55,27.57
			c-6.23,8.55-11.78,17.48-14.56,27.79c1.77,0,3.53,0,5.3,0c-6.97-32.77-15.96-65.04-23.61-97.63c-0.19-0.82-1.13-1.61-2.01-1.53
			c-4.49,0.39-8.92,1.25-13.38,1.93c-1.2,0.18-1.85,1.7-1.56,2.76c2.13,7.9,4.76,15.64,7.48,23.36c0.9-0.9,1.81-1.81,2.71-2.71
			c-10.93-3.18-13.66,10.67-11.93,18.41c1.74,7.81,10.86,17.93,19.18,11.42C208.4,369.73,208.31,369.38,208.09,369.35L208.09,369.35
			z"/>
	</g>
</g>
<g>
	<g>
		<path class="st0" d="M175.87,361.06c-2.21,12.64,13.09,20.7,23.85,19.51c-0.84-0.64-1.68-1.28-2.52-1.92
			c7.88,27.68,15.56,55.08,20.76,83.42c0.46,2.52,4.67,3.19,5.72,0.75c3.78-8.71,8.2-17.12,13.14-25.23
			c2.47-4.05,5.06-8.03,7.78-11.91c2.67-3.82,6.09-7.44,8.04-11.68c1.24-2.69-1.7-4.85-3.98-3.07c-3.44,2.69-5.86,6.65-8.36,10.18
			c-2.91,4.11-5.69,8.32-8.32,12.62c-5.11,8.35-9.58,17.05-13.71,25.93c1.91,0.25,3.82,0.5,5.72,0.75
			c-4.92-28.04-11.53-56.52-21.76-83.14c-0.37-0.97-1.33-2.06-2.52-1.92c-10.85,1.32-17.43-6.24-22.95-14.41
			C176.56,360.63,175.95,360.61,175.87,361.06L175.87,361.06z"/>
	</g>
</g>
<g>
	<g>
		<path class="st0" d="M238.29,390.27c-2.36,2.56,0.66,8.01,1.7,10.73c1.76,4.66,4.12,9.72,7.71,13.24c1.9,1.87,6.04-0.01,4.86-2.83
			c-2.27-5.4-6.04-10.17-9.05-15.18C243.27,395.84,239.75,388.7,238.29,390.27L238.29,390.27z"/>
	</g>
</g>
<g>
	<g>
		<path class="st0" d="M122.59,385.86c5.3,0.78,10.93-2.87,15.7-4.95c6.79-2.97,13.63-5.83,20.5-8.61
			c12.6-5.09,26.03-8.79,38.34-14.5c2.9-1.34,0.76-5.53-2.08-4.93c-13.5,2.87-26.91,9.07-39.66,14.27
			c-6.16,2.51-12.26,5.15-18.32,7.89c-4.91,2.22-12.27,4.35-15.14,9.2C121.61,384.8,121.87,385.76,122.59,385.86L122.59,385.86z"/>
	</g>
</g>
<g>
	<g>
		<path class="st0" d="M123.93,387.36c3.01-1.69,1.45-4.84,0-7.09c-3.35-5.21-6.72-10.36-9.68-15.8
			c-6.25-11.48-11.34-23.56-15.76-35.84c-8.13-22.58-12.87-46.34-26.93-66.22c-0.83,1.45-1.67,2.9-2.5,4.35
			c17.43-2.33,34.73-5.7,52-8.97c7.79-1.48,15.5-3.11,22.92-5.95c7.67-2.94,15.08-6.95,23.43-7.49c-0.87-0.5-1.74-1-2.6-1.49
			c5.42,12.77,10.15,25.87,14.99,38.87c4.54,12.19,8.13,25.12,13.78,36.83c1.4,2.9,5.69,0.8,5.01-2.11
			c-3.01-12.99-8.82-25.71-13.54-38.16c-4.79-12.63-9.97-25.11-14.73-37.75c-0.47-1.24-1.5-2.24-2.91-2.21
			c-7.8,0.13-14.91,2.64-22.11,5.46c-7.69,3.02-15.43,5.09-23.54,6.63c-17.85,3.39-35.8,6.41-53.48,10.66
			c-2.25,0.54-2.64,3.27-1.28,4.84c7.2,8.32,11.33,19.3,14.81,29.57c3.51,10.38,6.58,20.9,10.23,31.23
			c3.52,9.98,7.41,19.86,12.01,29.4c1.19,2.46,16.62,29.21,17.59,28.31C120.08,385.89,122.1,388.39,123.93,387.36L123.93,387.36z"/>
	</g>
</g>
<g>
	<g>
		<path class="st0" d="M107.76,358.31c6.87,1.14,14.88-2.8,21.33-4.86c7.81-2.5,15.62-4.99,23.43-7.5
			c7.81-2.5,15.65-4.91,23.46-7.43c3.75-1.21,7.51-2.37,11.26-3.6c3.51-1.15,7.23-1.99,9.96-4.56c1-0.94,0.61-3.05-0.87-3.29
			c-6.99-1.14-15.44,3.12-22.08,5.17c-7.84,2.42-15.62,5.05-23.4,7.66c-7.78,2.62-15.53,5.34-23.25,8.14
			c-6.27,2.28-15.46,4.32-20.05,9.48C107.34,357.77,107.38,358.25,107.76,358.31L107.76,358.31z"/>
	</g>
</g>
<g>
	<g>
		<path class="st0" d="M166.58,346.83c-1.7-1.49-2.64-2.92-5.23-2.4c-2.42,0.49-4.44,2.29-5.23,4.61
			c-2.06,6.04,2.69,11.81,8.61,12.63c5.04,0.69,12.8-2.23,11.44-8.61c-0.96-4.52-8.49-12.65-13.48-9.87
			c-0.81,0.45-1.39,1.65-1.04,2.57c1.03,2.68,3.71,3.15,5.75,4.92c0.79,0.69,2.44,2.03,2.6,3.14c0.18,1.25-1.57,1.63-2.69,1.76
			c-2.48,0.29-5.37-1.02-5.55-3.82c-0.11-1.72,2.69-5.07,4.61-4.58C166.57,347.23,166.75,346.97,166.58,346.83L166.58,346.83z"/>
	</g>
</g>
<g>
	<g>
		<path class="st0" d="M90.06,284.08c7.66,2.52,17.92-1.84,25.28-3.98c4.48-1.3,8.95-2.62,13.47-3.76
			c4.18-1.06,9.38-1.41,12.88-4.01c1.28-0.95,1.19-2.91-0.45-3.43c-3.91-1.24-8.35,0.22-12.23,1.18c-4.82,1.2-9.58,2.69-14.33,4.14
			c-4.76,1.45-9.53,2.88-14.27,4.38c-3.66,1.16-7.58,2.1-10.61,4.54C89.46,283.42,89.7,283.96,90.06,284.08L90.06,284.08z"/>
	</g>
</g>
<g>
	<g>
		<path class="st0" d="M148.15,263.94c-0.22,3.37,3.71,5.75,6.29,7.38c2,1.26,3.95,1.49,5.6-0.4c2.4-2.76,2.82-8.3,3.73-11.73
			c1.24-4.69,3.05-9.4,2.01-14.25c-0.18-0.86-1.45-1.22-2.04-0.54c-2.66,3.12-3.3,6.65-4.3,10.56c-0.56,2.21-1.08,4.42-1.6,6.64
			c-0.29,1.23-0.6,5.84-1.89,6.41c0.8,0,1.6,0,2.39,0c-3.26-1.38-6.36-5.65-10.08-4.22C148.2,263.81,148.15,263.87,148.15,263.94
			L148.15,263.94z"/>
	</g>
</g>
<g>
	<g>
		<path class="st0" d="M99.98,304.37c2.96,1.12,6.07-0.67,8.9-1.69c4.37-1.57,8.8-2.95,13.29-4.11c8.12-2.1,17.57-3.13,25.11-6.86
			c2.45-1.21,1.26-5.2-1.38-5.11c-8.91,0.31-18.65,4.02-27.2,6.45c-5.24,1.49-17.81,4.52-18.91,10.97
			C99.76,304.19,99.83,304.31,99.98,304.37L99.98,304.37z"/>
	</g>
</g>
<g>
	<g>
		<path class="st0" d="M153.61,284.27c-1.19,4.32,7.97,11.4,11.87,8.76c2.69-1.81,3.15-6.56,3.92-9.36
			c1.23-4.49,3.55-10.04,2.92-14.71c-0.26-1.97-2.63-2.88-3.84-1.04c-3.13,4.73-3.61,12.15-5.04,17.62c-0.37,1.43-0.02,2.45-1.6,2.3
			c-0.78-0.08-2.88-1.95-3.54-2.39c-1.55-1.04-2.49-1.96-4.35-1.53C153.78,283.97,153.65,284.11,153.61,284.27L153.61,284.27z"/>
	</g>
</g>
<g>
	<g>
		<path class="st0" d="M108.17,326.94c6.21,2.84,15.34-2.23,21.06-4.68c4.35-1.86,8.62-3.9,13.04-5.6
			c3.52-1.36,8.06-1.81,10.53-4.81c0.95-1.16,0.54-2.59-0.83-3.13c-3.73-1.49-7.78,0.73-11.31,2.12c-3.79,1.49-7.5,3.17-11.21,4.86
			c-4,1.82-7.98,3.68-12,5.43c-3.3,1.44-7.26,2.4-9.37,5.49C108.02,326.72,108.06,326.89,108.17,326.94L108.17,326.94z"/>
	</g>
</g>
<g>
	<g>
		<path class="st0" d="M161.19,305.81c0.53,4.12,4.78,7.74,7.54,10.62c2.1,2.19,5.05,4.66,8.06,2.33c2.78-2.15,2.75-8.08,3.21-11.23
			c0.55-3.7,2.31-9.11-0.62-12.04c-0.8-0.8-1.9-0.65-2.72,0c-2.49,1.97-1.99,5.5-2.32,8.42c-0.16,1.45-0.81,9.86-1.63,10.21
			c0.77-0.1,1.54-0.2,2.32-0.3c-2.48-0.44-5.64-4.35-7.6-5.87c-1.84-1.44-3.14-2.64-5.48-2.88
			C161.57,305.02,161.14,305.44,161.19,305.81L161.19,305.81z"/>
	</g>
</g>
<g>
	<g>
		<path class="st0" d="M248.69,447.77c-2.8,12.63-2.28,26.08-2.23,38.99c0.05,13.2,0.38,26.42,1.41,39.58
			c1,12.74,2.6,25.46,5.06,38.01c2.39,12.23,5.09,26.28,11.9,36.94c1.21,1.9,3.72,0.59,3.43-1.44c-1.8-12.53-6.5-24.79-8.99-37.24
			c-2.57-12.88-4.15-25.92-5.19-39.01c-0.99-12.56-1.45-25.16-1.61-37.76c-0.17-12.63,0.66-25.65-1.68-38.07
			C250.57,446.72,248.92,446.76,248.69,447.77L248.69,447.77z"/>
	</g>
</g>
<g>
	<g>
		<path class="st0" d="M360.56,478.66c-2.67,3.86-2.95,8.93-3.6,13.47c-0.69,4.84-1.14,9.7-1.45,14.58
			c-0.7,10.76-0.5,21.62,0.24,32.37c0.7,10.16,2.08,20.29,3.95,30.3c1.87,10.02,3.71,20.94,8.51,30.03c1.2,2.27,5.37,1.35,5.07-1.37
			c-1.1-9.71-4.38-19.18-6.29-28.76c-2.06-10.29-3.45-20.67-4.33-31.13c-0.83-9.85-1.03-19.72-0.87-29.6
			c0.09-5.24,0.32-10.47,0.56-15.7c0.21-4.59,1.19-9.56-0.29-14C361.83,478.16,360.96,478.07,360.56,478.66L360.56,478.66z"/>
	</g>
</g>
<g>
	<g>
		<path class="st0" d="M274.78,432.36c-0.29,9.34,13.27,17.15,20.59,20.22c8.48,3.56,22.45,6.83,30.87,1.57
			c1.71-1.07,0.9-3.46-0.98-3.63c-4.6-0.39-9.24,0.79-13.89,0.45c-4.76-0.35-9.49-1.54-13.89-3.38c-4.43-1.85-8.6-4.35-12.26-7.47
			c-3.17-2.69-5.81-6.53-9.69-8.19C275.18,431.79,274.79,431.96,274.78,432.36L274.78,432.36z"/>
	</g>
</g>
<g>
	<g>
		<path class="st0" d="M277.54,551.46c3.95,0.31,7.75,1.7,11.7,2.29c3.89,0.58,7.79,0.89,11.71,1.1c6.74,0.36,15.73,1.89,22.12-0.69
			c2.13-0.86,2.4-3.84,0-4.61c-6.65-2.13-15.2-0.33-22.12-0.2c-3.91,0.07-7.81,0.1-11.71,0.33c-3.84,0.23-7.89,1.08-11.7,0.79
			C276.91,550.43,276.91,551.41,277.54,551.46L277.54,551.46z"/>
	</g>
</g>
<g>
	<g>
		<path class="st0" d="M300.52,552.47c-2.56,5.06-1.34,12.12-0.94,17.6c0.51,6.93,1.4,13.85,2.39,20.73
			c1.57,10.85,2.38,23.7,11.84,30.79c2.98,2.23,6.87-2.78,4-5.19c-7.86-6.6-8.38-20.75-9.94-30.17c-0.99-6-1.74-12.02-2.5-18.05
			c-0.63-4.99-0.43-11.38-3.2-15.7C301.81,551.9,300.86,551.8,300.52,552.47L300.52,552.47z"/>
	</g>
</g>
<g>
	<g>
		<path class="st0" d="M172.64,117.97c2.95-2.72,1.34-8.78,1.3-12.4c-0.06-5.3,1.22-11.71-0.6-16.74c-0.53-1.45-2.58-1.94-3.43-0.45
			c-2.79,4.92-1.92,11.77-1.39,17.19c0.37,3.78,0.13,10.6,4.04,12.42C172.58,118,172.61,117.99,172.64,117.97L172.64,117.97z"/>
	</g>
</g>
<g>
	<g>
		<path class="st0" d="M182.93,124.88c2.49,2.9,7.32,2.69,10.89,3.05c5.51,0.55,10.99,0.97,16.53,0.76c2.74-0.1,3.63-4.46,0.68-5.02
			c-5.38-1.02-10.76-1.39-16.23-1.41c-3.71-0.01-9.1-0.62-11.86,2.25C182.83,124.62,182.84,124.78,182.93,124.88L182.93,124.88z"/>
	</g>
</g>
<g>
	<g>
		<path class="st0" d="M170.35,133.91c-2.59,7.44-3.45,19.69,1.64,26.21c0.98,1.26,3.37,0.55,3.64-0.96
			c0.72-3.9-0.48-7.73-0.83-11.64c-0.39-4.35-0.17-8.71-0.38-13.06C174.29,132.09,171.12,131.69,170.35,133.91L170.35,133.91z"/>
	</g>
</g>
<g>
	<g>
		<path class="st0" d="M161.27,124.84c-4.14-1.15-8.49-0.45-12.72-0.19c-4.4,0.26-9.02,0.04-13.26,1.34c-2.11,0.65-2.08,3.58,0,4.25
			c4.49,1.44,9.43,0.81,14.03,0.13c4.37-0.65,8.8-1.44,12.28-4.27C162.05,125.73,161.77,124.98,161.27,124.84L161.27,124.84z"/>
	</g>
</g>
<g>
	<g>
		<path class="st0" d="M424.72,69.52c0.06-0.02,0.12-0.05,0.18-0.07c0.78-0.3,1.17-0.83,1.26-1.66c0.42-3.88,0.17-7.8,0.24-11.7
			c0.06-3.27,0.59-6.31-0.88-9.32c-0.67-1.37-2.49-1.05-3.24,0c-3.63,5.1-1.66,16.04,0.5,21.48c0.29,0.74,0.83,1.23,1.66,1.26
			C424.53,69.53,424.62,69.53,424.72,69.52L424.72,69.52z"/>
	</g>
</g>
<g>
	<g>
		<path class="st0" d="M432.45,74.67c0.86,2.53,4.35,2.53,6.62,2.83c4.76,0.63,9.53,1.09,14.32,0.74c2.72-0.2,3.65-4.34,0.68-5.02
			C451.93,72.74,431.09,70.71,432.45,74.67L432.45,74.67z"/>
	</g>
</g>
<g>
	<g>
		<path class="st0" d="M422.51,81.47c-2.22,5.31-3.22,16.1,1.36,20.42c1.24,1.17,3.11,0.6,3.64-0.96c0.99-2.87-0.11-6.04-0.4-8.99
			c-0.33-3.3-0.16-6.62-0.53-9.92C426.32,79.63,423.43,79.28,422.51,81.47L422.51,81.47z"/>
	</g>
</g>
<g>
	<g>
		<path class="st0" d="M416.33,74.61c-2.87-1.36-6.06-0.93-9.16-0.77c-3.58,0.18-7.6-0.17-10.95,1.24
			c-1.49,0.62-2.49,3.18-0.53,4.03c3.44,1.49,7.13,1.13,10.79,0.61c3.47-0.5,7.6-1.15,10-3.91
			C416.77,75.45,416.79,74.83,416.33,74.61L416.33,74.61z"/>
	</g>
</g>
<g>
	<g>
		<path class="st0" d="M473.88,221.11c2.81-2.59,1.4-8.17,1.36-11.63c-0.05-5.13,1.19-11.19-0.61-16.03
			c-0.54-1.45-2.57-1.93-3.43-0.45c-2.72,4.72-1.89,11.24-1.37,16.48c0.36,3.6,0.23,9.91,3.96,11.65
			C473.82,221.14,473.85,221.14,473.88,221.11L473.88,221.11z"/>
	</g>
</g>
<g>
	<g>
		<path class="st0" d="M483.62,227.68c2.35,2.82,6.69,2.63,10.12,3c5.29,0.57,10.56,0.96,15.88,0.73c2.74-0.12,3.64-4.44,0.68-5.02
			c-5.16-1.01-10.31-1.34-15.57-1.34c-3.57,0-8.49-0.55-11.12,2.26C483.52,227.42,483.53,227.57,483.62,227.68L483.62,227.68z"/>
	</g>
</g>
<g>
	<g>
		<path class="st0" d="M471.6,236.19c-2.52,6.98-3.4,18.91,1.58,24.96c1.03,1.25,3.32,0.56,3.64-0.96c0.78-3.69-0.4-7.36-0.74-11.07
			c-0.37-4.12-0.16-8.26-0.42-12.38C475.52,234.37,472.4,233.98,471.6,236.19L471.6,236.19z"/>
	</g>
</g>
<g>
	<g>
		<path class="st0" d="M463.11,227.59c-3.9-1.21-8.06-0.53-12.08-0.3c-4.18,0.24-8.6,0-12.6,1.31c-2.11,0.69-2.07,3.55,0,4.25
			c4.26,1.44,9,0.82,13.37,0.16c4.13-0.62,8.4-1.38,11.63-4.17C463.88,228.46,463.61,227.74,463.11,227.59L463.11,227.59z"/>
	</g>
</g>
<g>
	<g>
		<path class="st0" d="M351.14,319.62c1.69,3.36,5.22,5.13,8.37,6.99c4.17,2.46,8.35,4.88,12.54,7.3
			c7.82,4.52,15.57,9.15,23.34,13.75c7.77,4.61,15.51,9.25,23.2,13.99c7.73,4.76,15.48,10.25,23.98,13.54
			c1.68,0.65,2.91-1.78,1.71-2.94c-6.57-6.32-15.01-10.91-22.75-15.63c-7.71-4.7-15.45-9.35-23.26-13.9
			c-7.8-4.55-15.7-8.94-23.61-13.29c-3.96-2.18-7.93-4.32-11.95-6.39c-3.5-1.8-7.32-4.21-11.37-3.78
			C351.16,319.29,351.05,319.45,351.14,319.62L351.14,319.62z"/>
	</g>
</g>
<g>
	<g>
		<path class="st0" d="M360.61,313.53c3,3.41,7.18,5.46,11.11,7.64c4.47,2.48,8.98,4.91,13.49,7.32
			c9.04,4.83,18.04,9.72,27.23,14.26c1.64,0.81,3.01-1.48,1.44-2.47c-8.93-5.65-18.16-10.75-27.48-15.73
			c-7.7-4.11-16.85-10.41-25.71-11.23C360.58,313.32,360.55,313.46,360.61,313.53L360.61,313.53z"/>
	</g>
</g>
<g>
	<g>
		<path class="st0" d="M380.48,297.64c3.25,5.34,11.42,8.21,16.67,11.23c6.94,3.98,13.95,7.82,20.94,11.71
			c13.98,7.78,27.93,15.6,41.99,23.24c2.38,1.3,4.5-2.31,2.13-3.64c-13.96-7.82-28.02-15.45-42.06-23.12
			c-7.02-3.84-14.01-7.72-21.08-11.47c-5.36-2.84-12.21-8.26-18.47-8.16C380.49,297.43,380.42,297.55,380.48,297.64L380.48,297.64z"
			/>
	</g>
</g>
<g>
	<g>
		<path class="st0" d="M492.84,361.06c3.56,1.65,6.94,4.73,10.42,6.68c3.6,2.02,7.25,3.97,10.9,5.89
			c7.04,3.7,14.11,7.35,21.11,11.13c13.75,7.42,27.25,16.37,41.74,22.25c1.67,0.68,3.17-1.94,1.78-3.06
			c-12.11-9.77-27.04-16.73-40.84-23.78c-7.09-3.62-14.22-7.22-21.45-10.55c-3.05-1.41-6.14-2.76-9.24-4.07
			c-1.74-0.74-3.5-1.46-5.27-2.11c-2.91-1.07-6.19-1.36-8.99-2.66C492.82,360.69,492.65,360.97,492.84,361.06L492.84,361.06z"/>
	</g>
</g>
<g>
	<g>
		<path class="st0" d="M468.4,386.12c7.51,6.84,17.77,11.26,26.69,15.96c9.69,5.11,19.36,10.26,29,15.48
			c18.75,10.15,37.31,21.52,56.97,29.8c1.79,0.76,2.55-1.94,1.23-2.91c-17.25-12.74-37.09-22.55-56.01-32.54
			c-9.41-4.97-18.85-9.89-28.33-14.72c-9.04-4.61-18.74-10.4-28.79-12.37C468.45,384.69,467.79,385.56,468.4,386.12L468.4,386.12z"
			/>
	</g>
</g>
<g>
	<g>
		<path class="st0" d="M488.92,384.83c13.69,9.23,28.61,16.69,43.21,24.37c14.65,7.7,29.27,15.66,44.49,22.18
			c1.81,0.77,3.36-1.63,1.59-2.71c-14.42-8.76-29.69-16.13-44.75-23.7c-14.52-7.3-29.07-14.96-44.32-20.65
			C488.82,384.2,488.67,384.67,488.92,384.83L488.92,384.83z"/>
	</g>
</g>
<g>
	<g>
		<path class="st0" d="M223.13,213.09c2.19,3.29,5.92,5.18,9.26,7.17c4.06,2.42,8.19,4.72,12.3,7.08
			c8.04,4.61,15.92,9.83,24.65,13.03c1.51,0.55,2.75-1.66,1.57-2.7c-6.95-6.19-15.42-10.47-23.53-14.94
			c-4.15-2.28-8.3-4.56-12.55-6.64c-3.51-1.72-7.25-3.85-11.23-3.8C223.21,212.29,222.9,212.74,223.13,213.09L223.13,213.09z"/>
	</g>
</g>
<g>
	<g>
		<path class="st0" d="M209.97,237.85c5.84,5.95,14.54,9.62,21.75,13.69c7.99,4.51,16.06,8.87,24.18,13.14c2.1,1.11,3.94-2,1.87-3.2
			c-7.95-4.58-15.94-9.07-24.02-13.42c-7.3-3.93-15.08-9.35-23.25-11.11C209.98,236.84,209.58,237.45,209.97,237.85L209.97,237.85z"
			/>
	</g>
</g>
<g>
	<g>
		<path class="st0" d="M214.27,230.47c5.84,5.95,14.54,9.62,21.75,13.69c7.99,4.51,16.06,8.87,24.18,13.14c2.1,1.11,3.94-2,1.87-3.2
			c-7.95-4.58-15.94-9.07-24.02-13.42c-7.3-3.93-15.08-9.35-23.25-11.11C214.28,229.46,213.88,230.07,214.27,230.47L214.27,230.47z"
			/>
	</g>
</g>
<g>
	<g>
		<path class="st0" d="M212.39,237.61c4.01-2.72,5.43-8.67,7.57-12.86c2.52-4.94,6.11-9.85,7.57-15.22
			c0.56-2.06-1.98-3.42-3.49-2.03c-4.29,3.94-6.75,10.15-9.08,15.38c-1.88,4.24-5.11,9.49-3.88,14.2
			C211.22,237.6,211.92,237.93,212.39,237.61L212.39,237.61z"/>
	</g>
</g>
<g>
	<g>
		<path class="st0" d="M394.38,244.01c-14.49,21.01-36.38,36.23-62.33,38.29c-25.81,2.05-51.85-9.56-68.36-29.32
			c-0.74-0.89-1.95,0.37-1.26,1.26c16.69,21.46,43.95,33.47,71.11,30.59c24.95-2.64,49.73-17.91,61.09-40.68
			C394.71,243.99,394.49,243.86,394.38,244.01L394.38,244.01z"/>
	</g>
</g>
</svg>
