<?xml version="1.0" encoding="utf-8"?>
<!-- Generator: Adobe Illustrator 23.0.1, SVG Export Plug-In . SVG Version: 6.00 Build 0)  -->
<svg version="1.1" id="Laag_1" xmlns="http://www.w3.org/2000/svg" xmlns:xlink="http://www.w3.org/1999/xlink" x="0px" y="0px"
	 viewBox="0 0 566.93 566.93" style="enable-background:new 0 0 566.93 566.93;" xml:space="preserve">
<style type="text/css">
	.st0{fill:#1E1E1C;}
</style>
<g>
	<g>
		<path class="st0" d="M182.49,100.24c7.12,4.48,16.78,5.32,25.01,5.41c9.6,0.12,19.19-1.24,28.54-3.28
			c17-3.72,33.98-8.9,47.57-20.19c-0.86-0.86-1.72-1.72-2.59-2.59c-4.78,4.68-9.07,10.11-13.22,15.35c-1.1,1.4-0.14,3.78,1.86,3.2
			c5.84-1.69,11.04-4.04,15.81-7.86c-0.88-0.68-1.77-1.36-2.65-2.04c-1.96,3.34-2.78,6.62-2.48,10.49c0.11,1.39,2.06,2.68,3.13,1.3
			c1.26-1.63,2.53-3.25,3.8-4.88c-1.05-0.61-2.1-1.22-3.14-1.83c-1.88,6.51-2.75,13.29-1.37,19.99c0.42,2.03,3.63,1.55,3.59-0.49
			c-0.11-6.32-0.1-12.3,1.41-18.5c0.53-2.19-2.2-3.1-3.44-1.45c-1.24,1.65-2.48,3.29-3.73,4.93c1.14,0.31,2.28,0.62,3.42,0.93
			c-0.32-3.31,0.13-5.86,1.72-8.78c0.75-1.37-0.86-3.35-2.31-2.31c-4.51,3.24-9.3,5.71-14.78,6.81c0.62,1.07,1.24,2.14,1.86,3.2
			c4.64-5.04,9.41-10.25,13.38-15.84c1.31-1.84-1.39-3.39-2.87-2.22c-13.1,10.35-30.11,14.96-46.15,18.54
			c-8.7,1.94-17.54,3.41-26.47,3.57c-8.79,0.16-16.91-1.87-25.53-2.86C182.09,98.75,181.92,99.88,182.49,100.24L182.49,100.24z"/>
	</g>
</g>
<g>
	<g>
		<path class="st0" d="M284.36,123.4c-6.1-9.72,19.97-13.43,14.23-1.55c-3.36,6.98-12.8,11.1-19.61,6.91
			c-2.02-1.24-4.12,1.58-2.5,3.24c10.81,11.09,35.98-5.76,26.49-19.09c-3.93-5.53-14.35-4.29-19.24-0.74
			c-3.84,2.78-5.25,10.08,0.23,11.74C284.25,124,284.52,123.66,284.36,123.4L284.36,123.4z"/>
	</g>
</g>
<g>
	<g>
		<path class="st0" d="M185.35,99.16c6.06-17.45,22.83-28.13,39.75-33.6c17.02-5.49,37.73-6.11,53.28,3.77
			c1.31,0.83,2.96-0.26,3-1.72c0.1-4.24,2.39-7.92,6.42-9.54c-0.65-0.65-1.3-1.3-1.95-1.95c-0.57,4.15-1.39,8.2-2.46,12.24
			c-0.4,1.54,1.3,2.87,2.69,2.07c4.96-2.87,10.37-4.18,16.08-3.53c-0.33-1.23-0.67-2.46-1-3.69c-4.15,2.75-8.32,5.53-12.33,8.48
			c-1.16,0.85-1.3,2.12-0.42,3.23c7.86,9.91,10.17,22.25,9.47,34.61c-0.13,2.2,3.4,2.7,3.87,0.52c2.96-13.75-1.79-27.33-10.42-38.04
			c-0.14,1.08-0.28,2.15-0.42,3.23c4.17-2.74,8.23-5.67,12.25-8.61c1.55-1.13,1.08-3.61-1-3.69c-6.48-0.25-12.33,1-17.93,4.33
			c0.9,0.69,1.79,1.38,2.69,2.07c0.96-4.23,1.62-8.48,2.03-12.8c0.09-0.97-1.09-1.87-2-1.53c-5.62,2.15-9.05,6.56-9.56,12.59
			c1-0.57,2-1.15,3-1.72c-16.17-11.79-40.83-10.19-58.78-3.7c-15.39,5.57-36.5,18.43-37.74,36.76
			C183.82,99.84,185.09,99.92,185.35,99.16L185.35,99.16z"/>
	</g>
</g>
<g>
	<g>
		<path class="st0" d="M296.02,126.42c1.42,14.99-4.12,29.64-16.56,38.68c-12.68,9.22-29.41,11.01-44.61,9.46
			c-15.17-1.55-30.18-6.87-37.48-21.22c-4-7.87-6.83-17.16-6.7-26.04c0.12-8.57,3.61-15.32,8.63-22.03
			c1.06-1.41-0.98-3.27-2.37-2.37c-11.8,7.57-12.67,24.47-9.82,36.83c3.24,14.05,10.06,27.09,23.36,33.77
			c23.36,11.73,59.57,10.21,78.02-9.89c8.92-9.72,14.58-24.87,8.46-37.44C296.72,125.75,295.97,125.94,296.02,126.42L296.02,126.42z
			"/>
	</g>
</g>
<g>
	<g>
		<path class="st0" d="M209.06,117.14c3.3-1.45,5.73-4.09,9.36-5.05c4.86-1.28,8.99,0.54,13.25,2.7c1.53,0.78,2.87-1.04,1.79-2.32
			c-3.66-4.34-10.02-5.62-15.39-4.18c-3.99,1.07-9.03,4.18-9.18,8.75C208.88,117.13,208.99,117.17,209.06,117.14L209.06,117.14z"/>
	</g>
</g>
<g>
	<g>
		<path class="st0" d="M247.75,115.96c3.16-0.07,5.78-2.79,8.98-3.3c4.64-0.73,8.72,1.53,12.27,4.27c1.14,0.88,2.63-0.8,1.92-1.92
			c-2.88-4.6-8.1-6.79-13.46-6.32c-3.57,0.31-10.25,2.6-9.87,7.1C247.59,115.88,247.65,115.96,247.75,115.96L247.75,115.96z"/>
	</g>
</g>
<g>
	<g>
		<path class="st0" d="M239.49,117.62c-0.12-0.05-0.24-0.1-0.36-0.14c-0.38-0.15-0.87,0.03-1.15,0.3
			c-3.27,3.25-6.81,8.09-6.83,12.92c-0.01,3.92,2.95,6.86,6.8,7.12c3.67,0.25,8.03-1.72,8.48-5.74c0.26-2.35-0.89-4.53-1.81-6.62
			c-1.14-2.6-2.01-5.7-4.63-7.12c-0.68-0.37-1.64-0.06-1.82,0.74c-0.54,2.31,0.4,4.23,1.35,6.32c1.08,2.4,4.38,7.76-0.69,7.86
			c-6.82,0.13-0.08-11.47,1.12-14.33c0.16-0.38-0.04-0.87-0.3-1.15C239.62,117.74,239.55,117.64,239.49,117.62L239.49,117.62z"/>
	</g>
</g>
<g>
	<g>
		<path class="st0" d="M236.15,131.83c-5.51,0.45-10.26,3.13-14.44,6.67c-3.59,3.04-9.15,8.38-10.03,13.26
			c-0.74,4.12,3.57,4.7,6.77,4.32c5.07-0.6,9.15-3.49,12.01-7.61c-1.26-0.16-2.51-0.33-3.77-0.49c0.59,4.24-2.62,11.34,4.27,12.16
			c5.64,0.67,8.13-4.92,9.1-9.47c-1.4-0.38-2.79-0.77-4.19-1.15c-1.09,4.68,2.08,9.8,7.29,9.66c5.22-0.14,8.07-5.36,7.15-10.04
			c-1.37,0.8-2.73,1.59-4.1,2.39c3.55,3.33,6.73,7.6,11.98,8.04c3.99,0.33,7.54-2.06,8.31-6.06c0.79-4.09-1.39-7.81-4.35-10.42
			c-5.02-4.44-11.28-7.83-16.85-11.53c-2.84-1.89-5.52,2.71-2.67,4.57c5.21,3.42,11.2,6.48,15.93,10.55
			c0.87,0.75,1.88,1.65,2.43,2.67c1.61,2.99-1.88,5.22-4.34,4.77c-2.43-0.45-5.23-4.4-6.96-6.04c-1.86-1.75-4.56,0.02-4.1,2.39
			c1.11,5.77-5.54,2.59-5.44-0.35c0.07-2.4-3.83-3.02-4.26-0.58c-0.22,1.22-0.26,2.87-1.02,3.88c-0.17,1.32-0.98,1.67-2.43,1.06
			c-2.14,0.67-2.74-0.07-1.78-2.23c0.22-1.88,0.36-3.46,0.03-5.35c-0.32-1.88-2.88-1.84-3.77-0.49c-1.32,2-6.78,7.55-9.85,6.03
			c-2.62-1.3,2.86-6.79,4.03-8.1c4.36-4.86,10.01-7.88,15.34-11.48C236.83,132.56,236.72,131.79,236.15,131.83L236.15,131.83z"/>
	</g>
</g>
<g>
	<g>
		<path class="st0" d="M147.27,58.19c3.6-0.56,6.56-3.2,9.67-4.98c-1.31-0.34-2.62-0.69-3.93-1.03c1.72,3.74,3.86,7.35,5.98,10.88
			c1.01,1.68,3.49,2.1,4.89,0.63c8.55-8.97,17.06-17.99,25.68-26.89c-1.38,0-2.77,0-4.15,0c2.25,2.57,4.32,5.3,6.62,7.82
			c2.14,2.34,6.17-0.72,4.42-3.41c-2-3.07-4.46-5.83-6.89-8.56c-1.04-1.17-3.1-1.09-4.15,0c-8.58,8.94-17.28,17.76-25.93,26.64
			c1.63,0.21,3.26,0.42,4.89,0.63c-1.99-3.6-4.03-7.27-6.4-10.63c-1.05-1.49-3.11-1.98-4.51-0.58c-2.53,2.53-5.85,4.68-7.32,8.01
			C145.75,57.55,146.36,58.32,147.27,58.19L147.27,58.19z"/>
	</g>
</g>
<g>
	<g>
		<path class="st0" d="M145.84,57.21c3.71,7.66,9.72,14.24,14.04,21.6c0.81,1.39,3.02,1.84,4.16,0.54
			c10.08-11.58,21.88-21.41,32.28-32.65c1.62-1.75-0.48-4.82-2.64-3.42c-13.05,8.41-23.48,20.53-33.38,32.33
			c1.39,0.18,2.77,0.36,4.16,0.54c-4.51-7.39-9.72-15.73-17.39-20.15C146.24,55.52,145.46,56.44,145.84,57.21L145.84,57.21z"/>
	</g>
</g>
<g>
	<g>
		<path class="st0" d="M491.47,132.18c3.6-0.56,6.56-3.2,9.67-4.98c-1.31-0.34-2.62-0.69-3.93-1.03c1.72,3.74,3.86,7.35,5.98,10.88
			c1.01,1.68,3.49,2.1,4.89,0.63c8.55-8.97,17.06-17.99,25.68-26.89c-1.38,0-2.77,0-4.15,0c2.25,2.57,4.32,5.3,6.62,7.82
			c2.14,2.34,6.17-0.72,4.42-3.41c-2-3.07-4.46-5.83-6.89-8.56c-1.04-1.17-3.1-1.09-4.15,0c-8.58,8.94-17.28,17.76-25.93,26.64
			c1.63,0.21,3.26,0.42,4.89,0.63c-1.99-3.6-4.03-7.27-6.4-10.63c-1.05-1.49-3.11-1.98-4.51-0.58c-2.53,2.53-5.85,4.68-7.32,8.01
			C489.95,131.54,490.57,132.32,491.47,132.18L491.47,132.18z"/>
	</g>
</g>
<g>
	<g>
		<path class="st0" d="M490.04,131.2c3.71,7.66,9.72,14.24,14.04,21.6c0.81,1.39,3.02,1.84,4.16,0.54
			c10.08-11.58,21.88-21.41,32.28-32.65c1.62-1.75-0.48-4.82-2.64-3.42c-13.05,8.41-23.48,20.53-33.38,32.33
			c1.39,0.18,2.77,0.36,4.16,0.54c-4.51-7.39-9.72-15.73-17.39-20.15C490.45,129.52,489.67,130.43,490.04,131.2L490.04,131.2z"/>
	</g>
</g>
<g>
	<g>
		<path class="st0" d="M460.32,473.27c3.6-0.56,6.56-3.2,9.67-4.98c-1.31-0.34-2.62-0.69-3.93-1.03c1.72,3.74,3.86,7.35,5.98,10.88
			c1.01,1.68,3.49,2.1,4.89,0.63c8.55-8.97,17.06-17.99,25.68-26.89c-1.38,0-2.77,0-4.15,0c2.25,2.57,4.32,5.3,6.62,7.82
			c2.14,2.34,6.17-0.72,4.42-3.41c-2-3.07-4.46-5.83-6.89-8.56c-1.04-1.17-3.1-1.09-4.15,0c-8.58,8.94-17.28,17.76-25.93,26.64
			c1.63,0.21,3.26,0.42,4.89,0.63c-1.99-3.6-4.03-7.27-6.4-10.63c-1.05-1.49-3.11-1.98-4.51-0.58c-2.53,2.53-5.85,4.68-7.32,8.01
			C458.8,472.63,459.42,473.41,460.32,473.27L460.32,473.27z"/>
	</g>
</g>
<g>
	<g>
		<path class="st0" d="M458.89,472.29c3.71,7.66,9.72,14.24,14.04,21.6c0.81,1.39,3.02,1.84,4.16,0.54
			c10.08-11.58,21.88-21.41,32.28-32.65c1.62-1.75-0.48-4.82-2.64-3.42c-13.05,8.41-23.48,20.53-33.38,32.33
			c1.39,0.18,2.77,0.36,4.16,0.54c-4.51-7.39-9.72-15.73-17.39-20.15C459.3,470.6,458.52,471.52,458.89,472.29L458.89,472.29z"/>
	</g>
</g>
<g>
	<g>
		<path class="st0" d="M123.64,502.73c3.6-0.56,6.56-3.2,9.67-4.98c-1.31-0.34-2.62-0.69-3.93-1.03c1.72,3.74,3.86,7.35,5.98,10.88
			c1.01,1.68,3.49,2.1,4.89,0.63c8.55-8.97,17.06-17.99,25.68-26.89c-1.38,0-2.77,0-4.15,0c2.25,2.57,4.32,5.3,6.62,7.82
			c2.14,2.34,6.17-0.72,4.42-3.41c-2-3.07-4.46-5.83-6.89-8.56c-1.04-1.17-3.1-1.09-4.15,0c-8.58,8.94-17.28,17.76-25.93,26.64
			c1.63,0.21,3.26,0.42,4.89,0.63c-1.99-3.6-4.03-7.27-6.4-10.63c-1.05-1.49-3.11-1.98-4.51-0.58c-2.53,2.53-5.85,4.68-7.32,8.01
			C122.12,502.1,122.73,502.87,123.64,502.73L123.64,502.73z"/>
	</g>
</g>
<g>
	<g>
		<path class="st0" d="M122.21,501.76c3.71,7.66,9.72,14.24,14.04,21.6c0.81,1.39,3.02,1.84,4.16,0.54
			c10.08-11.58,21.88-21.41,32.28-32.65c1.62-1.75-0.48-4.82-2.64-3.42c-13.05,8.41-23.48,20.53-33.38,32.33
			c1.39,0.18,2.77,0.36,4.16,0.54c-4.51-7.39-9.72-15.73-17.39-20.15C122.61,500.07,121.83,500.98,122.21,501.76L122.21,501.76z"/>
	</g>
</g>
<g>
	<g>
		<path class="st0" d="M15.96,227.78c3.6-0.56,6.56-3.2,9.67-4.98c-1.31-0.34-2.62-0.69-3.93-1.03c1.72,3.74,3.86,7.35,5.98,10.88
			c1.01,1.68,3.49,2.1,4.89,0.63c8.55-8.97,17.06-17.99,25.68-26.89c-1.38,0-2.77,0-4.15,0c2.25,2.57,4.32,5.3,6.62,7.82
			c2.14,2.34,6.17-0.72,4.42-3.41c-2-3.07-4.46-5.83-6.89-8.56c-1.04-1.17-3.1-1.09-4.15,0c-8.58,8.94-17.28,17.76-25.93,26.64
			c1.63,0.21,3.26,0.42,4.89,0.63c-1.99-3.6-4.03-7.27-6.4-10.63c-1.05-1.49-3.11-1.98-4.51-0.58c-2.53,2.53-5.85,4.68-7.32,8.01
			C14.45,227.14,15.06,227.91,15.96,227.78L15.96,227.78z"/>
	</g>
</g>
<g>
	<g>
		<path class="st0" d="M14.54,226.8c3.71,7.66,9.72,14.24,14.04,21.6c0.81,1.39,3.02,1.84,4.16,0.54
			c10.08-11.58,21.88-21.41,32.28-32.65c1.62-1.75-0.48-4.82-2.64-3.42c-13.05,8.41-23.48,20.53-33.38,32.33
			c1.39,0.18,2.77,0.36,4.16,0.54c-4.51-7.39-9.72-15.73-17.39-20.15C14.94,225.11,14.16,226.03,14.54,226.8L14.54,226.8z"/>
	</g>
</g>
<g>
	<g>
		<path class="st0" d="M489.45,340.64c-15.26,2.71-30.15,4.21-45.51,1.23c-7.47-1.45-16.3-3.2-22.57-7.72
			c-8.08-5.82-7.12-15.43-0.04-21.67c6.02-5.31,14.41-8.29,22.33-8.95c7.31-0.61,19.05,0.53,20.23,9.83
			c1.08,8.53-8.07,13.09-15.25,13.47c-2.89,0.15-6.28,0-8.82-1.55c-1.64-1-3.56-2.87-1.7-4.77c1.57-1.61,5.29,0.06,7.02-1.12
			c-2.18,1.48-0.87,4.98,1.82,4.33c2.27-0.55,3.8-2.58,3.29-5c-0.74-3.52-4.91-4.29-7.91-4.28c-7.37,0.02-14.61,5.04-9,12.63
			c4.55,6.15,13.87,6.47,20.65,4.86c7.67-1.81,14.63-7.62,15.47-15.83c0.85-8.34-5.54-14.76-13.12-16.98
			c-9.4-2.75-20.53-0.54-29.25,3.42c-7.92,3.6-15.64,9.7-17.14,18.78c-1.55,9.35,5.1,16.79,13.09,20.51
			c10.34,4.82,22.76,7.06,34.11,7.47c11.51,0.42,23.05-1.03,32.77-7.54C490.51,341.36,490.13,340.52,489.45,340.64L489.45,340.64z"
			/>
	</g>
</g>
<g>
	<g>
		<path class="st0" d="M467.17,314.47c3.48,2.47,7.92,2.82,11.99,3.77c4.07,0.95,8.14,2.02,12.05,3.52
			c7.74,2.97,15.03,7.77,19.86,14.61c10.34,14.64,3.8,31.25-8.72,41.86c-2.36,2,0.74,6.04,3.32,4.31
			c15.1-10.11,21.03-31.35,11.34-47.11c-4.76-7.74-12.2-13.52-20.46-17.12c-5.16-2.25-10.58-3.74-16.14-4.6
			c-4.35-0.67-9.12-1.47-13.24,0.36C467,314.14,467.05,314.38,467.17,314.47L467.17,314.47z"/>
	</g>
</g>
<g>
	<g>
		<path class="st0" d="M487.72,341.8c-3.44,4.46-3.35,12.78-3.53,18.21c-0.23,6.84,0.26,13.56,1.53,20.28
			c0.41,2.17,3.89,2.12,4.34,0c1.23-5.79,7.69-4.65,10.69-1.23c2.76,3.15,4.55,8.66,1.24,12.08c-5.49,5.65-18.08,5.79-22.77-0.68
			c-2-2.75-6.6-0.22-4.65,2.72c4.36,6.6,12.02,8.73,19.61,7.34c6.48-1.19,14.17-4.76,14.99-12.12c0.73-6.49-3.48-14.21-9.69-16.56
			c-5.73-2.17-12.7,0.97-13.75,7.25c1.47,0.2,2.95,0.4,4.42,0.6c-0.7-6.53-1.21-13.11-1.1-19.69c0.09-5.61,2.02-12.63,0.35-17.99
			C489.13,341.21,488.19,341.2,487.72,341.8L487.72,341.8z"/>
	</g>
</g>
<g>
	<g>
		<path class="st0" d="M495.58,377.52c-3.46,1.4-7.29,5.33-7.43,9.31c-0.06,1.71,0.87,3.44,2.59,3.89c1.12,0.29,1.86-0.06,2.83-0.53
			c0.13-0.06,1.95-0.79,1.54-0.3c-1.24,1.46-0.1,4.55,2.12,3.64c2.88-1.19,3.76-4.29,1.89-6.86c-2.25-3.09-5.9-2.04-8.82-0.79
			c0.68-0.09,1.37-0.18,2.05-0.27c-0.13-0.03-0.26-0.07-0.39-0.1c0.53,0.41,1.07,0.82,1.6,1.23c0.01,0.44,0.07,0.44,0.17-0.01
			c0.11-0.34,0.26-0.66,0.44-0.97c0.27-0.53,0.6-1.03,0.97-1.5c0.8-1.02,1.83-1.86,2.76-2.75
			C499.53,379.96,497.86,376.6,495.58,377.52L495.58,377.52z"/>
	</g>
</g>
<g>
	<g>
		<path class="st0" d="M425.09,341.44c-3.56,4.28-5.83,9.71-8.19,14.72c-2.53,5.36-4.99,10.76-7.54,16.12
			c-5.24,11.02-11.04,21.75-16.68,32.57c-0.45,0.85-0.62,2.1,0,2.93c8.34,11.22,16.94,22.23,25.66,33.16
			c3.24,4.06,6.43,7.67,11.86,8.38c5.41,0.7,11.15-1.17,16.17-2.99c19.73-7.17,41.11-25.34,42.74-47.79
			c0.25-3.5-4.82-3.83-5.85-0.79c-3.24,9.6-6.32,18.05-13.34,25.68c-6.93,7.53-15.74,13.05-25.28,16.67
			c-4.26,1.62-9.42,3.79-14.04,3.13c-5.66-0.81-9.09-7.93-12.32-12.17c-6.88-9.04-13.89-17.97-21.05-26.79
			c0.15,1.17,0.3,2.35,0.45,3.52c6.49-10.7,12.04-21.95,17.23-33.34c4.51-9.91,10.67-21.59,11.04-32.64
			C425.98,341.38,425.38,341.09,425.09,341.44L425.09,341.44z"/>
	</g>
</g>
<g>
	<g>
		<path class="st0" d="M429.04,367.63c-0.23-0.68-0.55-1.12-1.14-1.53c-0.04-0.03-0.08-0.06-0.11-0.08
			c-0.22-0.14-0.17-0.09,0.15,0.14c-0.07-0.06-0.14-0.13-0.2-0.2c0.08,0.09,0.15,0.19,0.23,0.28c-0.04-0.08-0.09-0.16-0.13-0.25
			c0.14,0.23,0.21,0.48,0.2,0.75c-0.01-0.47-0.17,0.6-0.02,0.15c-0.19,0.4-0.21,0.49-0.08,0.26c-0.08,0.1-0.15,0.2-0.23,0.31
			c0.19-0.18,0.12-0.13-0.21,0.14c0.07-0.05,0.15-0.09,0.23-0.13c-0.12,0.05-0.24,0.1-0.35,0.15c0.26-0.07,0.16-0.06-0.28,0.01
			c0.06-0.01,0.13-0.01,0.19,0c0.2,0.01,0.09,0-0.34-0.04c-0.38-0.19-0.46-0.21-0.24-0.09c-0.18-0.09-0.33-0.22-0.43-0.39
			c-0.14-0.19-0.15-0.21-0.06-0.06c-0.15-0.41-0.19-0.49-0.11-0.25c0.04,0.11,0.08,0.23,0.12,0.34c0.05,0.24,0.04,0.15-0.03-0.27
			c-0.01,0.18,0,0.16,0.03-0.06c0.06-0.37,0.04-0.24-0.05,0.41c0.01,0.07,0.01,0.14,0.01,0.21c-0.01,0.15,0,0.13,0.01-0.07
			c0-0.15,0.04-0.29,0.13-0.41c-0.12,0.24-0.17,0.42-0.25,0.65c-0.21,0.68,0.15,1.34,0.7,1.72c0.75,0.51,1.8,0.36,2.54-0.08
			c0.8-0.47,1.31-1.31,1.48-2.21c0.43-2.32-1.37-4.36-3.71-4.35c-2.12,0.01-4.07,1.79-4.12,3.94c-0.02,1.08,0.4,2.12,1.16,2.87
			c0.95,0.93,2.64,1.64,3.85,0.77C428.78,369.68,429.39,368.66,429.04,367.63L429.04,367.63z"/>
	</g>
</g>
<g>
	<g>
		<path class="st0" d="M450.9,370.65c-0.02,0-0.05-0.01-0.07-0.01c0.35,0.14,0.69,0.29,1.04,0.43c-0.15-0.19-0.23-0.17-0.47-0.41
			c-0.03-0.03,0.37,0.33,0.22,0.17c-0.18-0.19,0.31,0.45,0.17,0.22c-0.11-0.18-0.27-0.39-0.41-0.55c-0.14-0.15-0.62-0.53-0.59-0.49
			c0.1,0.1,0.21,0.21,0.31,0.31c0.27,0.17,0.41,0.41,0.42,0.73c0.12,0.44,0.15,0.92-0.25,1.24c-0.07,0.06-0.51,0.22-0.23,0.13
			c0.29-0.09-0.16,0.03-0.19,0.03c-0.11,0-0.52-0.16-0.12-0.01c-0.02-0.01-0.4-0.23-0.17-0.07c0.24,0.16-0.12-0.12-0.13-0.13
			c0.31,0.36-0.02-0.04-0.05-0.09c-0.03-0.07-0.17-0.53-0.07-0.11c-0.06-0.23-0.06-0.43,0-0.66c-0.05,0.21-0.16,0.27,0.08-0.12
			c0,0,0.34-0.37,0.14-0.17c-0.2,0.2,0.17-0.14,0.17-0.14c0.61-0.4,1.08-0.19,0.61-0.21c0.1,0,0.56,0.13,0.16-0.01
			c0.05,0.02,0.38,0.23,0.21,0.07c-0.3-0.27-0.83-0.42-1.21-0.47c-1.04-0.14-2.02,0.41-2.43,1.38c-0.44,1.05-0.05,2.23,0.71,3.02
			c1.17,1.22,3.15,1.37,4.58,0.56c1.28-0.73,2.1-2.29,2.01-3.75c-0.19-3.26-4.15-5.35-6.9-3.42c-1.61,1.13-2.42,3.24-1.38,5.05
			c0.98,1.7,3.41,2.04,4.72,0.53c0.43-0.49,0.75-1.23,0.5-1.89C452.02,371.14,451.68,370.75,450.9,370.65L450.9,370.65z"/>
	</g>
</g>
<g>
	<g>
		<path class="st0" d="M445.07,359.73c3.45,1.39,6.94,1.91,10.22,3.86c3.36,2.01,5.02,5.16,7.92,7.53c1.17,0.96,3.73,0.51,3.48-1.44
			c-1.04-8.11-14.56-15.17-21.69-10.42C444.81,359.39,444.86,359.64,445.07,359.73L445.07,359.73z"/>
	</g>
</g>
<g>
	<g>
		<path class="st0" d="M413.78,361.05c3.91-2.05,8.76-3.1,13.08-3.81c4.59-0.75,9.25-0.16,13.79-1.07c2.23-0.45,1.66-3.28,0-3.98
			c-5.32-2.23-12.37-1.08-17.8,0.38c-3.85,1.04-9.95,2.48-11.5,6.6C410.8,360.62,412.6,361.67,413.78,361.05L413.78,361.05z"/>
	</g>
</g>
<g>
	<g>
		<path class="st0" d="M434.33,372.43c-4.8,1.82-9.62,6.94-11.83,11.52c-2.31,4.78,1.72,7.45,5.95,8.3
			c4.66,0.94,9.13-0.49,10.64-5.37c1.6-5.18-1.29-9.72-3.8-13.98c-0.89-1.5-2.97-1.06-3.51,0.46c-0.8,2.24,0.92,4.26,1.83,6.19
			c1.55,3.3,2.23,8.76-3.08,8.44c-1.27-0.08-3.67-0.28-3.96-1.59c-0.32-1.44,1.63-3.26,2.46-4.4c2.04-2.78,4.6-5.29,6.25-8.34
			C435.6,373.08,435.06,372.16,434.33,372.43L434.33,372.43z"/>
	</g>
</g>
<g>
	<g>
		<path class="st0" d="M410.64,403.35c1.17,7.63,11.23,12.32,17.81,14.23c8.28,2.4,17.59,2.31,25.62-0.95
			c-1.36-1.03-2.72-2.07-4.07-3.1c0.17,5.92-0.89,11.22-7.47,12.57c-2.93,0.6-6.17,0.92-9.09,0.04c-2.89-0.88-4.4-3.12-6.63-4.93
			c-1.6-1.3-4.18-0.54-4.2,1.74c-0.09,10.01,13.87,11.04,20.93,9.61c10.32-2.08,12.46-9.6,12.89-19.03c0.09-2-2.14-3.76-4.07-3.1
			c-7.33,2.51-14.69,3.1-22.2,0.95c-3.45-0.99-6.65-2.41-9.74-4.22c-2.88-1.69-5.54-3.89-8.8-4.78
			C410.99,402.2,410.56,402.77,410.64,403.35L410.64,403.35z"/>
	</g>
</g>
<g>
	<g>
		<path class="st0" d="M478.99,393.6c-10.51,8.36-22.7,12.88-36.29,11.89c-13.02-0.95-26.17-7.2-34.58-17.26
			c-0.64-0.77-2,0.26-1.4,1.08c8.39,11.53,21.86,17.98,35.98,18.85c12.89,0.79,28.57-3.47,36.51-14.4
			C479.32,393.63,479.11,393.51,478.99,393.6L478.99,393.6z"/>
	</g>
</g>
<g>
	<g>
		<path class="st0" d="M234.94,469.19c-2.9-0.33-5.72,0.87-8.64,1.02c-3.22,0.17-6.46-0.41-9.42-1.67
			c-5.98-2.56-10.88-8.79-11.05-15.46c-0.22-8.82,10.08-9.45,16.06-6.46c5.76,2.88,8.56,8.08,11.29,13.58
			c0.51,1.03,2.44,0.88,2.61-0.34c2.54-17.48-29.17-30.43-35.04-11.52c-2.75,8.86,3.16,18.7,10.53,23.33
			c5.9,3.71,20.23,6.08,23.92-2.01C235.31,469.42,235.18,469.21,234.94,469.19L234.94,469.19z"/>
	</g>
</g>
<g>
	<g>
		<path class="st0" d="M228.2,447.74c3.25-1.43,6.51-2.81,9.77-4.22c1.63-0.71,1.34-3.15,0-3.94c-5.2-3.08-9.99-6.4-14.37-10.59
			c-0.56,1.35-1.12,2.7-1.68,4.05c7.21-0.37,14.42-0.86,21.64-1.22c2.11-0.11,2.98-2.89,1.09-4.03
			c-8.35-5.02-15.54-11.5-21.53-19.17c-0.73,1.25-1.45,2.5-2.18,3.75c34.02,5.97,65.94,24.02,101.35,16.49
			c1.95-0.41,2.31-3.38,0.56-4.29c-3.5-1.83-7.57-3.37-10.79-5.63c-3.7-2.6-3.55-6.49-5.25-10.35c-2.36-5.35-6.51-9.73-11.34-12.95
			c-11.73-7.82-28.13-9.52-41.88-10.05c-14.34-0.55-29.23,1.74-41.49,9.64c-11.62,7.49-18.03,18.49-21.17,31.77
			c-2.99,12.61-2.77,31.4,13.06,34.99c3,0.68,4.22-3.71,1.27-4.61c-18.03-5.51-10.34-33.29-3.34-44.73
			c8.46-13.82,24.82-20.4,40.37-21.64c8.47-0.68,17.01-0.08,25.42,1c8.28,1.06,16.86,2.54,24.15,6.83
			c7.26,4.27,10.75,10.05,12.6,18.01c1.53,6.58,10.68,9.01,16.02,11.78c0.19-1.43,0.37-2.86,0.56-4.29
			c-33.54,7.23-66.54-10.29-98.91-16.29c-1.67-0.31-3.85,1.58-2.53,3.29c6.31,8.25,13.89,14.96,22.87,20.19
			c0.36-1.34,0.73-2.69,1.09-4.03c-7.21,0.31-14.42,0.49-21.64,0.8c-1.99,0.08-3.21,2.57-1.68,4.05c4.58,4.43,9.68,8.36,15.42,11.17
			c0-1.31,0-2.63,0-3.94c-3.02,1.82-6.02,3.65-9.05,5.45C224.83,446.08,226.39,448.53,228.2,447.74L228.2,447.74z"/>
	</g>
</g>
<g>
	<g>
		<path class="st0" d="M295.28,468.25c-5.89,1.66-10.79,5.79-16.95,7.22c-6.8,1.58-13.57,1.27-20.19-0.9
			c-1.52-0.5-3.01,0.59-3.48,1.98c-2.61,7.6,6.97,13.81,12.83,16.45c6.54,2.94,14.84,3.29,20.12-2.16c1.62-1.67-0.41-4.02-2.39-3.09
			c-4.34,2.05-8.8,2.67-13.4,1.1c-3.19-1.09-13.35-6.09-11.7-10.78c-1.16,0.66-2.32,1.32-3.48,1.98c7.44,2.46,15.56,2.76,23.1,0.51
			c5.81-1.73,14.09-5.49,16.16-11.69C296.01,468.5,295.63,468.16,295.28,468.25L295.28,468.25z"/>
	</g>
</g>
<g>
	<g>
		<path class="st0" d="M274.55,442.47c-4.7,1.8-5.79,8.38-4.51,12.71c1.48,5.02,6.37,9.57,11.79,9.56c5.15-0.01,7.84-5.1,6.46-9.73
			c-1.73-5.82-8.1-10.93-13.08-13.94c-1.95-1.18-4.35,1.72-2.5,3.24c2.65,2.18,5.35,4.29,7.76,6.74c1.21,1.22,2.52,2.51,3.3,4.06
			c1.35,2.67,0.74,5.9-2.99,5.4c-3.57-0.48-6.61-4.06-7.53-7.33c-1.09-3.85,0.57-6.94,1.41-10.58
			C274.68,442.53,274.62,442.45,274.55,442.47L274.55,442.47z"/>
	</g>
</g>
<g>
	<g>
		<path class="st0" d="M261.29,436.66c-0.05,0.04-0.09,0.08-0.14,0.12c0.5-0.29,1-0.58,1.5-0.87c-1.06,0.31-1.9,0.9-2.48,1.86
			c-1.27,2.1,0.34,5.2,2.9,5.05c1.13-0.06,2.08-0.43,2.87-1.25c-0.5,0.29-1,0.58-1.5,0.87c0.06-0.02,0.11-0.04,0.17-0.07
			c1.1-0.43,2.11-1.15,2.39-2.39c0.2-0.9,0.13-1.83-0.34-2.64c-0.43-0.74-1.21-1.34-2.04-1.57
			C263.37,435.44,262.23,435.85,261.29,436.66L261.29,436.66z"/>
	</g>
</g>
<g>
	<g>
		<path class="st0" d="M290.07,439.82c0.05-0.8-0.31-1.75-0.9-2.29c-0.99-0.9-2.47-1.1-3.64-0.41c-0.64,0.37-1.17,0.92-1.52,1.57
			c-0.09,0.17-0.18,0.36-0.25,0.54c-0.16,0.41,0.36-0.37,0.14-0.16c-0.11,0.1-0.07,0.07,0.12-0.09c0.17-0.16,0.38-0.28,0.61-0.35
			c0.26-0.03,0.51-0.07,0.77-0.1c-0.04,0-0.08,0-0.12,0c0.26,0.03,0.51,0.07,0.77,0.1c0.15,0.07,0.3,0.13,0.45,0.2
			c0.35,0.35,0.69,0.69,1.04,1.04c-0.18-0.41,0.23,0.73,0.17,0.32c0.03,0.25,0.07,0.51,0.1,0.76c-0.01-0.06,0-0.12,0-0.18
			c-0.03,0.25-0.07,0.5-0.1,0.76c0.06-0.3,0.2-0.3-0.16,0.31c0.21-0.37-0.48,0.57-0.19,0.25c0.26-0.29-0.53,0.36-0.27,0.21
			c0.24-0.14-0.75,0.24-0.28,0.12c-0.13,0.03-0.67,0.04-0.98-0.01c0.69,0.1,1.39,0.14,2.01-0.26c0.8-0.51,1.26-1.3,1.29-2.25
			c0.02-0.57-0.22-1.14-0.56-1.58c-0.38-0.49-0.79-0.7-1.35-0.93c-1.03-0.43-2.46-0.12-3.36,0.5c-1.51,1.04-2.38,3.11-1.38,4.82
			c0.74,1.26,2.16,1.79,3.56,1.49c0.9-0.19,1.6-0.76,2.15-1.46c0.32-0.42,0.53-0.85,0.7-1.35c0.03-0.08,0.19-0.44,0.16-0.51
			c0.04,0.08-0.34,0.59-0.12,0.3c-0.1,0.12-0.19,0.24-0.29,0.35c-0.33,0.34-0.74,0.46-1.23,0.38c-0.87,0.01-1.15,0.05-0.83,0.12
			c0.12,0.03,0.06,0-0.2-0.1c-0.17-0.05-0.31-0.14-0.44-0.26c-0.21-0.18-0.26-0.21-0.14-0.1c0.7,0.72,1.82,0.9,2.73,0.52
			C289.48,441.71,290,440.84,290.07,439.82L290.07,439.82z"/>
	</g>
</g>
<g>
	<g>
		<path class="st0" d="M305.43,429.37c-3.87,4.07-7.22,7.64-10.36,12.35c-0.59,0.88-0.39,2.32,0.39,3.04
			c12.57,11.49,19.14,29.68,11.73,45.88c-7.06,15.44-24.81,21.03-40.19,24.43c-8.83,1.95-17.54,2.23-25.88-1.68
			c-7.08-3.32-13.98-7.51-19.83-12.72c-6.69-5.96-11.89-13.36-15.08-21.75c-1.4-3.68-2.45-7.52-3.09-11.4
			c-0.73-4.41-0.37-8.93-1.38-13.28c-0.48-2.08-3.31-1.79-3.93,0c-2.32,6.73-0.34,15.54,1.57,22.19
			c2.16,7.52,5.71,14.64,10.49,20.83c4.31,5.57,9.61,10.24,15.37,14.26c5.99,4.18,12.93,8.57,20.08,10.38
			c14.29,3.62,30.82-1.55,43.92-7.23c13.17-5.7,23.34-15.93,26.05-30.38c3.07-16.36-3.98-32.35-16.28-43.07
			c0.13,1.01,0.26,2.02,0.39,3.04c3.05-4.67,4.91-9,7.1-14.05C306.78,429.54,306,428.77,305.43,429.37L305.43,429.37z"/>
	</g>
</g>
<g>
	<g>
		<path class="st0" d="M128.31,271.74C113,275,94.45,278,80.14,269.76c-6.7-3.86-12.21-10.46-12.01-18.56
			c0.22-8.56,7.44-13.55,14.89-15.86c6.98-2.16,15.48-3.18,22.19,0.35c3.62,1.91,8.7,8.77,0.86,9.14c-1.29,0.06-3.14-0.2-4.36-0.68
			c-3.76-1.47-2.35-5.18-0.51-7.65c4.36-5.89,10.16-12.15,17.54-13.9c4.2-0.99,9.25-0.62,12.37,2.71c2.76,2.95,3.64,7.87,0.98,11.16
			c-2.03,2.51,1.44,6.12,3.61,3.61c5.28-6.11,13.9-10.45,21.39-5.22c6.94,4.85,5.62,17.19-4.26,16.43c0,1.87,0,3.75,0,5.62
			c4.53-0.04,12.1-0.09,12.81,5.69c0.79,6.45-7.57,10.37-12.7,11.98c-10.17,3.19-20.64,1.26-29.82-3.8
			c-3.2-1.76-5.69,2.76-2.82,4.82c12.53,8.96,32.07,8.95,44.3-0.7c4.88-3.85,8.8-10.57,5.34-16.65c-3.3-5.8-11.13-6.72-17.12-6.95
			c-3.64-0.14-3.58,5.38,0,5.62c12.12,0.82,18.24-13.94,10.96-22.87c-8.66-10.63-23.68-6.69-31.7,2.44c1.2,1.2,2.4,2.4,3.61,3.61
			c4.42-5.69,3.63-13.62-1.67-18.57c-6.22-5.82-16.06-4.8-22.96-0.87c-4.04,2.31-7.42,5.59-10.48,9.07c-2.64,3-6.19,6.5-6.76,10.66
			c-1.06,7.64,8.25,10.38,14.27,9.53c7.58-1.07,9.25-8.7,5.01-14.35c-5.38-7.17-16.05-8.03-24.2-6.93
			c-8.26,1.12-17.27,4.22-22.44,11.15c-5.2,6.97-4.92,16.53-0.67,23.91c12.69,22.04,43.38,17.07,62.93,9.6
			C129.68,272.92,129.33,271.52,128.31,271.74L128.31,271.74z"/>
	</g>
</g>
<g>
	<g>
		<path class="st0" d="M79.34,270.52c-4.97,1.24-8.65,8.22-11.16,12.29c-2.58,4.18-3.87,8.22,0.22,11.94
			c2.27,2.06,6.19,4.59,8.77,1.61c1.51-1.74,1.49-4.77,2.11-6.85c1.08-3.65,3.11-6.76,4.64-10.21c0.76-1.71-1.13-3.31-2.61-2.02
			c-2.34,2.03-3.79,4.51-5,7.34c-0.73,1.7-1.33,3.42-1.78,5.22c-0.51,2.07,0.27,3.36-1.75,2.54c-6.68-2.69,6.66-17.27,6.68-21.77
			C79.46,270.54,79.4,270.5,79.34,270.52L79.34,270.52z"/>
	</g>
</g>
<g>
	<g>
		<path class="st0" d="M120.78,288.29c1.81,5.79,2.03,13.24-2.57,17.73c-3.95,3.85-10.08,5.36-15.46,4.83
			c-4.92-0.49-10.06-3.08-10.5-8.55c-0.42-5.21,3.05-10.42,6.69-13.81c2.98-2.77,6.98-5.37,11.2-5.41c4.39-0.05,7.06,2.84,9.42,6.14
			c1.32,1.85,5.07,0.78,4.03-1.7c-9.7-23.15-44.74,2.97-33.64,20.84c6.46,10.41,24.41,8.19,31.91,0.36
			c6.17-6.45,4.72-14.28,0.22-20.97C121.64,287.12,120.53,287.49,120.78,288.29z"/>
	</g>
</g>
<g>
	<g>
		<path class="st0" d="M110.99,298.3c-0.02-0.04-0.04-0.07-0.06-0.11c0.09,0.34,0.18,0.67,0.27,1.01c0.03-0.38-0.11-0.93-0.32-1.26
			c-0.12-0.15-0.24-0.31-0.35-0.46c-0.16-0.17-0.1-0.08,0.17,0.25c-0.03-0.07-0.11-0.2-0.16-0.27c0.17,0.43,0.21,0.53,0.14,0.3
			c-0.05-0.14-0.1-0.27-0.16-0.4c-0.19-0.44-0.17-0.4,0.05,0.1c-0.02-0.07-0.04-0.14-0.06-0.21c-0.01,0,0.14,0.8,0.06,0.27
			c-0.09,0.52-0.1,0.65-0.04,0.39c-0.06,0.15-0.13,0.29-0.19,0.44c0.16-0.33-0.54,0.51-0.08,0.14c-1.38-0.18-2.76-0.36-4.14-0.53
			c0.15,0.22,0.11,0.11-0.11-0.33c-0.02-0.16-0.04-0.33-0.06-0.49c0,0.28,0.03,0.15,0.08-0.39c-0.05,0.19-0.03,0.15,0.07-0.11
			c0.22-0.49,0.02-0.09-0.05,0.02c-0.06,0.12-0.12,0.23-0.2,0.34c-0.67,0.96-0.42,2.57,0.43,3.35c0.87,0.8,2.31,1.13,3.35,0.43
			c1.1-0.74,1.79-1.83,1.78-3.19c-0.01-1.09-0.43-2.03-1.16-2.82c-0.96-1.05-2.76-0.98-3.73,0c-1.29,1.31-1.39,3.18-0.56,4.76
			c0.43,0.81,1.25,1.35,2.09,1.66c0.48,0.17,0.99,0.22,1.49,0.09c0.36-0.09,0.8-0.33,1.04-0.59c0.11-0.15,0.23-0.3,0.34-0.44
			c-0.28,0.34-0.34,0.44-0.21,0.29C111.27,299.93,111.4,299.01,110.99,298.3L110.99,298.3z"/>
	</g>
</g>
<g>
	<g>
		<path class="st0" d="M152.56,288.29c1.81,5.79,2.03,13.24-2.57,17.73c-3.95,3.85-10.08,5.36-15.46,4.83
			c-4.92-0.49-10.06-3.08-10.5-8.55c-0.42-5.21,3.05-10.42,6.69-13.81c2.98-2.77,6.98-5.37,11.2-5.41c4.39-0.05,7.06,2.84,9.42,6.14
			c1.32,1.85,5.07,0.78,4.03-1.7c-9.7-23.15-44.74,2.97-33.64,20.84c6.46,10.41,24.41,8.19,31.91,0.36
			c6.17-6.45,4.72-14.28,0.22-20.97C153.42,287.12,152.31,287.49,152.56,288.29z"/>
	</g>
</g>
<g>
	<g>
		<path class="st0" d="M142.77,298.3c-0.02-0.04-0.04-0.07-0.06-0.11c0.09,0.34,0.18,0.67,0.27,1.01c0.03-0.38-0.11-0.93-0.32-1.26
			c-0.12-0.15-0.24-0.31-0.35-0.46c-0.16-0.17-0.1-0.08,0.17,0.25c-0.03-0.07-0.11-0.2-0.16-0.27c0.17,0.43,0.21,0.53,0.14,0.3
			c-0.05-0.14-0.1-0.27-0.16-0.4c-0.19-0.44-0.17-0.4,0.05,0.1c-0.02-0.07-0.04-0.14-0.06-0.21c-0.01,0,0.14,0.8,0.06,0.27
			c-0.09,0.52-0.1,0.65-0.04,0.39c-0.06,0.15-0.13,0.29-0.19,0.44c0.16-0.33-0.54,0.51-0.08,0.14c-1.38-0.18-2.76-0.36-4.14-0.53
			c0.15,0.22,0.11,0.11-0.11-0.33c-0.02-0.16-0.04-0.33-0.06-0.49c0,0.28,0.03,0.15,0.08-0.39c-0.05,0.19-0.03,0.15,0.07-0.11
			c0.22-0.49,0.02-0.09-0.05,0.02c-0.06,0.12-0.12,0.23-0.2,0.34c-0.67,0.96-0.42,2.57,0.43,3.35c0.87,0.8,2.31,1.13,3.35,0.43
			c1.1-0.74,1.79-1.83,1.78-3.19c-0.01-1.09-0.43-2.03-1.16-2.82c-0.96-1.05-2.76-0.98-3.73,0c-1.29,1.31-1.39,3.18-0.56,4.76
			c0.43,0.81,1.25,1.35,2.09,1.66c0.48,0.17,0.99,0.22,1.49,0.09c0.36-0.09,0.8-0.33,1.04-0.59c0.11-0.15,0.23-0.3,0.34-0.44
			c-0.28,0.34-0.34,0.44-0.21,0.29C143.05,299.93,143.19,299.01,142.77,298.3L142.77,298.3z"/>
	</g>
</g>
<g>
	<g>
		<path class="st0" d="M73.44,310.23c-1.36-1.33-3.28-0.99-5.05-1.22c-4.04-0.53-9.65-2.96-9.04-7.81
			c0.59-4.68,6.47-6.33,10.42-4.94c3.55,1.25,4.69,4.33,6.68,7.16c0.71,1,2.71,1.12,2.96-0.39c2.16-13.38-20.92-16.31-24.75-3.99
			c-1.82,5.86,2.95,11.43,8.22,13.3c2.57,0.91,6.36,1.45,8.89,0.11C72.05,312.32,74.17,310.94,73.44,310.23L73.44,310.23z"/>
	</g>
</g>
<g>
	<g>
		<path class="st0" d="M165.27,295.79c1.45-2.62,1.76-5.18,4.64-6.78c3.29-1.82,7.08-0.43,9.79,1.78c1.72,1.4,4.23,3.82,3.68,6.35
			c-0.31,1.42-1.96,2.76-3,3.63c-2.91,2.44-6.33,4.95-10.2,3.17c-2.18-1-4.71,1.65-2.73,3.53c4.85,4.59,11.1,0.94,15.36-2.57
			c5.32-4.38,6.95-9.78,2.04-15.3c-3.78-4.25-10.19-7.21-15.75-4.74c-3.39,1.51-8.45,7.7-4.35,10.98
			C164.91,295.98,165.15,295.99,165.27,295.79L165.27,295.79z"/>
	</g>
</g>
<g>
	<g>
		<path class="st0" d="M176.28,306.84c0.04,2.98,1,5.82,1.17,8.8c0.2,3.44-0.31,6.8-1.35,10.08c-2.2,6.89-6.79,12.57-12.65,16.75
			c-10.56,7.53-24.03,10.85-36.85,11.15c-12.89,0.3-25.89-2.76-36.69-9.96c-5.37-3.58-10.06-8.22-13.41-13.76
			c-3.76-6.21-4.51-12.38-5.07-19.46c-0.16-2.01-2.89-2.47-3.54-0.48c-4.47,13.58,6.6,28.68,16.85,36.45
			c12.27,9.31,28.13,13.49,43.42,12.81c14.86-0.66,30.88-5.44,42.07-15.57c5.3-4.8,9.47-11.11,11.04-18.14
			c1.33-5.99,1.65-14.98-3.58-19.26C177.15,305.83,176.27,306.07,176.28,306.84L176.28,306.84z"/>
	</g>
</g>
<g>
	<g>
		<path class="st0" d="M92.48,323.94c4.16,11.14,21.48,15.64,32.04,15.42c12.28-0.25,25.8-5.44,32.74-15.99
			c0.78-1.18-0.82-2.91-2.02-2.02c-9.27,6.93-18.77,12.88-30.72,13.17c-5.73,0.14-11.41-0.88-16.75-2.94
			c-5.34-2.06-9.9-5.82-15.27-7.67C92.49,323.9,92.47,323.92,92.48,323.94L92.48,323.94z"/>
	</g>
</g>
<g>
	<g>
		<path class="st0" d="M119.38,307.54c-2.28,1.5-3.64,4.18-4.72,6.63c-1.01,2.28-2.39,5.18-2.09,7.75
			c0.59,4.92,7.19,5.93,11.17,5.56c11.61-1.08,5.07-18.5-2.04-21.58c-2-0.86-3.61,1.23-2.27,2.94c1.82,2.35,4.03,4.03,5.3,6.86
			c1.41,3.16,2.52,7.68-2.33,7.71c-1.15,0.01-3.02-0.06-4.06-0.63c-2.85-1.55-1.38-3.99-0.75-6.21c0.82-2.88,2.11-5.96,1.87-8.99
			C119.45,307.54,119.42,307.51,119.38,307.54L119.38,307.54z"/>
	</g>
</g>
<g>
	<g>
		<path class="st0" d="M158.14,273.47c0.99,2.04,2.96,3.45,4.1,5.42c1.22,2.11,1.84,4.56,2.23,6.95c0.43,2.65,4.74,2.01,4.65-0.63
			c-0.11-3.38-1.4-6.29-3.67-8.8c-1.71-1.89-4.34-4.08-7.08-3.49C158.11,272.97,158.04,273.26,158.14,273.47L158.14,273.47z"/>
	</g>
</g>
<g>
	<g>
		<path class="st0" d="M73.05,295.28c4.73,2.64,11.68,2.57,16.95,2.83c2.57,0.13,2.46-3.67,0-3.94c-5.2-0.57-11.79-1.71-16.82,0.12
			C72.76,294.45,72.62,295.04,73.05,295.28L73.05,295.28z"/>
	</g>
</g>
<g>
	<g>
		<path class="st0" d="M152.15,291.14c2.03,1.28,4.76,1.2,7.1,1.41c3.06,0.27,6.13,0.65,9.21,0.42c3.1-0.23,3.11-4.6,0-4.83
			c-3.08-0.23-6.15,0.14-9.21,0.42c-2.34,0.21-5.07,0.13-7.1,1.41C151.71,290.24,151.71,290.86,152.15,291.14L152.15,291.14z"/>
	</g>
</g>
<g>
	<g>
		<path class="st0" d="M172.6,236.17c1.62,9.96,6.79,19.62,10.25,29.06c3.55,9.7,6.95,19.46,10,29.33
			c2.94,9.52,5.6,19.12,8.01,28.79c2.26,9.08,4.62,18.11,9.47,26.2c0.62,1.03,2.03,1.72,3.23,1.31
			c32.53-11.12,65.19-21.89,97.95-32.34c16.2-5.17,32.42-10.24,48.69-15.17c14.33-4.34,30.59-8.54,42.71-17.74
			c2.39-1.81,0.4-5.47-2.39-4.09c-7.32,3.62-14.41,7.35-22.11,10.15c-7.37,2.68-14.9,4.94-22.39,7.25
			c-15.96,4.92-31.92,9.84-47.84,14.86c-32.16,10.14-64.2,20.69-96.12,31.56c1.08,0.44,2.15,0.88,3.23,1.31
			c-5.06-8.45-7.23-17.93-9.67-27.37c-2.58-10.01-5.47-19.93-8.68-29.76c-3.12-9.53-6.53-18.96-10.33-28.25
			c-3.55-8.67-6.84-18.49-12.89-25.76C173.23,234.98,172.51,235.6,172.6,236.17L172.6,236.17z"/>
	</g>
</g>
<g>
	<g>
		<path class="st0" d="M349.3,180.62c3.97,18.73,12.49,36.2,20.38,53.57c8.04,17.68,15.9,36.02,25.87,52.72
			c1.7,2.85,5.57,0.36,4.33-2.53c-7.6-17.67-16.82-34.72-24.77-52.25c-7.92-17.46-14.58-35.66-24.7-51.98
			C350.05,179.56,349.16,179.95,349.3,180.62L349.3,180.62z"/>
	</g>
</g>
<g>
	<g>
		<path class="st0" d="M171.59,234.97c15.01,0.97,30.99-3.84,45.47-7.35c15.42-3.74,30.7-8.02,45.87-12.67
			c15.19-4.66,30.28-9.63,45.34-14.68c14.91-5,30.51-9.25,44.88-15.68c2.81-1.26,0.76-5.45-2.02-4.8
			c-15.39,3.63-30.41,9.85-45.39,14.89c-14.76,4.96-29.54,9.85-44.42,14.43c-14.56,4.48-29.18,8.74-43.95,12.5
			c-7.37,1.87-14.79,3.56-22.19,5.28c-7.99,1.86-16.2,3.19-23.83,6.29C170.41,233.55,170.5,234.9,171.59,234.97L171.59,234.97z"/>
	</g>
</g>
<g>
	<g>
		<path class="st0" d="M180.34,254.84c6.69-0.18,13.27-4,19.58-5.98c7.36-2.32,14.75-4.53,22.13-6.77
			c15.12-4.59,30.22-9.27,45.35-13.84c14.9-4.51,29.79-9.03,44.71-13.47c15.5-4.61,31.35-8.69,46.62-14.02
			c3.18-1.11,1.93-5.79-1.4-5.06c-15.46,3.39-30.77,8.31-45.96,12.75c-15.25,4.46-30.47,9.04-45.63,13.79
			c-14.78,4.63-29.54,9.33-44.22,14.28c-7.34,2.47-14.74,4.84-22.01,7.5c-6.54,2.39-13.82,4.97-19.79,8.52
			C178.68,253.15,179.09,254.88,180.34,254.84L180.34,254.84z"/>
	</g>
</g>
<g>
	<g>
		<path class="st0" d="M244.38,213.84c1.54,9.24,6.47,18.08,10.02,26.7c3.76,9.13,7.53,18.27,11.19,27.44
			c7.19,18.04,12.99,36.75,20.49,54.63c1.12,2.66,5.32,1.73,4.47-1.23c-5.44-19.15-13.72-37.96-21.15-56.42
			c-3.53-8.76-7.14-17.48-10.94-26.13c-3.78-8.59-7.02-18.29-12.97-25.62C245.02,212.63,244.29,213.27,244.38,213.84L244.38,213.84z
			"/>
	</g>
</g>
<g>
	<g>
		<path class="st0" d="M218.9,327.96c9.49,0.68,19.79-3.66,28.74-6.37c4.99-1.51,9.92-3.15,14.86-4.82
			c3.77-1.27,7.59-1.75,9.99-5.04c0.69-0.95-0.05-2.29-1.05-2.58c-4.12-1.21-8.41,1.34-12.34,2.64c-4.64,1.53-9.28,3.05-13.9,4.62
			c-8.66,2.94-19.15,5.08-26.54,10.68C218.29,327.36,218.41,327.92,218.9,327.96L218.9,327.96z"/>
	</g>
</g>
<g>
	<g>
		<path class="st0" d="M212.58,312.01c9.49,0.68,19.79-3.66,28.74-6.37c4.99-1.51,9.92-3.15,14.86-4.82
			c3.77-1.27,7.59-1.75,9.99-5.04c0.69-0.95-0.05-2.29-1.05-2.58c-4.12-1.21-8.41,1.34-12.34,2.64c-4.64,1.53-9.28,3.05-13.9,4.62
			c-8.66,2.94-19.15,5.08-26.54,10.68C211.98,311.42,212.09,311.98,212.58,312.01L212.58,312.01z"/>
	</g>
</g>
<g>
	<g>
		<path class="st0" d="M201.97,280.12c9.49,0.68,19.79-3.66,28.74-6.37c4.99-1.51,9.92-3.15,14.86-4.82
			c3.77-1.27,7.59-1.75,9.99-5.04c0.69-0.95-0.05-2.29-1.05-2.58c-4.12-1.21-8.41,1.34-12.34,2.64c-4.64,1.53-9.28,3.05-13.9,4.62
			c-8.66,2.94-19.15,5.08-26.54,10.68C201.37,279.53,201.48,280.09,201.97,280.12L201.97,280.12z"/>
	</g>
</g>
<g>
	<g>
		<path class="st0" d="M195.66,264.18c9.49,0.68,19.79-3.66,28.74-6.37c4.99-1.51,9.92-3.15,14.86-4.82
			c3.77-1.27,7.59-1.75,9.99-5.04c0.69-0.95-0.05-2.29-1.05-2.58c-4.12-1.21-8.41,1.34-12.34,2.64c-4.64,1.53-9.28,3.05-13.9,4.62
			c-8.66,2.94-19.15,5.08-26.54,10.68C195.05,263.59,195.17,264.15,195.66,264.18L195.66,264.18z"/>
	</g>
</g>
<g>
	<g>
		<path class="st0" d="M207.26,296.07c9.49,0.68,19.79-3.66,28.74-6.37c4.99-1.51,9.92-3.15,14.86-4.82
			c3.77-1.27,7.59-1.75,9.99-5.04c0.69-0.95-0.05-2.29-1.05-2.58c-4.12-1.21-8.41,1.34-12.34,2.64c-4.64,1.53-9.28,3.05-13.9,4.62
			c-8.66,2.94-19.15,5.08-26.54,10.68C206.65,295.47,206.77,296.03,207.26,296.07L207.26,296.07z"/>
	</g>
</g>
<g>
	<g>
		<path class="st0" d="M263.19,236.6c-1.06,3.34,0.78,6.93,2.09,10.02c0.34,0.8,1.56,1.21,2.35,0.96
			c11.3-3.67,22.76-6.96,33.85-11.27c2.02-0.79,1.28-3.8-0.91-3.3c-11.6,2.62-22.83,6.64-34.04,10.56c0.78,0.32,1.56,0.64,2.35,0.96
			c-1.67-2.58-2.71-6.04-4.98-8.11C263.65,236.2,263.29,236.3,263.19,236.6L263.19,236.6z"/>
	</g>
</g>
<g>
	<g>
		<path class="st0" d="M262.83,237.45c5.12,0.75,10.59-1.72,15.45-3.14c6.26-1.83,12.55-3.6,18.9-5.11
			c-0.77-0.31-1.54-0.63-2.31-0.94c1.37,2.03,2.27,4.19,3.9,6c0.79,0.88,2.15,0.14,2.2-0.91c0.14-2.81-1.06-4.81-2.56-7.16
			c-0.49-0.76-1.42-1.2-2.31-0.94c-6.27,1.81-12.56,3.55-18.79,5.5c-4.77,1.49-10.94,2.76-14.54,6.43
			C262.68,237.26,262.71,237.43,262.83,237.45L262.83,237.45z"/>
	</g>
</g>
<g>
	<g>
		<path class="st0" d="M284.82,244.89c-1.06,3.34,0.78,6.93,2.09,10.02c0.34,0.8,1.56,1.21,2.35,0.96
			c11.3-3.67,22.76-6.96,33.85-11.27c2.02-0.79,1.28-3.8-0.91-3.3c-11.6,2.62-22.83,6.64-34.04,10.56c0.78,0.32,1.56,0.64,2.35,0.96
			c-1.67-2.58-2.71-6.04-4.98-8.11C285.29,244.48,284.92,244.58,284.82,244.89L284.82,244.89z"/>
	</g>
</g>
<g>
	<g>
		<path class="st0" d="M284.47,245.73c5.12,0.75,10.59-1.72,15.45-3.14c6.26-1.83,12.55-3.6,18.9-5.11
			c-0.77-0.31-1.54-0.63-2.31-0.94c1.37,2.03,2.27,4.19,3.9,6c0.79,0.88,2.15,0.14,2.2-0.91c0.14-2.81-1.06-4.81-2.56-7.16
			c-0.49-0.76-1.42-1.2-2.31-0.94c-6.27,1.81-12.56,3.55-18.79,5.5c-4.77,1.49-10.94,2.76-14.54,6.43
			C284.32,245.54,284.34,245.72,284.47,245.73L284.47,245.73z"/>
	</g>
</g>
<g>
	<g>
		<path class="st0" d="M304.09,254.84c-1.06,3.34,0.78,6.93,2.09,10.02c0.34,0.8,1.56,1.21,2.35,0.96
			c11.3-3.67,22.76-6.96,33.85-11.27c2.02-0.79,1.28-3.8-0.91-3.3c-11.6,2.62-22.83,6.64-34.04,10.56c0.78,0.32,1.56,0.64,2.35,0.96
			c-1.67-2.58-2.71-6.04-4.98-8.11C304.55,254.43,304.19,254.53,304.09,254.84L304.09,254.84z"/>
	</g>
</g>
<g>
	<g>
		<path class="st0" d="M303.73,255.69c5.12,0.75,10.59-1.72,15.45-3.14c6.26-1.83,12.55-3.6,18.9-5.11
			c-0.77-0.31-1.54-0.63-2.31-0.94c1.37,2.03,2.27,4.19,3.9,6c0.79,0.88,2.15,0.14,2.2-0.91c0.14-2.81-1.06-4.81-2.56-7.16
			c-0.49-0.76-1.42-1.2-2.31-0.94c-6.27,1.81-12.56,3.55-18.79,5.5c-4.77,1.49-10.94,2.76-14.54,6.43
			C303.58,255.49,303.61,255.67,303.73,255.69L303.73,255.69z"/>
	</g>
</g>
<g>
	<g>
		<path class="st0" d="M326.38,262.44c-1.06,3.34,0.78,6.93,2.09,10.02c0.34,0.8,1.56,1.21,2.35,0.96
			c11.3-3.67,22.76-6.96,33.85-11.27c2.02-0.79,1.28-3.8-0.91-3.3c-11.6,2.62-22.83,6.64-34.04,10.56c0.78,0.32,1.56,0.64,2.35,0.96
			c-1.67-2.58-2.71-6.04-4.98-8.11C326.85,262.04,326.48,262.14,326.38,262.44L326.38,262.44z"/>
	</g>
</g>
<g>
	<g>
		<path class="st0" d="M326.03,263.29c5.12,0.75,10.59-1.72,15.45-3.14c6.26-1.83,12.55-3.6,18.9-5.11
			c-0.77-0.31-1.54-0.63-2.31-0.94c1.37,2.03,2.27,4.19,3.9,6c0.79,0.88,2.15,0.14,2.2-0.91c0.14-2.81-1.06-4.81-2.56-7.16
			c-0.49-0.76-1.42-1.2-2.31-0.94c-6.27,1.81-12.56,3.55-18.79,5.5c-4.77,1.49-10.94,2.76-14.54,6.43
			C325.88,263.1,325.9,263.27,326.03,263.29L326.03,263.29z"/>
	</g>
</g>
<g>
	<g>
		<path class="st0" d="M348.83,271.98c-1.06,3.34,0.78,6.93,2.09,10.02c0.34,0.8,1.56,1.21,2.35,0.96
			c11.3-3.67,22.76-6.96,33.85-11.27c2.02-0.79,1.28-3.8-0.91-3.3c-11.6,2.62-22.83,6.64-34.04,10.56c0.78,0.32,1.56,0.64,2.35,0.96
			c-1.67-2.58-2.71-6.04-4.98-8.11C349.29,271.57,348.92,271.67,348.83,271.98L348.83,271.98z"/>
	</g>
</g>
<g>
	<g>
		<path class="st0" d="M348.47,272.82c5.12,0.75,10.59-1.72,15.45-3.14c6.26-1.83,12.55-3.6,18.9-5.11
			c-0.77-0.31-1.54-0.63-2.31-0.94c1.37,2.03,2.27,4.19,3.9,6c0.79,0.88,2.15,0.14,2.2-0.91c0.14-2.81-1.06-4.81-2.56-7.16
			c-0.49-0.76-1.42-1.2-2.31-0.94c-6.27,1.81-12.56,3.55-18.79,5.5c-4.77,1.49-10.94,2.76-14.54,6.43
			C348.32,272.63,348.34,272.81,348.47,272.82L348.47,272.82z"/>
	</g>
</g>
<g>
	<g>
		<path class="st0" d="M283.39,231.41c0.87-3.11-0.55-6.87-1.59-9.81c-1.3-3.67-2.89-7.32-4.77-10.72
			c-0.85-1.54-3.59-0.48-2.91,1.23c1.41,3.57,2.97,7.08,4.43,10.62c1.2,2.91,2.35,6.65,4.82,8.69
			C283.37,231.43,283.39,231.42,283.39,231.41L283.39,231.41z"/>
	</g>
</g>
<g>
	<g>
		<path class="st0" d="M293.08,252.86c-0.64,4.95,1.78,10.16,3.29,14.81c1.82,5.64,3.81,11.23,5.9,16.78
			c3.9,10.37,7.65,20.92,12.57,30.86c1.21,2.44,5.52,0.69,4.46-1.88c-4.4-10.68-9.42-21.07-13.51-31.88
			c-1.99-5.26-3.91-10.55-5.79-15.85c-1.58-4.45-2.61-9.72-5.83-13.29C293.75,251.96,293.14,252.37,293.08,252.86L293.08,252.86z"/>
	</g>
</g>
<g>
	<g>
		<path class="st0" d="M299.25,201.85c-0.85,2.35,0.05,3.78,1,6.08c1.35,3.26,2.75,6.5,4.18,9.73c2.87,6.5,4.96,14.33,9.02,20.11
			c0.95,1.35,2.89,0.51,2.61-1.1c-1.18-6.77-5.32-13.72-8.08-19.98c-1.55-3.51-3.1-7.03-4.86-10.43c-1.16-2.23-1.54-3.56-3.83-4.42
			C299.26,201.83,299.25,201.84,299.25,201.85L299.25,201.85z"/>
	</g>
</g>
<g>
	<g>
		<path class="st0" d="M317.98,246.28c-0.12,1.48,0.39,3.2,1.3,4.38c0.97,1.27,2.93,0.57,2.61-1.1c-0.3-1.59-1.29-3.08-2.57-4.05
			C318.73,245.06,318.03,245.69,317.98,246.28L317.98,246.28z"/>
	</g>
</g>
<g>
	<g>
		<path class="st0" d="M324.01,259.46c-1.02,3.27,0.75,6.39,1.94,9.45c1.62,4.19,3.29,8.36,4.96,12.53
			c3.14,7.84,5.85,16.07,9.64,23.61c0.86,1.71,3.64,0.52,3.08-1.3c-2.6-8.52-6.55-16.81-9.87-25.08c-1.67-4.17-3.32-8.36-5.08-12.5
			c-1.16-2.72-1.9-5.3-4.54-6.76C324.1,259.37,324.03,259.4,324.01,259.46L324.01,259.46z"/>
	</g>
</g>
<g>
	<g>
		<path class="st0" d="M323.08,189.69c-0.34,4.74,2.82,9.88,4.68,14.2c2.44,5.67,4.88,11.33,7.36,16.98
			c2.54,5.8,5.18,11.57,7.58,17.42c2.25,5.49,4,11.49,7.12,16.55c1.16,1.89,4.27,0.68,3.64-1.54c-1.54-5.42-4.54-10.5-6.96-15.57
			c-2.66-5.56-5.06-11.24-7.55-16.87c-2.36-5.34-4.74-10.67-7.13-16c-2.18-4.87-4.11-11.98-8.34-15.36
			C323.32,189.39,323.1,189.47,323.08,189.69L323.08,189.69z"/>
	</g>
</g>
<g>
	<g>
		<path class="st0" d="M354.83,262.83c-1.65,1.78,0.2,5.36,1.78,6.55c1.29,0.98,3.17-0.64,2.7-2.08c-0.33-1.01-1.02-1.79-1.51-2.72
			c-0.45-0.86-0.91-1.7-1.88-2.05C355.56,262.42,355.08,262.56,354.83,262.83L354.83,262.83z"/>
	</g>
</g>
<g>
	<g>
		<path class="st0" d="M361.44,277.85c-2.28,2.32,0.68,7.25,1.67,9.64c1.5,3.59,2.93,8.7,6.41,10.78c1.07,0.64,2.53-0.18,2.5-1.44
			c-0.04-2.39-1.24-3.99-2.36-6.07c-1.32-2.46-2.65-4.91-3.86-7.43C365.66,283.01,362.8,276.46,361.44,277.85L361.44,277.85z"/>
	</g>
</g>
<g>
	<g>
		<path class="st0" d="M287.91,236.53c-1.48,0.47-1.81,2.13-1.57,3.5c0.26,1.45,1.02,2.52,2.17,3.4c0.86,0.66,2.26,0.22,2.85-0.57
			c0.65-0.87,0.63-2.11-0.17-2.9c-0.18-0.17-0.34-0.35-0.5-0.54c-0.02-0.02-0.25-0.28-0.13-0.12c-0.29-0.4-0.29-0.57-0.51-1.07
			C289.71,237.44,289.03,236.18,287.91,236.53L287.91,236.53z"/>
	</g>
</g>
<g>
	<g>
		<path class="st0" d="M95.01,214.96c4.12-21.14,11.27-40.1,24.57-57.26c13.15-16.96,30.29-29.31,46.87-42.62
			c1.5-1.2-0.41-3.42-1.99-2.58c-19.23,10.35-36.5,25.61-49.67,43.01c-12.42,16.41-22.54,38.33-20.42,59.36
			C94.4,215.21,94.93,215.36,95.01,214.96L95.01,214.96z"/>
	</g>
</g>
<g>
	<g>
		<path class="st0" d="M307.44,85.79c11.96,2.7,24.34,2.91,36.31,5.84c12.46,3.05,24.33,7.96,35.87,13.49
			c2.22,1.06,4.04-1.96,1.94-3.32c-11.13-7.22-23.6-11.95-36.52-14.86c-11.91-2.69-25.69-4.81-37.61-1.18
			C307.41,85.75,307.41,85.78,307.44,85.79L307.44,85.79z"/>
	</g>
</g>
<g>
	<g>
		<path class="st0" d="M476.82,217.95c8.84,11.46,11.38,27.29,14.43,41.13c1.84,8.35,3.36,16.81,3.83,25.36
			c0.44,8.06-0.43,16-0.67,24.04c-0.05,1.71,2.2,1.74,2.76,0.37c6.68-16.21,2.49-36.56-1.58-52.94c-2.14-8.62-4.35-17.44-7.53-25.74
			c-2.08-5.41-5-10.95-10.97-12.57C476.91,217.55,476.69,217.78,476.82,217.95L476.82,217.95z"/>
	</g>
</g>
<g>
	<g>
		<path class="st0" d="M408.21,448.97c-6.43,4.9-14.29,8.88-21.41,12.73c-7.15,3.87-14.46,7.31-22.08,10.15
			c-7.29,2.72-14.75,4.95-22.36,6.61c-3.8,0.83-7.63,1.54-11.47,2.13c-4.28,0.66-8.94,0.75-12.99,2.35c-1.6,0.63-1.95,3.13,0,3.62
			c7.52,1.87,16.94-0.57,24.36-2.19c8.41-1.84,16.69-4.34,24.69-7.54c7.68-3.07,15.21-6.66,22.29-10.95
			c7.46-4.52,13.37-10.03,19.99-15.58C409.96,449.68,408.98,448.38,408.21,448.97L408.21,448.97z"/>
	</g>
</g>
<g>
	<g>
		<path class="st0" d="M188.89,458.7c-7.88-4.73-17.34-6.68-25.5-11.04c-8.55-4.57-16.42-10.26-23.58-16.77
			c-14.48-13.17-24.71-29.67-31.52-47.91c-0.94-2.53-4.82-1.57-4.11,1.13c5.13,19.5,17.18,36.96,32.12,50.3
			c7.33,6.54,15.6,12.09,24.39,16.46c8.26,4.11,18.66,9.2,28.11,8.18C188.97,459.04,189.06,458.81,188.89,458.7L188.89,458.7z"/>
	</g>
</g>
<g>
	<g>
		<path class="st0" d="M447.92,169.56c-1.83,1.35-1.72,3.64-1.92,5.78c-0.26,2.73-0.55,5.89,0.84,8.39
			c2.15,3.86,8.17,6.24,12.3,4.47c10.5-4.51-5.13-20.28-11.95-19.16c-0.83,0.14-1.18,1.25-0.77,1.9c1.37,2.23,4.27,3.12,6.33,4.68
			c1.71,1.29,10.08,8.87,3.09,9.1c-1.43,0.05-3.09-0.76-4.18-1.63c-1.91-1.53-1.95-3.7-2.02-5.96c-0.07-2.42,0.62-5.6-1.13-7.49
			C448.38,169.49,448.09,169.43,447.92,169.56L447.92,169.56z"/>
	</g>
</g>
<g>
	<g>
		<path class="st0" d="M402.25,195.5c-7.59,7.69-20.13,0.44-24.51-7.24c-0.86-1.51-2.57-4.53-2.21-6.38
			c0.69-3.48,5.36-3.18,7.84-2.79c5.16,0.81,9.32,4,11.7,8.61c1.31-1.01,2.63-2.03,3.94-3.04c-4.55-4.25-5.93-13.48-7.79-19.24
			c-2-6.21-5.76-13.91-4.75-20.55c-0.78,0.6-1.57,1.19-2.35,1.79c24.87-1.01,49.85-3.5,74.14-9.1c3.03-0.7,1.7-5.1-1.27-4.59
			c-24.17,4.13-48.36,7.62-72.88,8.82c-0.97,0.05-2.19,0.72-2.35,1.79c-1.2,7.94,2.39,15.71,4.73,23.15
			c2.12,6.72,3.58,16.46,8.96,21.49c2.09,1.95,5.3-0.5,3.94-3.04c-3.6-6.71-10.68-11.09-18.36-10.99
			c-7.62,0.1-11.95,4.52-9.47,12.14c2.37,7.28,8.19,13.23,15.35,15.87c6.01,2.22,15.01,1.49,16.83-5.82
			C403.97,195.51,402.9,194.84,402.25,195.5L402.25,195.5z"/>
	</g>
</g>
<g>
	<g>
		<path class="st0" d="M458.19,134.23c4.38,9.93,8.03,18.93,5.23,29.97c-0.3,1.18,0.2,2.41,1.24,3.04
			c10.67,6.52,18.06,17.75,18.43,30.4c0.18,6.21-0.97,13.97-4.75,19.11c-3.16,4.3-8.85,6.3-13.74,7.83
			c-24.98,7.85-51.6-3.8-63.41-26.91c-1.64-3.21-6.43-0.38-4.82,2.82c13.77,27.43,46.67,39.81,75.05,27.86
			c5.07-2.13,9.72-4.9,12.58-9.77c3.84-6.56,5.1-15.21,4.42-22.68c-1.26-13.89-9.1-26.2-21.04-33.32c0.41,1.01,0.83,2.03,1.24,3.04
			c2.65-10.99,0.78-25.63-9.27-32.55C458.57,132.54,457.89,133.54,458.19,134.23L458.19,134.23z"/>
	</g>
</g>
<g>
	<g>
		<path class="st0" d="M430.81,172.11c0.26,0.16,0.55,0.44,0,0.01c-0.34-0.27-0.37-0.28-0.08-0.05c0.22,0.19,0.26,0.22,0.13,0.08
			c-0.05-0.05-0.1-0.11-0.15-0.15c0.2,0.18,0.34,0.4,0.42,0.66c0.1,0.28,0.13,0.34,0.08,0.16c0.03,0.25,0.07,0.5,0.1,0.76
			c-0.01-0.06-0.01-0.11,0-0.17c-0.03,0.25-0.07,0.51-0.1,0.76c-0.36,0.49-0.72,0.98-1.09,1.47c-1.31-0.34-2.61-0.68-3.92-1.03
			c0.18,0.34,0.43,0.63,0.71,0.9c0.23,0.18,0.46,0.36,0.7,0.54c-0.45-0.28-0.76-0.7-0.93-1.24c-0.03-0.26-0.07-0.52-0.1-0.78
			c0,0.04,0.01,0.08,0.01,0.12c0.04-0.26,0.07-0.52,0.11-0.79c-0.01,0.04-0.01,0.07-0.02,0.11c0.1-0.24,0.2-0.48,0.3-0.71
			c0.29-0.29,0.59-0.59,0.88-0.88c0.51-0.14,1.02-0.28,1.53-0.41c-0.02,0-0.04,0-0.07,0c0.27,0.04,0.54,0.07,0.81,0.11
			c-0.02-0.01-0.04-0.02-0.06-0.03c0.45,0.26,0.89,0.52,1.34,0.78c-0.22-0.18-0.1-0.04,0.34,0.44c-0.7-1.43-2.85-1.93-4.16-1.09
			c-1.46,0.94-1.84,2.63-1.09,4.16c0.51,1.03,1.7,1.69,2.82,1.7c1.34,0.01,2.44-0.8,2.95-2.01c0.52-1.23,0.22-2.59-0.68-3.57
			c-0.26-0.28-0.51-0.48-0.84-0.71c-0.08-0.06-0.15-0.11-0.23-0.16c0.26,0.16,0.48,0.38,0.64,0.65c-0.84-1.36-2.52-1.77-3.92-1.03
			c-1.97,1.04-2.04,3.67-0.64,5.19c0.62,0.68,1.5,1.06,2.42,1.07c1.17,0.02,2.04-0.62,2.66-1.54
			C432.44,174.31,431.85,172.78,430.81,172.11L430.81,172.11z"/>
	</g>
</g>
<g>
	<g>
		<path class="st0" d="M462.65,166.41c-0.16-0.16,0.27,0.36,0.23,0.31c-0.24-0.31-0.46-0.56-0.79-0.79
			c-0.05-0.03-0.17-0.07-0.2-0.11c0.1,0.08,0.2,0.15,0.3,0.23c-0.6-0.5-0.66-0.52-0.19-0.07c0.29,0.19,0.44,0.46,0.45,0.81
			c0.09,0.52,0.13,0.66,0.14,0.44c-0.02-0.08,0.05-0.48-0.01,0.07c-0.13,1.19-1.35,1.77-2.51,1.55c-0.66-0.87-1.32-1.74-1.98-2.6
			c0.01,0.21,0.02,0.18,0.04-0.09c0.01-0.23,0.07-0.44,0.19-0.64c0.09-0.11,0.17-0.23,0.26-0.34c0.37-0.26,0.46-0.33,0.28-0.22
			c-0.22,0.13-0.42,0.29-0.61,0.46c0.11-0.09,0.23-0.17,0.34-0.26c-0.08,0.18-0.58,0.39-0.73,0.55c-1.14,1.16-0.99,3.24,0.52,4.04
			c1.29,0.68,2.93,0.44,3.96-0.62c0.72-0.74,1.28-1.82,1.15-2.88c-0.07-0.62-0.19-1.13-0.58-1.64c-0.32-0.42-0.86-0.89-1.4-0.97
			c-0.87-0.12-1.59-0.13-2.4,0.29c-0.51,0.27-1,0.74-1.29,1.24c-0.64,1.11-0.72,2.48-0.04,3.59c0.8,1.3,2.43,1.86,3.83,1.26
			C462.92,169.46,463.86,167.57,462.65,166.41L462.65,166.41z"/>
	</g>
</g>
<g>
	<g>
		<path class="st0" d="M464.76,148.48c5.04-2.83,10.21-5.73,15-8.98c2.52-1.71,5.35-3.91,5.76-7.14
			c0.94-7.39-9.93-12.31-15.58-13.73c0.18,1.37,0.36,2.75,0.54,4.12c3.98-1.87,7.96-3.74,11.94-5.61c2.68-1.26,6.44-2.38,8.47-4.69
			c2.68-3.06,1.43-6.91-1.97-8.66c-5.18-2.68-13.25-1.58-18.78-1.03c-7.99,0.8-15.7,2.78-23.12,5.84c0.61,1.46,1.23,2.91,1.84,4.37
			c3.63-2.28,7.28-4.53,10.9-6.83c1.8-1.14,4.08-2.27,4.66-4.54c1.09-4.24-3.71-6.13-7.07-6.1c-14.59,0.12-30.34,7.25-42.27,15.13
			c1,1.3,2.01,2.6,3.01,3.91c3.36-4.02,6.72-8.05,10.08-12.07c1.28-1.54,0.74-3.52-1.12-4.23c-8.97-3.43-21.08,2.08-28.76,6.73
			c-8.65,5.23-15.82,12.62-20.78,21.42c1.72,0.47,3.45,0.93,5.17,1.4c-0.13-4.05-2.18-16.18-8.96-11.31
			c-5.67,4.07-7.33,13.99-8.07,20.36c-1.77,15.24,2.79,31.23,14.31,41.72c2.74,2.5,6.84-1.58,4.08-4.08
			c-7.68-6.96-11.98-16.52-12.91-26.79c-0.43-4.77-0.21-9.62,0.73-14.32c0.57-2.86,1.33-5.85,2.62-8.49
			c0.15-0.31,1.34-2.84,1.64-2.81c0.86,0.09,0.99,5.19,1.01,5.72c0.1,2.66,3.79,3.9,5.17,1.4c4.22-7.64,10.02-14.17,17.36-18.94
			c6.63-4.3,18.06-10.14,26.04-7.13c-0.37-1.41-0.74-2.82-1.12-4.23c-3.34,4.04-6.68,8.09-10.02,12.13
			c-1.67,2.02,0.49,5.6,3.01,3.91c8.31-5.56,17.34-9.79,27.02-12.34c1.98-0.52,12.68-3.78,13.78-1.94c0.56,0.93-3.64,2.98-4.94,3.79
			c-2.34,1.46-4.67,2.93-7.01,4.39c-2.18,1.37-0.77,5.45,1.84,4.37c9.53-3.93,19.58-6.1,29.9-6.06c1.65,0.01,5.96-0.53,7.28,0.47
			c2.7,2.05-1.17,3.47-2.86,4.28c-4.8,2.32-9.61,4.63-14.41,6.95c-1.75,0.85-1.27,3.69,0.54,4.12c2.6,0.62,5.08,1.51,7.35,2.93
			c1.02,0.63,3.34,1.76,3.82,3.01c-0.04,1.87-0.09,3.75-0.13,5.62c-0.89,0.77-1.82,1.49-2.77,2.17c-4.47,3.42-9.01,6.74-13.38,10.29
			C462.78,147.69,463.86,148.98,464.76,148.48L464.76,148.48z"/>
	</g>
</g>
<g>
	<g>
		<path class="st0" d="M384.09,186.77c0.29-0.35,0.25-0.13,0.07-0.12c0.34-0.01,0.88,0.26,1.21,0.39c0.69,0.29,1.39,0.67,2,1.12
			c1.17,0.86,2.09,2.09,2.6,3.44c1-1,2-2,3-3c-2.13-0.39-4.64-0.8-6.27,0.9c-0.87,0.9-0.82,2.67,0.42,3.27
			c1.58,0.76,2.88,0.28,4.55,0.54c2.18,0.34,3.68-1.56,2.75-3.58c-1.3-2.85-3.78-5.18-6.72-6.28c-2.21-0.83-7.2-1.14-6.23,2.64
			C381.75,187.14,383.33,187.7,384.09,186.77L384.09,186.77z"/>
	</g>
</g>
<g>
	<g>
		<path class="st0" d="M420.68,193.6c12.04,12.41,31.24,11.35,47.15,11.7c-0.41-1.5-0.81-3-1.22-4.49
			c-3.29,1.74-4.57,4.84-6.71,7.71c-3.2,4.28-8.24,7.36-13.67,7.55c-4.94,0.18-10.03-1.86-13.27-5.64
			c-3.99-4.65-3.54-9.94-2.79-15.53c0.27-2-2.74-2.54-3.63-0.98c-5.94,10.32,2.61,23.33,12.98,26.25c5.62,1.58,11.61,0.79,16.7-2.02
			c2.41-1.32,4.6-3.13,6.41-5.2c2.21-2.54,3.41-6.32,6.43-7.97c2.11-1.15,1.14-4.52-1.22-4.49c-7.57,0.09-15.21,0.38-22.76-0.4
			c-8.54-0.89-16.01-3.62-23.67-7.42C420.81,192.36,420.19,193.09,420.68,193.6L420.68,193.6z"/>
	</g>
</g>
<g>
	<g>
		<path class="st0" d="M413.17,164.67c0.84,0.18,1.06-0.09,1.77-0.38c1.78-0.72,3.41-1.85,5.27-2.54c4.1-1.53,8.36-2.57,12.46-4.07
			c2.1-0.77,2.02-4.49-0.57-4.24c-4.32,0.43-8.45,1.8-12.42,3.49c-3,1.27-6.27,2.53-7.48,5.78c-0.18,0.49,0.01,1.25,0.42,1.58
			C412.75,164.4,412.98,164.63,413.17,164.67L413.17,164.67z"/>
	</g>
</g>
<g>
	<g>
		<path class="st0" d="M450.76,155.27c9.78-2.67,19.28-0.94,29.14,0.76c2.37,0.41,3.21-2.7,0.99-3.58
			c-6.22-2.46-13.12-3.28-19.77-2.83c-3.93,0.27-9.13,0.73-11.14,4.64C449.71,154.78,450.16,155.44,450.76,155.27L450.76,155.27z"/>
	</g>
</g>
</svg>
