<?xml version="1.0" encoding="utf-8"?>
<!-- Generator: Adobe Illustrator 23.0.1, SVG Export Plug-In . SVG Version: 6.00 Build 0)  -->
<svg version="1.1" id="Laag_1" xmlns="http://www.w3.org/2000/svg" xmlns:xlink="http://www.w3.org/1999/xlink" x="0px" y="0px"
	 viewBox="0 0 566.93 566.93" style="enable-background:new 0 0 566.93 566.93;" xml:space="preserve">
<style type="text/css">
	.st0{fill:#1E1E1C;}
</style>
<g>
	<g>
		<path class="st0" d="M517.79,186.09c-18.41,4.65-37.09,6.82-56.02,4.72c-9.46-1.05-18.8-3.04-27.92-5.76
			c-8.91-2.65-18.91-6.05-24.28-14.22c-12.55-19.11,13.27-34.99,28.58-39.21c9.46-2.61,20.69-3.74,30.13-0.45
			c9.41,3.28,15.84,12.46,11.61,22.28c-4.36,10.11-16.11,13.8-26.36,13.32c-4.62-0.22-9.95-1.32-13.14-4.97
			c-2.83-3.23-1.72-6.27,2.48-7.5c1.28-0.38,2.82-0.47,4.18-0.53c0.55,0,1.1-0.01,1.65-0.01c1.53-0.19,2.83,0.32,3.9,1.55
			c-2.47,1.25-0.71,4.91,1.82,4.33c3.5-0.81,5.13-4.77,3.12-7.86c-2.85-4.39-10.15-3.78-14.5-3.05c-4.52,0.75-9.19,2.42-9.99,7.5
			c-0.81,5.19,2.8,10,6.95,12.66c18.47,11.85,56.01-4.69,45.24-29.58c-10.82-25-50.88-15.49-68.06-4.1
			c-9.69,6.42-17.87,17.03-16.08,29.29c1.86,12.75,13.52,20.16,24.7,24.14c28.53,10.18,65.25,14.36,92.45-1.45
			C518.86,186.85,518.46,185.92,517.79,186.09L517.79,186.09z"/>
	</g>
</g>
<g>
	<g>
		<path class="st0" d="M484.75,146.92c5.66,2.65,11.96,3.29,18.02,4.59c6.62,1.43,13.24,3.21,19.54,5.73
			c11.56,4.63,22.37,12.14,29.33,22.62c14.47,21.78,5.15,47.3-13.86,62.59c-2.41,1.94,0.76,6.06,3.32,4.31
			c21.31-14.61,30.23-44.36,16.85-67.14c-6.71-11.43-17.54-20.1-29.54-25.46c-6.96-3.11-14.27-5.33-21.75-6.72
			c-7.11-1.32-14.73-2.72-21.85-0.94C484.62,146.53,484.57,146.83,484.75,146.92L484.75,146.92z"/>
	</g>
</g>
<g>
	<g>
		<path class="st0" d="M515.53,187.76c-4.42,7.23-4.25,18.96-4.47,27.21c-0.26,9.88,0.43,19.62,2.17,29.35
			c0.38,2.14,3.98,2.16,4.34,0c1.22-7.29,9.67-8.75,15.06-4.97c5.43,3.81,9.87,13.04,6.73,19.44c-2.82,5.75-10.78,7.95-16.56,8.9
			c-7.97,1.31-16.56-0.36-21.38-7.36c-1.95-2.82-6.56-0.22-4.65,2.72c6.03,9.34,17.06,12.05,27.57,10.2
			c9.33-1.64,20.68-6.78,21.39-17.59c0.6-9.1-5.57-19.95-14.53-22.79c-7.55-2.39-16.84,2-17.96,10.24c1.47,0.2,2.95,0.4,4.42,0.6
			c-1.17-9.52-1.91-19.15-1.73-28.75c0.08-4.48,0.28-8.97,0.67-13.43c0.39-4.5,1.44-9.08,0.61-13.56
			C517.05,187.17,515.91,187.13,515.53,187.76L515.53,187.76z"/>
	</g>
</g>
<g>
	<g>
		<path class="st0" d="M526.54,241.84c-4.3,2.06-9.53,7.71-9.42,12.83c0.04,1.97,1.09,3.84,3.15,4.2c1.16,0.2,1.89-0.23,2.91-0.7
			c1.08-0.5,1.94-1.2,3.14-0.64c0.78,0.37,1.43,1.12,0.52,2.04c-1.8,1.81,0.47,4.52,2.64,3.42c3.31-1.67,3.61-5.86,1.32-8.58
			c-3.08-3.66-7.57-2.01-11.18-0.41c0.68-0.09,1.37-0.18,2.05-0.27c0.69,0.84,1.09,0.81,1.19-0.09c0.19-0.56,0.43-1.09,0.73-1.6
			c0.44-0.83,0.97-1.61,1.55-2.35c1.23-1.56,2.78-2.83,4.29-4.11C531.63,243.73,528.84,240.73,526.54,241.84L526.54,241.84z"/>
	</g>
</g>
<g>
	<g>
		<path class="st0" d="M422.41,187.27c-9.33,14.66-15.31,31.74-22.76,47.41c-7.57,15.92-15.86,31.47-24.17,47.01
			c-0.45,0.84-0.62,2.11,0,2.93c11.81,15.63,23.83,31.09,35.98,46.46c5.16,6.53,9.77,13.25,18.63,14.37
			c7.62,0.96,15.65-1.73,22.73-4.27c29.55-10.61,59.37-36.56,62.98-69.56c0.37-3.41-4.95-3.92-5.85-0.79
			c-4.27,14.91-9.94,28.09-20.75,39.54c-10.51,11.14-23.78,19.29-38.09,24.58c-6.72,2.48-15.11,5.9-22.38,4.18
			c-7.65-1.81-12.86-12.16-17.33-18.01c-10.3-13.46-20.75-26.79-31.34-40.02c0.15,1.17,0.3,2.35,0.45,3.52
			c9.16-15.42,17.22-31.48,24.74-47.76c7.17-15.54,15.34-32.19,18.12-49.19C423.44,187.11,422.74,186.75,422.41,187.27
			L422.41,187.27z"/>
	</g>
</g>
<g>
	<g>
		<path class="st0" d="M426.5,225.09c-0.21-0.26-0.48-0.49-0.79-0.64c-0.24-0.15-0.25-0.14-0.02,0.04
			c-0.08-0.07-0.16-0.14-0.23-0.22c-0.12-0.13-0.1-0.1,0.07,0.1c-0.05-0.09-0.1-0.18-0.15-0.27c-0.09-0.16-0.07-0.12,0.06,0.13
			c0.02,0.3,0.02,0.36,0.02,0.16c0-0.2-0.01-0.14-0.04,0.18c0.08-0.27,0.07-0.24-0.04,0.07c0.03-0.05,0.07-0.11,0.1-0.16
			c-0.2,0.25-0.21,0.28-0.01,0.08c-0.07,0.05-0.13,0.1-0.2,0.15c0.11-0.07,0.22-0.14,0.34-0.19c-0.08,0.04-0.16,0.07-0.24,0.11
			c0.28-0.07,0.25-0.07-0.1-0.02c0.54,0.23-0.49-0.19,0.09-0.02c-0.26-0.13-0.31-0.15-0.15-0.06c0.16,0.1,0.11,0.06-0.14-0.11
			c-0.17-0.25-0.21-0.3-0.12-0.15c0.09,0.16,0.07,0.09-0.06-0.19c0.05,0.17,0.1,0.34,0.15,0.51c0.17,0.51-0.13-0.4-0.01,0.08
			c0.06-0.3,0.06-0.33,0.01-0.07c-0.03,0.2-0.05,0.39-0.08,0.59c0.05-0.29,0.05-0.32,0-0.08c0.1-0.19,0.11-0.22,0.04-0.09
			c-0.03,0.05-0.32,0.49-0.14,0.25c-0.67,0.85-0.55,2.25,0.67,2.55c2.33,0.57,4.11-1.62,4.2-3.77c0.1-2.48-2.04-4.44-4.46-4.4
			c-2.49,0.04-4.6,1.99-4.86,4.45c-0.27,2.58,2.36,5.6,5.07,4.86C427.29,228.48,427.58,226.4,426.5,225.09L426.5,225.09z"/>
	</g>
</g>
<g>
	<g>
		<path class="st0" d="M460.21,231.01c0.18-0.06,1.32,0.34,0.16-0.07c0.29,0.11,0.03-0.08,0.11,0.07c0.12,0.23-0.1-0.12-0.18-0.19
			c-0.58-0.49-0.67-0.53-0.26-0.14c0.28,0.2,0.42,0.49,0.4,0.87c0.04,0.12-0.12,0.28-0.12,0.29c0-0.07,0.52-0.07,0.07-0.07
			c0.29,0.01,0.17,0.01,0.31,0.08c0.22,0.11-0.04-0.18,0.25,0.19c-0.13-0.17-0.01-0.2-0.08-0.07c-0.12,0.24-0.02-0.12,0.03-0.2
			c-0.35,0.6,0.09,0.01,0.1,0.02c-0.08-0.03-0.37,0.32,0.19,0c0.36-0.07,0.36-0.1,0.01-0.07c0.06,0,0.11,0,0.17,0
			c-0.59-0.15,0.18,0.15-0.32-0.17c0.39,0.25-0.42-0.3-0.57-0.37c-1.21-0.54-2.81-0.19-3.17,1.29c-0.48,1.99,1.08,3.76,2.96,4.2
			c1.65,0.38,3.39-0.18,4.48-1.47c2.44-2.88,0.88-7.13-2.6-8.2c-3.45-1.07-7.69,1.88-6.54,5.71c0.53,1.76,2.33,2.76,4.09,2.34
			c1.26-0.3,2.28-1.35,2.25-2.69C461.92,231.47,461.08,230.73,460.21,231.01L460.21,231.01z"/>
	</g>
</g>
<g>
	<g>
		<path class="st0" d="M451.96,213.98c5.52,1.31,10.63,1.99,15.69,4.87c5.21,2.97,7.8,7.36,11.87,11.44
			c1.49,1.49,3.84-0.04,3.41-1.98c-2.55-11.37-20.64-19.72-31.03-14.8C451.7,213.61,451.76,213.93,451.96,213.98L451.96,213.98z"/>
	</g>
</g>
<g>
	<g>
		<path class="st0" d="M405.26,215.34c4.63-3.77,13.13-5.07,18.86-6.1c6.83-1.23,13.65-0.37,20.44-1.28
			c2.26-0.3,2.85-3.21,0.55-4.05c-7.59-2.76-17.36-1.24-25.03,0.66c-4.77,1.18-16.19,3.46-17.37,9.29
			C402.39,215.41,404.07,216.3,405.26,215.34L405.26,215.34z"/>
	</g>
</g>
<g>
	<g>
		<path class="st0" d="M404.65,463.07c-4.97-0.59-10-0.01-14.99-0.07c-5.39-0.07-10.79-0.53-16.11-1.37
			c-10.31-1.63-20.31-4.76-29.76-9.19c0.34,0.85,0.69,1.69,1.03,2.54c1.22-6.01,2.42-12.03,3.67-18.04c0.12-0.6,0.24-1.2,0.37-1.8
			c-0.04-0.88,0.28-0.99,0.96-0.32c0.8-0.04,3.42,1.59,4.06,1.86c2.39,1.04,4.8,2.02,7.24,2.94c10.92,4.13,22.22,6.86,33.79,8.34
			c2.31,0.3,3.55-3.14,1.9-4.58c-2.72-2.39-5.12-5.59-6.39-9.02c-0.41-1.12-1.2-3.19-0.48-4.34c0.66-1.06,3.28-1.57,4.39-1.96
			c-1.09-0.62-2.18-1.24-3.28-1.86c3.92,10.34,12.46,17.55,17.47,27.25c1.76,3.41,6.85,0.41,5.14-3
			c-4.68-9.35-13.49-15.93-17.47-25.67c-0.5-1.23-1.81-2.43-3.28-1.86c-4.34,1.67-8.7,3.09-8.63,8.51
			c0.08,5.82,4.52,12.12,8.73,15.75c0.63-1.53,1.27-3.06,1.9-4.58c-14.65-1.71-28.6-5.95-42.19-11.56
			c-3.19-1.32-6.32-1.99-7.83,1.89c-2.47,6.34-3.02,14.2-4.4,20.86c-0.19,0.91,0.11,2.1,1.03,2.54c10.06,4.77,20.66,8.19,31.67,9.89
			c9.93,1.54,22.18,3.02,31.8-0.61C406.39,465.07,406.1,463.24,404.65,463.07L404.65,463.07z"/>
	</g>
</g>
<g>
	<g>
		<path class="st0" d="M379.88,449.42c-5.87-1.05-11.78-2.77-17.46-4.59c-5.71-1.83-11.05-4.99-16.86-6.38
			c-0.92-0.22-1.7,0.95-0.96,1.65c8.74,8.25,23.72,10.11,35.15,10.24C380.27,450.35,380.42,449.52,379.88,449.42L379.88,449.42z"/>
	</g>
</g>
<g>
	<g>
		<path class="st0" d="M379.26,456.22c-5.87-1.05-11.78-2.77-17.46-4.59c-5.71-1.83-11.05-4.99-16.86-6.38
			c-0.92-0.22-1.7,0.95-0.96,1.65c8.74,8.25,23.72,10.11,35.15,10.24C379.65,457.15,379.8,456.32,379.26,456.22L379.26,456.22z"/>
	</g>
</g>
<g>
	<g>
		<path class="st0" d="M512.13,363.32c-0.37,3.47,0.69,7.16,1.21,10.61c0.66,4.38,1.32,8.74,1.69,13.15
			c0.66,7.76,0.61,15.63-0.58,23.33c-2.43,15.84-9.52,30.68-20.82,42.1c-10.55,10.65-24.7,18.24-39.75,19.61
			c-17.33,1.58-33.27-4.91-48.84-11.63c-3.53-1.52-6.69,3.44-3.1,5.3c15.97,8.27,34.49,14.96,52.73,13
			c16.25-1.75,31.43-9.65,42.93-21.16c12.38-12.4,20-28.39,22.35-45.71c1.2-8.81,1.14-17.76,0-26.57
			c-0.92-7.09-2.07-16.77-6.78-22.46C512.8,362.44,512.18,362.86,512.13,363.32L512.13,363.32z"/>
	</g>
</g>
<g>
	<g>
		<path class="st0" d="M352.51,579.05c2.57-8.77,1.02-18.7,0.83-27.78c-0.2-9.85-0.25-19.71-0.03-29.56
			c0.21-9.85,0.54-19.7,1.11-29.54c0.56-9.72,1.96-19.73,1.05-29.45c-0.16-1.7-2.48-2.15-3.04-0.41c-3.03,9.48-3.42,20-4.1,29.86
			c-0.68,9.83-1.15,19.68-1.29,29.54c-0.13,9.85-0.08,19.72,0.28,29.56c0.33,9.19-0.17,19.48,3.64,27.98
			C351.28,579.94,352.33,579.69,352.51,579.05L352.51,579.05z"/>
	</g>
</g>
<g>
	<g>
		<path class="st0" d="M363.8,337.8c8.74,7.27,21.37,9.91,32.2,12.37c12.55,2.84,25.37,4.6,38.1,6.38
			c26.45,3.7,52.94,6.58,79.59,8.31c4.55,0.3,4.53-6.77,0-7.08c-26.32-1.78-52.66-4.22-78.8-7.79c-12.14-1.66-24.26-3.46-36.29-5.83
			c-11.39-2.24-22.57-6.74-34.06-8.16C363.66,335.89,363.13,337.24,363.8,337.8L363.8,337.8z"/>
	</g>
</g>
<g>
	<g>
		<path class="st0" d="M400.23,349.91c-2.42,5.56,1.25,12.45,4.67,16.83c4.79,6.14,11.85,10.08,19.51,11.33
			c14.74,2.4,32.94-4.06,38.73-18.73c1.46-3.7-4.54-5.33-5.97-1.64c-4.62,11.91-21.31,16.78-32.86,14.55
			c-5.7-1.1-10.75-3.98-14.64-8.28c-3.84-4.24-4.34-9.42-7.18-14.05C402.03,349.15,400.64,348.97,400.23,349.91L400.23,349.91z"/>
	</g>
</g>
<g>
	<g>
		<path class="st0" d="M491.01,381.08c-1.59,21.12-5.18,43.18-21.59,58.07c-7.4,6.72-16.53,11.17-26.32,13.08
			c-5.12,1-10.38,1.27-15.57,0.89c-5.19-0.38-10.21-2.57-15.34-2.66c-3.03-0.06-3.44,3.65-1.41,5.2c4.21,3.22,10.78,3.79,15.92,4.3
			c5.82,0.57,11.7,0.27,17.44-0.82c10.97-2.08,21.17-7.27,29.46-14.73c7.84-7.05,13.91-16.23,17.29-26.21
			c4.15-12.27,3.3-24.73,0.43-37.15C491.28,380.85,491.02,380.9,491.01,381.08L491.01,381.08z"/>
	</g>
</g>
<g>
	<g>
		<path class="st0" d="M489.96,407.76c1.08,3.91,7.61,4.02,10.94,4.56c5.46,0.9,11.53,2.16,16.98,0.98c2.66-0.58,2.18-4.13,0-4.93
			c-6.02-2.2-13.66-1.94-20.03-2.32C497.37,406.02,489.23,405.12,489.96,407.76L489.96,407.76z"/>
	</g>
</g>
<g>
	<g>
		<path class="st0" d="M169.12,525.6c9.62,3.64,21.87,2.15,31.8,0.61c11.02-1.7,21.61-5.12,31.67-9.89
			c0.93-0.44,1.22-1.62,1.03-2.54c-0.75-3.6-1.5-7.21-2.24-10.81c-0.66-3.2-0.91-7.04-2.16-10.05c-1.59-3.84-4.55-3.24-7.83-1.89
			c-13.6,5.61-27.54,9.85-42.19,11.56c0.63,1.53,1.27,3.06,1.9,4.58c4.21-3.61,8.65-9.94,8.73-15.75c0.08-5.41-4.3-6.85-8.63-8.51
			c-1.45-0.56-2.78,0.64-3.28,1.86c-3.99,9.73-12.8,16.32-17.47,25.67c-1.71,3.41,3.38,6.42,5.14,3
			c5.01-9.71,13.55-16.91,17.47-27.25c-1.09,0.62-2.18,1.24-3.28,1.86c3.77,1.35,5.52,2.02,3.9,6.31c-1.3,3.45-3.65,6.61-6.39,9.02
			c-1.63,1.44-0.42,4.88,1.9,4.58c11.57-1.48,22.87-4.21,33.79-8.34c2.44-0.92,4.85-1.9,7.24-2.94c1.08-0.47,2.15-1.07,3.26-1.46
			c2.79-0.99,1.04-0.92,1.94,0.82c1.24,2.39,1.29,6.35,1.83,9.02c0.67,3.31,1.35,6.61,2.02,9.92c0.34-0.85,0.69-1.69,1.03-2.54
			c-9.44,4.43-19.45,7.57-29.76,9.19c-5.03,0.79-10.14,1.24-15.23,1.36c-5.28,0.11-10.62-0.53-15.88,0.09
			C168.02,523.24,167.71,525.07,169.12,525.6L169.12,525.6z"/>
	</g>
</g>
<g>
	<g>
		<path class="st0" d="M194.35,510.34c11.44-0.14,26.41-2,35.15-10.24c0.74-0.7-0.04-1.86-0.96-1.65
			c-5.81,1.38-11.16,4.55-16.86,6.38c-5.68,1.82-11.59,3.54-17.46,4.59C193.7,509.52,193.83,510.35,194.35,510.34L194.35,510.34z"/>
	</g>
</g>
<g>
	<g>
		<path class="st0" d="M194.97,517.14c11.44-0.14,26.41-2,35.15-10.24c0.74-0.7-0.04-1.86-0.96-1.65
			c-5.81,1.38-11.16,4.55-16.86,6.38c-5.68,1.82-11.59,3.54-17.46,4.59C194.32,516.31,194.45,517.15,194.97,517.14L194.97,517.14z"
			/>
	</g>
</g>
<g>
	<g>
		<path class="st0" d="M87.24,384.74c-4.39-1.02-8.32-1.06-12.5-3c-2.1-0.97-3.76-1.53-5.53,0.51c-2.31,2.65-2.63,7.99-3.71,11.27
			c-1.6,4.87-3.44,9.66-5.28,14.45c-6.66,17.32-10.24,34.77-8.44,53.4c3.3,34.24,23.77,67.47,58.93,75.97
			c21.14,5.11,42.66-1.99,61.45-11.54c3.58-1.82,0.44-6.86-3.1-5.3c-15.98,7.05-32.92,13.84-50.76,11.4
			c-15.75-2.16-30.1-10.61-40.59-22.42c-20.82-23.45-25.21-60.72-15.9-89.96c2.91-9.14,6.82-17.96,9.26-27.26
			c0.25-0.94,0.68-5.82,1.45-6.48c0.4-0.34,3.09,0.88,4.09,1.08c3.58,0.71,7.25,0.42,10.62-0.94
			C87.75,385.71,87.89,384.88,87.24,384.74L87.24,384.74z"/>
	</g>
</g>
<g>
	<g>
		<path class="st0" d="M88.43,380.17c-8.28,16.76-11.39,34.06-11.02,52.64c0.34,17.06,0.8,35.31,7.96,51.1
			c6.17,13.61,17.43,24.95,31.1,31.02c7.14,3.17,14.86,4.9,22.66,5.22c7.57,0.31,17.75-0.12,24.21-4.5c2.09-1.42,1.57-5.43-1.41-5.2
			c-7.47,0.58-14.3,3.1-21.97,2.83c-7.92-0.28-15.87-2.24-22.96-5.8c-12.17-6.1-22.06-16.89-26.93-29.63
			c-5.67-14.82-5.78-31.22-6.28-46.86c-0.55-16.99,1.06-34.15,4.94-50.7C88.77,380.12,88.52,379.99,88.43,380.17L88.43,380.17z"/>
	</g>
</g>
<g>
	<g>
		<path class="st0" d="M84.13,467.6c-2.14-3.13-7.57-1.59-10.77-1.34c-5.53,0.44-11.9,0.2-17.14,2.11c-2.18,0.8-2.66,4.35,0,4.93
			c6.23,1.36,13.64-0.29,19.83-1.51C76.58,471.69,85.84,470.1,84.13,467.6L84.13,467.6z"/>
	</g>
</g>
<g>
	<g>
		<path class="st0" d="M485.9,359.9c-3.07,5.1-3.78,11.98-4.78,17.76c-1.15,6.64-2.21,13.29-3.19,19.96
			c-0.87,5.97-1.61,11.95-2.27,17.95c-0.71,6.47-1.87,13.26-0.92,19.73c0.31,2.11,3.34,1.71,3.89,0c1.82-5.65,1.91-11.95,2.5-17.82
			c0.68-6.71,1.44-13.41,2.21-20.11c0.78-6.8,1.66-13.59,2.63-20.37c0.78-5.45,2.14-11.5,1.13-16.95
			C487,359.48,486.18,359.44,485.9,359.9L485.9,359.9z"/>
	</g>
</g>
<g>
	<g>
		<path class="st0" d="M468.79,357.25c-4.24,4.98-5.43,13.04-6.98,19.24c-1.93,7.73-3.74,15.5-5.22,23.33
			c-2.92,15.36-4.75,30.76-6.44,46.28c-0.13,1.24,1.02,2.64,2.21,2.9c4.64,1.02,9.56,1.99,14.32,1.53c2.92-0.28,4.21-5.14,0.76-5.62
			c-4.51-0.63-8.99-0.79-13.48-1.71c0.74,0.97,1.47,1.93,2.21,2.9c1.22-15.61,3.66-31.21,6.4-46.62c1.35-7.55,2.76-15.08,4.39-22.58
			c1.3-6.02,3.94-13.22,2.86-19.39C469.74,357.08,469.08,356.92,468.79,357.25L468.79,357.25z"/>
	</g>
</g>
<g>
	<g>
		<path class="st0" d="M355.41,431.7c4.75-14.67,6.73-30.14,10.53-45.11c1.87-7.35,3.85-14.68,6.05-21.95
			c2.25-7.44,5.39-15.07,6.48-22.78c0.24-1.73-1.92-2.92-2.96-1.25c-4.04,6.49-6.19,14.43-8.39,21.7
			c-2.3,7.56-4.39,15.19-6.18,22.89c-3.51,15.12-7.21,30.8-6.37,46.37C354.61,432.07,355.26,432.17,355.41,431.7L355.41,431.7z"/>
	</g>
</g>
<g>
	<g>
		<path class="st0" d="M372.82,438.23c3.95-6.42,4.32-15.81,5.7-23.12c1.59-8.38,3.07-16.78,4.57-25.18
			c2.82-15.8,6.18-31.52,8.94-47.32c0.28-1.6-1.83-2.71-2.74-1.16c-8.11,13.82-9.24,31.45-11.82,46.93
			c-1.41,8.43-2.82,16.86-4.14,25.3c-1.16,7.46-4.03,16.82-2.44,24.29C371.09,438.9,372.37,438.97,372.82,438.23L372.82,438.23z"/>
	</g>
</g>
<g>
	<g>
		<path class="st0" d="M473.13,437.47c-3.81,0.72-10.95-0.38-9.45-5.88c0.58-2.12,3.15-3.23,5.16-2.38
			c2.09,0.88,2.63,3.46,3.35,5.36c0.41,1.08,1.64,1.18,2.31,0.3c2.74-3.57-0.59-8.52-4.19-9.88c-4.02-1.53-8.87,0.36-10.58,4.35
			c-1.58,3.68-0.29,8.27,2.99,10.58c3.57,2.52,8.63,1.92,10.67-2.1C473.5,437.62,473.34,437.43,473.13,437.47L473.13,437.47z"/>
	</g>
</g>
<g>
	<g>
		<path class="st0" d="M361.15,415.54c-3.32-3.28-7.56,2.01-7.55,5.3c0.03,5.66,5.82,9.04,10.96,8.82c4.24-0.18,8.88-3.37,7.49-8.13
			c-0.7-2.4-2.84-4.02-4.82-5.37c-2.1-1.43-5.15-3.57-7.76-2.64c-0.99,0.35-1.51,1.42-0.97,2.38c1.13,2,3.71,2.65,5.6,3.8
			c1.86,1.13,5.66,3.72,1.93,5.13c-2.33,0.88-5.7,0.03-7.17-2c-2.07-2.85-0.09-5.22,2.24-6.95
			C361.21,415.79,361.25,415.64,361.15,415.54L361.15,415.54z"/>
	</g>
</g>
<g>
	<g>
		<path class="st0" d="M386.38,384.52c-1.28,4.91,7.47,8.04,10.89,9.49c6.6,2.8,13.59,4.63,20.58,6.16
			c13.83,3.01,30.86,6.3,44.71,2.02c1.5-0.46,1.71-2.89,0-3.25c-6.82-1.44-13.95-1.3-20.88-1.84c-8.06-0.63-16.05-1.71-23.96-3.45
			c-7.03-1.55-14.35-3.28-20.96-6.17C395.72,387.01,387.25,381.17,386.38,384.52L386.38,384.52z"/>
	</g>
</g>
<g>
	<g>
		<path class="st0" d="M478.17,469.45c-3.8,8.55-4.23,18.69-5.1,27.93c-0.95,10.18-1.61,20.37-1.97,30.59
			c-0.72,20.19-1.32,40.96,1.87,60.97c0.5,3.12,5.25,2.22,5.34-0.72c0.63-20.05-0.85-40.16-0.39-60.24
			c0.22-9.87,0.63-19.75,1.22-29.6c0.56-9.43,2.21-19.38,0.5-28.73C479.51,469,478.44,468.83,478.17,469.45L478.17,469.45z"/>
	</g>
</g>
<g>
	<g>
		<path class="st0" d="M377.38,534.71c14.93,7.29,32.38,9.13,48.79,10.51c0-2.36,0-4.72,0-7.08c-7.46,0.52-14.9,1.17-22.34,1.83
			c-3.37,0.3-4.8,4.53-1.75,6.47c1.37,0.87,0.17,9.46,0.16,10.75c-0.03,4.12,0,8.23,0.11,12.34c0.12,4.32,6.53,4.31,6.7,0
			c0.24-6.01,0.28-12.02,0.24-18.04c-0.03-3.92,0.1-7.69-3.01-10.51c-0.82,1.97-1.64,3.95-2.45,5.92c7.45-0.52,14.9-1.04,22.34-1.69
			c4.48-0.39,4.62-6.94,0-7.08c-16.3-0.51-32.5-3.49-48.76-3.52C377.36,534.63,377.34,534.69,377.38,534.71L377.38,534.71z"/>
	</g>
</g>
<g>
	<g>
		<path class="st0" d="M186.66,448.76c-3.37,9.78,6.95,19.46,16.69,18.72c11.87-0.91,15.49-17.6,17.68-26.74
			c7.02-29.29,17.37-57.56,17.81-88.04c-1.23,0.94-2.46,1.87-3.69,2.81c2.16,0.47,6.11,0.48,7.86,1.73
			c1.88,1.34,0.33-1.13,0.79,1.24c0.2,1.01-0.95,3.82-1.17,4.71c-1.4,5.65-2.87,11.29-4.37,16.91c-0.4,1.51,0.5,3.23,2.05,3.62
			c9.74,2.41,11.42,22.07,1.06,24.48c-3.08,0.71-2.3,5.31,0.73,5.39c18.21,0.46,14.99-32.19-0.23-35.54
			c0.68,1.21,1.37,2.41,2.05,3.62c1.05-4.41,2.09-8.82,3.21-13.21c0.89-3.48,2.71-7.56,2.69-11.13c-0.03-6.39-8.5-6.38-13.14-7.44
			c-1.87-0.43-3.65,0.86-3.69,2.81c-0.52,23.57-6.87,45.85-13.25,68.35c-2.82,9.95-3.98,20.36-7.6,30.09
			c-1.97,5.31-4.74,11.9-11.48,11.14c-6.21-0.7-12.78-6.88-12.96-13.37C187.7,448.28,186.85,448.19,186.66,448.76L186.66,448.76z"/>
	</g>
</g>
<g>
	<g>
		<path class="st0" d="M243.66,354.5c5.7-10.77,8.79-22.74,12.37-34.33c3.75-12.14,7.6-24.24,11.6-36.3
			c-1.33,0.76-2.66,1.51-3.99,2.27c30.33,9.13,62.02,13.92,93.6,15.73c-0.32-2.36-0.64-4.73-0.96-7.09
			c-2.41,0.48-3.86,3.37-4.95,5.29c-1.91,3.35-3.54,6.88-5.17,10.38c-3.54,7.62-6.99,15.27-10.62,22.86
			c-6.55,13.71-12.61,27.69-17.92,41.93c-5.25,14.1-9.78,28.76-10.86,43.85c-0.26,3.56,5.71,4.44,6.31,0.85
			c4.7-28.15,15.39-54.72,27.52-80.43c3.39-7.19,6.78-14.34,10.06-21.58c1.57-3.47,3.17-6.94,4.88-10.35
			c0.76-1.52,1.52-3.06,2.41-4.51c0.33-0.54,0.66-1.07,1-1.61c0.46-0.72,0.48,0.03-0.74,0.28c4.17-0.84,2.92-6.87-0.96-7.09
			c-31.16-1.77-61.64-7.2-91.88-14.77c-1.71-0.43-3.51,0.54-3.99,2.27c-3.43,12.23-7.02,24.39-10.71,36.54
			c-3.52,11.59-7.61,23.2-8.93,35.29C241.63,355.01,243.21,355.36,243.66,354.5L243.66,354.5z"/>
	</g>
</g>
<g>
	<g>
		<path class="st0" d="M249.59,400.25c1.85,3.42,7.33,4.46,10.76,5.66c5.47,1.91,10.96,3.74,16.45,5.57
			c10.33,3.44,20.98,8.67,31.82,10.04c2.62,0.33,3-3.34,1.23-4.54c-8.97-6.12-21-8.79-31.27-11.97c-5.21-1.62-10.48-3.11-15.78-4.37
			c-3.76-0.9-9.47-3.16-13.05-0.99C249.54,399.77,249.47,400.04,249.59,400.25L249.59,400.25z"/>
	</g>
</g>
<g>
	<g>
		<path class="st0" d="M244.96,368.29c3.28,4.09,10.15,4.91,14.95,6.3c6.68,1.93,13.36,3.86,20.04,5.77
			c12.9,3.68,26.03,8.5,39.24,10.87c3.17,0.57,4.31-3.64,1.32-4.79c-12.53-4.82-26.25-7.49-39.2-11.03
			c-6.39-1.74-12.78-3.46-19.17-5.19c-5.02-1.35-11.88-4.5-17.01-2.61C244.84,367.73,244.77,368.04,244.96,368.29L244.96,368.29z"/>
	</g>
</g>
<g>
	<g>
		<path class="st0" d="M274.49,395.83c-1.6-1.21-3.79-1.02-5.55-1.91c-2.6-1.3-2.08-4.4,0.74-5.04c2.13-0.48,6.06,1.13,6.4,3.55
			c0.37,2.62-4.13,2.46-5.65,3.92c-0.66,0.63-0.46,1.72,0.28,2.17c4.12,2.52,10.49-1.99,9.82-6.68c-0.71-4.94-7.15-8.31-11.75-7.34
			c-4.27,0.89-7.68,5.78-5.56,10.01c1.89,3.75,8.78,5.69,11.32,1.51C274.58,395.95,274.55,395.88,274.49,395.83L274.49,395.83z"/>
	</g>
</g>
<g>
	<g>
		<path class="st0" d="M268.22,308.78c7.41,3,15.53,4.09,23.33,5.67c3.77,0.76,7.54,1.54,11.32,2.29c3.57,0.71,5.77,1.49,9.05-0.15
			c1.69-0.84,1.63-3.06,0.55-4.31c-2.29-2.66-5.08-2.74-8.43-3.41c-4.09-0.82-8.18-1.62-12.27-2.44c-7.5-1.49-15.07-3.44-22.75-3.52
			C265.41,302.89,265.27,307.59,268.22,308.78L268.22,308.78z"/>
	</g>
</g>
<g>
	<g>
		<path class="st0" d="M260.75,328.38c1.41,4.82,12.16,4.82,16.26,5.58c7.51,1.39,15.3,4.07,22.88,4.62
			c3.21,0.23,4.59-4.75,1.67-6.16c-7.49-3.6-17.21-4.77-25.43-5.85C274.79,326.4,259.47,324.02,260.75,328.38L260.75,328.38z"/>
	</g>
</g>
<g>
	<g>
		<path class="st0" d="M255.23,351.6c5.69,2.65,12.13,3.6,18.17,5.22c6.49,1.74,12.84,3.91,19.31,5.7c3.7,1.02,6.36-4.65,2.69-6.38
			c-6.09-2.88-12.53-4.91-19.07-6.52c-6.29-1.55-13.38-3.41-19.87-2.57C254.37,347.31,252.75,350.44,255.23,351.6L255.23,351.6z"/>
	</g>
</g>
<g>
	<g>
		<path class="st0" d="M311.27,333.95c-1.72,2.81-0.34,7.25,0,10.36c0.16,1.46,1.75,2.86,3.22,1.85c5.68-3.92,12.77-8.91,16.24-15
			c0.94-1.66-1.01-3.87-2.73-2.73c-2.91,1.93-5.17,4.65-7.72,7.03c-2.71,2.54-5.56,4.93-8.39,7.34c1.19,0.31,2.38,0.63,3.57,0.94
			c-0.65-3.06-0.73-7.77-3.25-9.91C311.92,333.57,311.49,333.6,311.27,333.95L311.27,333.95z"/>
	</g>
</g>
<g>
	<g>
		<path class="st0" d="M320.3,312.26c-1.72,2.81-0.34,7.25,0,10.36c0.16,1.46,1.75,2.86,3.22,1.85c5.68-3.92,12.77-8.91,16.24-15
			c0.94-1.66-1.01-3.87-2.73-2.73c-2.91,1.93-5.17,4.65-7.72,7.03c-2.71,2.54-5.56,4.93-8.39,7.34c1.19,0.31,2.38,0.63,3.57,0.94
			c-0.65-3.06-0.73-7.77-3.25-9.91C320.96,311.88,320.52,311.9,320.3,312.26L320.3,312.26z"/>
	</g>
</g>
<g>
	<g>
		<path class="st0" d="M304.3,355.26c-1.72,2.81-0.34,7.25,0,10.36c0.16,1.46,1.75,2.86,3.22,1.85c5.68-3.92,12.77-8.91,16.24-15
			c0.94-1.66-1.01-3.86-2.73-2.73c-2.91,1.93-5.17,4.65-7.72,7.03c-2.71,2.54-5.56,4.93-8.39,7.34c1.19,0.31,2.38,0.63,3.57,0.94
			c-0.65-3.06-0.73-7.77-3.25-9.91C304.96,354.88,304.52,354.9,304.3,355.26L304.3,355.26z"/>
	</g>
</g>
<g>
	<g>
		<path class="st0" d="M136.32,270.09c-2.55,2.64-2.3,6.78-2.51,10.27c-0.22,3.78-0.34,7.81,1.76,11.12
			c3.27,5.17,11.69,8.43,17.47,5.95c15.22-6.53-7.89-28.59-17.23-28.06c-1.5,0.09-2,1.66-1.14,2.76c2.51,3.2,7.12,4.67,10.29,7.26
			c2.82,2.29,14.42,13.58,3.26,13.77c-6.4,0.11-9.56-5.4-9.71-11.01c-0.1-3.81,0.92-8.63-1.22-11.94
			C137.06,269.89,136.6,269.8,136.32,270.09L136.32,270.09z"/>
	</g>
</g>
<g>
	<g>
		<path class="st0" d="M435.92,233.41c-6.46,3.36-14.16,10.87-16.84,17.77c-2.43,6.25,3.32,9.06,8.51,10.08
			c6.34,1.26,12.32-0.57,14.39-7.22c2.37-7.63-2.51-12.93-5.15-19.5c-0.63-1.57-3.3-2.07-3.71,0c-0.62,3.14,1.54,5.61,2.83,8.34
			c2.69,5.72,3.27,14.8-5.71,14.17c-2.7-0.19-5.84-0.49-6.45-3.23c-0.63-2.81,1.85-5.04,3.49-7.23c3.1-4.15,6.81-7.82,9.8-12.05
			C437.59,233.83,436.61,233.06,435.92,233.41L435.92,233.41z"/>
	</g>
</g>
<g>
	<g>
		<path class="st0" d="M287.53,153c-7.52,0.12-15.72-1.69-23.01-3.59c-7.42-1.93-14.7-4.57-21.51-8.11
			c-11.75-6.11-23.84-15.74-27.3-29.13c-3.74-14.47,5.8-28.9,16.47-37.8c11.43-9.53,25.97-14.34,40.54-16.35
			c29.64-4.08,61.93-0.18,89.95,10.12c13.19,4.85,29,11.57,38.4,22.46c4.95,5.73,7.53,13.92,3.75,20.93
			c-3.26,6.05-9.57,11.04-15.03,15.04c-24.95,18.28-57.21,22.61-87.26,18.71c-2.02-0.26-3.63,1.9-3.69,3.69
			c-0.38,11.21,3.21,21.67,10.05,30.49c1.41-1.83,2.82-3.66,4.23-5.48c-11.65-6.6-22.4-14.5-32.42-23.38
			c-3.11-2.76-7.65,1.67-4.61,4.61c10.05,9.73,21.33,17.92,33.5,24.81c3.69,2.09,6.54-2.51,4.23-5.48
			c-5.73-7.4-8.2-16.28-7.62-25.55c-1.56,1.18-3.11,2.37-4.67,3.55c30.51,4.36,63.6-0.12,89.48-17.8
			c11.63-7.94,25.64-19.41,22.53-35.16c-3.16-15.98-19.61-25.11-32.99-31.67c-31.33-15.37-68.37-20.82-102.99-17.31
			c-16.25,1.65-32.55,6-45.89,15.77c-11.83,8.66-22.14,21.81-23.24,36.93c-1.21,16.7,11,30.74,24.29,39.12
			c8.04,5.07,17.01,8.83,26.29,10.88c4.33,0.96,8.79,1.52,13.21,1.8c5.15,0.32,10.14-0.67,15.26-1.11
			C288.15,153.93,288.17,152.99,287.53,153L287.53,153z"/>
	</g>
</g>
<g>
	<g>
		<path class="st0" d="M236.34,86.96c3.07,1.51,6.43,0.86,9.78,0.59c3.9-0.32,7.78-0.77,11.67-1.15c8.77-0.87,17.53-1.86,26.31-2.66
			c17.28-1.59,34.58-2.67,51.84-4.42c2.94-0.3,3.08-4.69,0-4.69c-17.7-0.01-35.23,1.52-52.82,3.48c-8.04,0.9-16.08,1.81-24.08,3.04
			c-4.5,0.69-9.02,1.36-13.49,2.25c-3.27,0.65-6.75,1-9.25,3.34C236.25,86.79,236.26,86.92,236.34,86.96L236.34,86.96z"/>
	</g>
</g>
<g>
	<g>
		<path class="st0" d="M225.38,108.72c3.95,3.17,11.2,0.95,15.85,0.47c6.9-0.7,13.78-1.53,20.67-2.29
			c14.12-1.56,28.24-3.11,42.37-4.56c28.3-2.9,56.62-5.54,84.93-8.32c3.9-0.38,4.02-6.44,0-6.19c-28.72,1.84-57.33,4.6-85.91,7.91
			c-13.75,1.59-27.49,3.27-41.2,5.13c-7.19,0.97-14.39,1.92-21.56,3.06c-4.59,0.73-12.21,0.49-15.16,4.59
			C225.32,108.58,225.33,108.68,225.38,108.72L225.38,108.72z"/>
	</g>
</g>
<g>
	<g>
		<path class="st0" d="M254.05,133.39c6.04,0.3,12.28-0.98,18.25-1.8c7.04-0.96,14.08-1.9,21.14-2.69
			c13.22-1.48,26.46-2.77,39.67-4.37c3.87-0.47,4.13-6.24,0-6.23c-13.94,0.01-27.78,1.17-41.6,2.97
			c-12.61,1.65-26.96,2.36-38.75,7.37C250.25,129.7,251.78,133.28,254.05,133.39L254.05,133.39z"/>
	</g>
</g>
<g>
	<g>
		<path class="st0" d="M137.52,106.8c-6.93-4.08-14.14-6.34-20.24-11.88c-6.1-5.54-10.8-13.21-11.71-21.52
			c-0.97-8.91,2.84-17.46,10.55-22.17c6.92-4.22,15.52-6.28,23.38-7.97c17.93-3.85,36.8-3.75,54.67,0.39
			c14.56,3.38,29.44,9.84,37.91,22.78c1.46,2.22,4.62,0.3,3.52-2.06c-12.67-27.22-52.62-31.58-78.8-29.7
			c-8.48,0.61-16.93,2-25.15,4.21c-7.27,1.96-15.05,4.27-21.19,8.79c-11.4,8.4-13.63,23.86-8.34,36.4
			c5.24,12.42,20.51,26.88,35.23,24C137.96,107.96,138.01,107.09,137.52,106.8L137.52,106.8z"/>
	</g>
</g>
<g>
	<g>
		<path class="st0" d="M132.9,106.79c-2.49,3.23-2.93,7.69-4.12,11.53c-1.46,4.68-3.34,9.15-5.49,13.55
			c-1.54,3.16,2.33,6.55,5.02,3.87c6.92-6.87,14.27-13.35,21.44-19.97c-1.02,0.27-2.04,0.54-3.06,0.81
			c11.36,2.56,22.93,4.38,34.55,5.19c5.67,0.39,11.36,0.53,17.04,0.46c5.02-0.06,11.95,0.82,16.19-2.23c1.18-0.85,1.51-2.82,0-3.6
			c-3.34-1.73-6.85-1.14-10.51-1.01c-4.42,0.16-8.84,0.18-13.26,0.07c-8.68-0.21-17.38-0.86-25.98-2.04
			c-4.24-0.58-8.46-1.29-12.65-2.12c-4.11-0.81-5.15-1.38-8.2,1.37c-6.77,6.11-13.2,12.59-20.09,18.56
			c1.67,1.29,3.35,2.58,5.02,3.87c2.2-4.62,4.08-9.39,5.52-14.31c1.24-4.23,2.98-9.29,1.53-13.62
			C135.38,105.76,133.74,105.7,132.9,106.79L132.9,106.79z"/>
	</g>
</g>
<g>
	<g>
		<path class="st0" d="M155.32,52.47c0.59,2.94,4.16,3.51,6.68,4.29c5.05,1.58,10.24,2.71,15.43,3.69c4.58,0.87,9.17,1.65,13.8,2.21
			c4.3,0.53,9.12,1.62,13.09-0.46c1.43-0.75,1.1-2.58,0-3.4c-3.47-2.58-8.89-2.37-13.09-2.88c-5.91-0.72-11.78-1.54-17.65-2.52
			C172.03,53.15,154.74,49.57,155.32,52.47L155.32,52.47z"/>
	</g>
</g>
<g>
	<g>
		<path class="st0" d="M118.12,63.77c4.62,4,13.44,4.54,19.28,5.75c7.8,1.62,15.66,2.98,23.52,4.34c7.86,1.37,15.72,2.73,23.58,4.1
			c6.73,1.17,14.37,3.14,21.15,1.67c1.66-0.36,1.81-2.7,0.46-3.51c-6.27-3.78-14.58-4.25-21.68-5.37c-7.56-1.2-15.13-2.4-22.69-3.6
			c-7.18-1.14-14.37-2.25-21.58-3.21c-3.93-0.52-7.87-0.96-11.82-1.31c-3.36-0.3-6.81-1.04-9.99,0.24
			C118.02,63,117.78,63.47,118.12,63.77L118.12,63.77z"/>
	</g>
</g>
<g>
	<g>
		<path class="st0" d="M137.27,84.67c-0.01,0.23-0.03,0.46-0.04,0.69c-0.04,0.61,0.36,1.14,0.83,1.45
			c7.54,4.97,17.19,6.92,25.92,8.58c4.57,0.87,9.13,1.78,13.68,2.75c3.76,0.8,7.67,2.58,11.26,0.75c1.02-0.52,1.26-1.91,0.75-2.85
			c-2.24-4.11-8.44-4.61-12.63-5.46c-5.71-1.15-11.49-1.99-17.24-2.89c-5.43-0.85-10.88-1.77-16.23-3.03
			C143.19,84.58,137.41,82.47,137.27,84.67L137.27,84.67z"/>
	</g>
</g>
<g>
	<g>
		<path class="st0" d="M67.95,309.01c-11.1,13.08-31.45,0.26-37.76-11.2c-1.51-2.75-4.56-8.69-2.71-11.88
			c1.89-3.26,8.67-2.84,11.75-2.4c8,1.14,14.74,6.1,18.34,13.28c1.64-1.27,3.28-2.53,4.93-3.8c-3.74-3.24-4.88-8.19-6.42-12.72
			c-1.75-5.14-3.44-10.31-5.11-15.48c-1.57-4.87-3.1-9.75-4.63-14.63c-1.78-5.69-3.86-11.51-2.82-17.55
			c-0.98,0.75-1.96,1.49-2.94,2.24c37.32-1.65,74.71-5.36,111.19-13.64c3.78-0.86,2.14-6.39-1.58-5.74
			c-36.29,6.39-72.75,11.66-109.61,13.28c-1.23,0.05-2.71,0.9-2.94,2.24c-2.06,11.89,3.89,24.28,7.42,35.42
			c1.93,6.09,3.89,12.18,5.95,18.23c1.61,4.73,3.15,9.42,7.05,12.78c2.68,2.31,6.61-0.55,4.93-3.8
			c-5.01-9.68-15.2-15.98-26.11-16.23c-4.61-0.1-10.73,0.6-13.79,4.48c-3.25,4.13-1.97,9.89-0.27,14.38
			c3.95,10.44,12.52,18.75,23.08,22.37c8.52,2.92,21.24,1.6,23.94-8.54C70.1,309.08,68.7,308.12,67.95,309.01L67.95,309.01z"/>
	</g>
</g>
<g>
	<g>
		<path class="st0" d="M151.98,216.72c3.6,7.1,7.08,13.72,8.8,21.59c1.71,7.85,1.55,15.94-0.47,23.71c-0.38,1.46,0.26,3.03,1.55,3.8
			c12.07,7.26,21.68,18.83,25.8,32.39c4.09,13.46,3.53,33.69-6.43,44.72c-3.86,4.28-9.46,6.62-14.74,8.63
			c-7.68,2.92-15.73,4.72-23.93,5.26c-15.74,1.04-31.55-2.45-45.2-10.38c-13.72-7.97-24.64-19.83-31.76-33.97
			c-2.03-4.02-8.02-0.49-6.03,3.53c15.26,30.72,47.74,50.15,82.12,48.44c9.18-0.46,18.23-2.39,26.78-5.73
			c6.1-2.38,12.35-5.08,17.05-9.79c11.46-11.49,13.03-32.26,9.83-47.27c-3.72-17.47-14.73-32.61-30.09-41.65
			c0.52,1.27,1.03,2.54,1.55,3.8c4.1-16.42,1-37.74-13.38-48.53C152.51,214.59,151.55,215.87,151.98,216.72L151.98,216.72z"/>
	</g>
</g>
<g>
	<g>
		<path class="st0" d="M110.59,274.43c0.57,0.45,0.49,0.39-0.25-0.19c-0.11-0.04-0.21-0.1-0.31-0.16c-0.34-0.17-0.29-0.42,0.24,0.23
			c-0.24-0.29-0.31-0.46,0.14,0.28c-0.18-0.31-0.12-0.15,0.18,0.47c0.29,1.35-0.15,2.47-1.32,3.35c-1.63-0.43-3.26-0.86-4.89-1.28
			c0.25,0.48,0.61,0.91,1.02,1.26c0.28,0.23,0.61,0.42,0.88,0.67c-0.5-0.27-0.77-0.7-0.82-1.3c-0.24-1.04-0.37-1.3-0.41-0.79
			c0.17-0.63,0.34-1.26,0.51-1.88c0.35-0.35,0.71-0.7,1.06-1.05c0.64-0.17,1.28-0.35,1.92-0.52c0.27,0.03,0.54,0.07,0.81,0.1
			c0.56,0.33,1.12,0.65,1.68,0.98c-0.27-0.23-0.14-0.06,0.39,0.51c-0.88-1.79-3.56-2.42-5.19-1.36c-1.83,1.18-2.3,3.28-1.36,5.19
			c0.64,1.31,2.15,2.16,3.58,2.18c1.82,0.02,3.44-1.24,3.92-2.99c0.41-1.51-0.08-3.13-1.15-4.24c-0.34-0.35-0.75-0.65-1.15-0.93
			c-0.1-0.07-0.2-0.14-0.31-0.2c0.33,0.19,0.6,0.45,0.8,0.78c-1.02-1.73-3.17-2.17-4.89-1.28c-2.58,1.33-2.64,4.87-0.73,6.77
			c0.87,0.87,1.99,1.31,3.2,1.32c0.99,0,1.84-0.41,2.56-1.04c0.19-0.17,0.33-0.35,0.49-0.56c0.19-0.19,0.32-0.42,0.39-0.67
			c0.22-0.51,0.21-0.49-0.03,0.06C112.24,276.94,111.92,275.06,110.59,274.43L110.59,274.43z"/>
	</g>
</g>
<g>
	<g>
		<path class="st0" d="M157.93,265.24c-0.33-0.08-0.66-0.16-0.99-0.24c0.43,0.18,0.86,0.35,1.28,0.53
			c-0.19-0.24-0.51-0.42-0.78-0.57c-0.11-0.06-0.61-0.41-0.7-0.4c0.24,0.24,0.47,0.49,0.71,0.73c0.1,0.39,0.2,0.77,0.3,1.16
			c-0.03-0.1,0.02-0.24,0.02-0.34c0.01,1.53-1.52,2.3-2.96,2.03c-0.83-1.09-1.65-2.17-2.48-3.26c0.01,0.37,0.04,0.27,0.08-0.3
			c0.08-0.32,0.23-0.59,0.46-0.82c0.13-0.09,0.25-0.18,0.38-0.27c-0.31,0.18-0.6,0.4-0.87,0.64c0.68-0.6,0.24-0.23,0.03-0.1
			c0.19-0.12-1.62,1.28-0.47,0.4c-1.01,0.76-1.43,1.68-1.2,2.94c0.46,2.46,3.37,3.15,5.37,2.3c1.77-0.75,3.19-2.83,2.97-4.8
			c-0.16-1.33-0.93-3.03-2.48-3.26c-1.96-0.28-3.87,0.27-4.86,2.12c-0.87,1.61-0.82,3.51,0.32,4.98c1.2,1.55,3.45,2.11,5.17,1.07
			C158.57,269,159.77,266.26,157.93,265.24L157.93,265.24z"/>
	</g>
</g>
<g>
	<g>
		<path class="st0" d="M161.55,238.03c6.48-3.76,12.87-7.71,19.23-11.69c4.48-2.8,10.16-6.06,11.42-11.65
			c2.48-10.98-14.71-18.78-22.91-20.74c0.22,1.72,0.45,3.44,0.67,5.15c5.12-2.41,10.24-4.82,15.36-7.23
			c4.5-2.12,9.88-3.81,13.78-6.95c5.51-4.43,3.75-11.23-2.48-13.72c-3.9-1.56-8.54-1.48-12.66-1.58
			c-5.47-0.12-10.95,0.14-16.38,0.78c-11.18,1.32-22.02,4.18-32.41,8.51c0.77,1.82,1.54,3.64,2.3,5.46
			c4.94-3.09,9.88-6.19,14.81-9.28c2.92-1.83,7.33-3.72,8.28-7.44c2.11-8.22-9.22-8.62-14.26-7.96
			c-21.08,2.76-41.26,10.44-58.94,22.23c1.26,1.63,2.51,3.26,3.77,4.88c5.05-6.05,10.09-12.09,15.14-18.14
			c1.14-1.37,1.4-4.1-0.64-4.97c-13.18-5.62-31.3,2.53-42.75,9.31c-13.14,7.79-24.24,19-31.64,32.38c2.16,0.58,4.31,1.17,6.47,1.75
			c-0.09-5.06-0.53-12.57-4.71-16.13c-3.81-3.25-7.73-0.79-10.33,2.65c-6.6,8.72-8.82,20.7-9.53,31.39
			c-1.41,21.28,5.59,43.37,21.7,57.84c3.45,3.1,8.58-2,5.1-5.1c-11.07-9.89-17.48-23.57-19.33-38.22
			c-0.86-6.85-0.79-13.9,0.24-20.73c0.53-3.5,1.31-6.98,2.33-10.37c1.19-3.91,3.26-10.78,7.38-12.57c-0.9,0.12-1.79,0.23-2.69,0.35
			c2.78,0.46,2.86,9.09,2.9,10.9c0.07,3.35,4.76,4.84,6.47,1.75c6.5-11.81,15.6-21.85,27.02-29.09c5.66-3.59,11.73-6.5,18.11-8.56
			c6.47-2.08,14.28-4.53,20.83-1.77c-0.47-1.76-0.93-3.52-1.4-5.28c-5.02,6.07-10.04,12.14-15.06,18.21
			c-2.08,2.52,0.62,7.01,3.77,4.88c12.92-8.7,27.12-15.17,42.24-18.96c2.64-0.66,20.17-5.51,21.22-2.24
			c0.47,1.46-6.82,5.16-8.59,6.27c-3.64,2.28-7.28,4.56-10.91,6.84c-2.72,1.71-0.96,6.82,2.3,5.46c14.97-6.23,30.97-9.48,47.2-9.1
			c2.98,0.07,7.28-0.41,9.96,0.96c5.87,3-2.12,5.81-4.72,7.06c-7.36,3.54-14.72,7.08-22.08,10.62c-2.18,1.05-1.6,4.63,0.67,5.15
			c4.52,1.04,8.78,2.73,12.6,5.39c1.97,1.37,4.83,3.44,6.03,5.59c2.04,3.66-0.42,6.17-2.99,8.31c-7.44,6.19-15.68,11.5-23.29,17.5
			C159.07,237.02,160.43,238.68,161.55,238.03L161.55,238.03z"/>
	</g>
</g>
<g>
	<g>
		<path class="st0" d="M40.54,295.07c0.5-0.73,5.05,2.17,5.51,2.53c1.74,1.36,3.1,3.17,3.89,5.23c1.25-1.25,2.5-2.5,3.75-3.75
			c-3.14-0.57-6.3-0.99-8.88,1.12c-1.63,1.33-0.52,3.77,1.15,4.35c1.99,0.69,4.03,0.08,6.11,0.41c2.73,0.43,4.58-1.95,3.44-4.48
			c-1.87-4.16-5.43-7.59-9.71-9.22c-3.21-1.22-9.72-1.93-8.83,3.34C37.27,296.41,39.68,296.31,40.54,295.07L40.54,295.07z"/>
	</g>
</g>
<g>
	<g>
		<path class="st0" d="M83.23,456.34c4.26,1.79,9.41,0.94,13.94,0.85c5.19-0.1,10.39-0.07,15.58-0.01c1.6,0.02,3.35-1.48,3.18-3.18
			c-1.14-11.58-2.25-23.16-3.24-34.76c-0.95-11.09-0.9-22.69-2.89-33.64c-0.61-3.34-5.59-2.37-5.71,0.77
			c-0.44,11.12,1.44,22.74,2.37,33.84c0.95,11.27,1.96,22.54,3.09,33.79c1.06-1.06,2.12-2.12,3.18-3.18
			c-5.53-0.04-11.03,0.13-16.55,0.5c-4.37,0.3-9.5,0.27-13.27,2.71C81.94,454.67,82.24,455.93,83.23,456.34L83.23,456.34z"/>
	</g>
</g>
<g>
	<g>
		<path class="st0" d="M84.62,383.21c5.87,3.82,14.73,3.26,21.48,3.49c8.03,0.27,16.05,0.21,24.08-0.14
			c15.88-0.7,32.21-1.84,47.75-5.36c3.38-0.77,2.73-6.56-0.83-6.17c-15.99,1.75-31.78,4.15-47.87,4.9
			c-7.7,0.36-15.41,0.54-23.12,0.56c-6.85,0.02-15.15-1.32-21.48,1.67C84.18,382.37,84.26,382.99,84.62,383.21L84.62,383.21z"/>
	</g>
</g>
<g>
	<g>
		<path class="st0" d="M120.88,384.07c-1.85,4.47,4.25,10.71,7.09,13.72c4.02,4.25,9.37,7.57,15.43,6.96
			c11.03-1.1,18.08-19.07,11.55-27.76c-1.37-1.83-4.18-0.79-3.73,1.57c1.02,5.32,0.77,9.68-1.61,14.62
			c-2.48,5.13-6.91,7.46-12.38,4.77c-3.43-1.69-6.14-4.69-8.64-7.5c-2.06-2.32-3.91-6.19-7.19-6.67
			C121.15,383.74,120.98,383.84,120.88,384.07L120.88,384.07z"/>
	</g>
</g>
<g>
	<g>
		<path class="st0" d="M100.26,444.54c-3.15-0.15-6.01-0.93-7.8-3.78c-0.69-1.1-1.66-3.03-0.82-4.21c0.97-1.36,3.2-0.27,4.52,0.33
			c1.14,0.53,2.23,1.17,3.27,1.87c0.59,0.4,1.7,0.98,2.11,1.59c0.64,0.97,0.48,1.21-0.32,1.82c-2.46,1.9-6.37,0.86-9.01,2.41
			c-0.9,0.53-0.86,1.81,0,2.35c2.71,1.69,6.6,0.6,9.42-0.4c2.39-0.84,5.13-1.98,5.26-4.88c0.26-5.65-8.46-10.18-13.16-10.81
			c-6.67-0.88-8.91,5.62-6.43,10.87c2.21,4.71,9.16,9.31,13.64,4.47C101.51,445.56,101.1,444.58,100.26,444.54L100.26,444.54z"/>
	</g>
</g>
<g>
	<g>
		<path class="st0" d="M162.87,381.38c1.01,6.18-0.29,12.45-0.67,18.64c-0.37,6.14-0.36,12.28-0.07,18.42
			c0.58,12.18,2.34,24.38,5.49,36.16c0.38,1.42,1.83,2.1,3.2,1.82c9.05-1.86,18.42-2.38,27.64-2.49c1.72-0.02,3.41-1.83,2.75-3.61
			c-4.37-11.88-7.77-24.09-10.03-36.55c-1.99-10.94-1.32-23.52-6.66-33.53c-1.82-3.41-7-0.38-5.18,3.03
			c2.91,5.45,3.21,11.54,3.94,17.56c0.66,5.47,1.5,10.92,2.56,16.33c2.31,11.82,5.66,23.39,9.87,34.68c0.92-1.2,1.83-2.41,2.75-3.61
			c-9.83,0.18-19.35,1.57-29.02,3.19c1.07,0.61,2.13,1.21,3.2,1.82c-2.52-13.11-4.52-26.28-5.21-39.63
			c-0.54-10.48,1.65-23.13-3.27-32.76C163.77,380.07,162.75,380.64,162.87,381.38L162.87,381.38z"/>
	</g>
</g>
<g>
	<g>
		<path class="st0" d="M184.19,438.98c-2.34-0.4-4.77-0.26-6.81-1.7c-2.46-1.74-2.7-5.13-0.68-7.35c2.69-2.96,6.32-0.18,6.73,3.07
			c0.46,3.6-2.67,5.06-5.32,6.51c-1.14,0.62-0.93,2.54,0.37,2.83c5.78,1.3,10.21-5.19,9.57-10.44c-0.73-5.97-6.99-10.59-12.7-7.46
			c-4.95,2.71-6.84,9.58-3.74,14.35c2.41,3.7,10.66,6.58,12.97,1.19C184.75,439.62,184.67,439.07,184.19,438.98L184.19,438.98z"/>
	</g>
</g>
<g>
	<g>
		<path class="st0" d="M111.65,415.95c2.79,3.49,7.75,4.46,11.89,5.52c4.94,1.26,9.96,2.07,15.03,2.5
			c5.15,0.44,10.31,0.48,15.46,0.05c4.72-0.39,10.49-0.5,14.47-3.24c1.24-0.85,1.32-3.23-0.46-3.56c-4.32-0.78-8.77,0.6-13.1,1
			c-5.13,0.48-10.32,0.61-15.46,0.36c-5.22-0.25-10.45-0.88-15.58-1.86c-3.96-0.76-8.05-2.38-12.08-1.44
			C111.51,415.36,111.48,415.73,111.65,415.95L111.65,415.95z"/>
	</g>
</g>
<g>
	<g>
		<path class="st0" d="M72.34,511.57c-1.77,11.54-1.87,23.22-1.71,34.87c0.08,5.92,0.38,11.83,0.79,17.73
			c0.37,5.22,0.32,11.05,2.94,15.7c0.82,1.46,3.07,1.11,3.51-0.46c1.4-4.91,0.22-10.24-0.26-15.24c-0.57-5.9-1-11.82-1.39-17.73
			c-0.75-11.51-0.67-23.04-1.41-34.54C74.74,510.58,72.57,510.07,72.34,511.57L72.34,511.57z"/>
	</g>
</g>
<g>
	<g>
		<path class="st0" d="M112.54,553.34c9.46,7.14,22.4,1.71,32.82,4.27c2.67,0.66,4.87-2.73,2.76-4.74
			c-3.89-3.7-9.04-2.26-13.84-1.66c-3.48,0.43-6.95,0.5-10.45,0.38c-3.54-0.12-7.17-0.97-10.68-0.53
			C111.93,551.23,111.54,552.59,112.54,553.34L112.54,553.34z"/>
	</g>
</g>
<g>
	<g>
		<path class="st0" d="M131.71,556.36c-1.68,1.44-1.52,4.26-1.63,6.32c-0.16,2.97-0.47,5.95,0.08,8.88
			c0.57,3.08,4.86,2.02,5.11-0.69c0.27-2.89-0.42-5.92-0.83-8.78c-0.29-2.04-0.4-4.53-2.18-5.8
			C132.08,556.17,131.85,556.23,131.71,556.36L131.71,556.36z"/>
	</g>
</g>
<g>
	<g>
		<path class="st0" d="M182.01,451.94c-1.38,2.08-1.04,3.98-1.04,6.5c-0.01,3.43,0.02,6.86,0.01,10.29
			c-0.02,5.98-0.06,12.15,2.78,17.56c0.85,1.62,3.28,0.8,3.32-0.9c0.15-6.75-0.78-13.67-1.24-20.41c-0.28-4.11,0.01-10.52-3.7-13.07
			C182.09,451.88,182.03,451.9,182.01,451.94L182.01,451.94z"/>
	</g>
</g>
<g>
	<g>
		<path class="st0" d="M181.62,525.81c-2.39,3.24-2.07,7.94-2.26,11.82c-0.22,4.81-0.24,9.62-0.14,14.43
			c0.1,4.81,0.28,9.61,0.62,14.41c0.31,4.29,0.23,8.82,2.24,12.69c0.95,1.81,3.83,1.36,4.33-0.57c1.16-4.51-0.06-9.45-0.47-14.04
			c-0.41-4.48-0.77-8.96-1.03-13.45c-0.25-4.49-0.43-8.98-0.6-13.47c-0.15-3.88,0.39-8.44-1.77-11.82
			C182.32,525.45,181.86,525.49,181.62,525.81L181.62,525.81z"/>
	</g>
</g>
<g>
	<g>
		<path class="st0" d="M258.85,403.68c-2.04,3.42-1.87,7.32-4.71,10.55c-3.58,4.06-8.89,5.53-14.1,4.31c-1.47-0.35-3.15,0.45-3.53,2
			c-4,16.33-4.62,35.02-12.72,50.06c-3.69,6.86-9.81,12.56-17.95,12.91c-8.63,0.37-15.19-4.6-22.85-7.51
			c-2.41-0.91-3.99,2.47-2.39,4.11c5.87,6.05,16.05,9.89,24.42,9.87c8.53-0.02,15.88-4.35,21.02-10.98
			c5.6-7.21,7.99-16.23,10.1-24.95c2.59-10.7,5.26-21.74,5.99-32.75c-1.21,0.92-2.42,1.84-3.63,2.76c6.92,1.59,14.17,0.02,18.96-5.5
			c3.14-3.63,6.11-10.81,2.82-15.07C259.91,403.02,259.12,403.23,258.85,403.68L258.85,403.68z"/>
	</g>
</g>
<g>
	<g>
		<path class="st0" d="M401.27,278.67c3.51,10.69,17.07,17.13,27.13,19.89c11.83,3.25,25.04,3.09,36.47-1.6
			c-1.36-1.03-2.72-2.07-4.07-3.1c0.07,3.9,0.01,8-1.26,11.73c-1.79,5.29-6.06,7.42-11.25,8.49c-4.75,0.98-10,1.39-14.66-0.21
			c-4.46-1.53-6.35-4.76-9.58-7.79c-1.53-1.43-4.22-0.44-4.2,1.74c0.04,5.6,5.31,9.71,10.07,11.73c6.1,2.58,12.95,2.27,19.34,1
			c5.81-1.15,11.33-3.53,14.51-8.79c3.23-5.35,3.29-11.86,3.47-17.9c0.06-1.98-2.12-3.8-4.07-3.1c-10.56,3.75-21.45,4.62-32.37,1.78
			c-5.23-1.36-10.27-3.39-14.92-6.15c-4.57-2.71-8.66-6.3-13.44-8.62C401.86,277.49,401.04,277.96,401.27,278.67L401.27,278.67z"/>
	</g>
</g>
<g>
	<g>
		<path class="st0" d="M395.56,411.13c-0.15,3.9,3.34,7.26,5.86,9.87c3.35,3.47,7.31,6.47,11.46,8.93
			c8.46,5.01,18.13,7.68,27.95,7.61c3.65-0.03,3.58-5.38,0-5.62c-9.04-0.63-17.74-3-25.71-7.34c-3.87-2.11-7.44-4.69-10.77-7.58
			c-2.54-2.21-4.77-5.46-8.11-6.38C395.9,410.52,395.58,410.79,395.56,411.13L395.56,411.13z"/>
	</g>
</g>
<g>
	<g>
		<path class="st0" d="M371.41,338.72c-9.84,8.2-19.26,17.05-28.59,25.85c-4.75,4.48-9.5,8.96-14.24,13.44
			c-4.8,4.53-10.65,8.9-14.25,14.47c-1.59,2.46,1.53,5.38,3.94,3.94c5.71-3.39,10.28-9.1,15-13.72
			c5.12-5.03,10.25-10.05,15.37-15.09c8.5-8.37,19.23-17.07,23.25-28.62C371.98,338.7,371.61,338.56,371.41,338.72L371.41,338.72z"
			/>
	</g>
</g>
<g>
	<g>
		<path class="st0" d="M322.2,407.61c-2.96,5.54-1.04,13.93-0.16,19.84c1.2,8.03,3.17,15.85,6.3,23.36
			c5.28,12.7,16,28.62,31.76,26.76c2.78-0.33,2.76-3.97,0-4.31c-14.61-1.82-23.4-16.95-27.77-29.56c-2.09-6.01-3.63-12.25-4.81-18.5
			c-1.02-5.43-0.92-12.93-4.14-17.57C323.1,407.22,322.46,407.13,322.2,407.61L322.2,407.61z"/>
	</g>
</g>
<g>
	<g>
		<path class="st0" d="M326.25,419.66c3.81-0.17,6.95-3.21,9.84-5.49c3.38-2.66,6.68-5.44,9.92-8.26c7.35-6.41,14.52-12.98,21-20.29
			c2.1-2.37-1.06-5.47-3.45-3.45c-7.21,6.09-13.97,12.64-20.88,19.07c-3.21,2.99-6.45,5.97-9.61,9.01c-2.68,2.58-6.29,5.28-7.1,9.04
			C325.94,419.48,326.05,419.67,326.25,419.66L326.25,419.66z"/>
	</g>
</g>
<g>
	<g>
		<path class="st0" d="M335.85,377.24c1.89,4.43,4.34,8.76,6.49,13.07c2.02,4.04,4.52,8.02,9.04,9.4c1.98,0.61,4.12-1.87,2.83-3.68
			c-2.81-3.97-5.59-7.72-8.02-11.97c-2.08-3.63-4.54-7.63-8.79-8.86C336.14,374.85,335.4,376.2,335.85,377.24L335.85,377.24z"/>
	</g>
</g>
<g>
	<g>
		<path class="st0" d="M354.18,484.56c-3.03,2.76-4.74,6.56-6.99,9.94c-2.69,4.05-5.75,7.78-9.28,11.13
			c-0.65,0.61-5.02,4.99-5.63,4.69c-1.26-0.61,2.13-5.13,2.5-5.73c3.09-5.07,6.18-10.14,9.27-15.21c1.75-2.87-2.55-5.23-4.43-2.59
			c-1.15,1.6-15.11-9.39-5.79-13.52c1.99-0.88,1.43-4.21-0.61-4.64c-5.59-1.18-8.88-7.01-11.93-11.41
			c-2.8-4.05-5.42-8.23-7.81-12.54c-4.95-8.9-8.77-18.48-10.98-28.43c-0.32-1.46-2.39-1.02-2.49,0.34
			c-0.85,11.59,4.84,22.85,10.43,32.66c2.97,5.21,6.25,10.25,9.81,15.07c3.08,4.17,6.32,8.06,11.61,9.22
			c-0.2-1.55-0.4-3.1-0.61-4.64c-15.57,6.79,4.99,31.47,12.79,20.49c-1.48-0.86-2.96-1.73-4.43-2.59c-2.39,3.95-4.78,7.9-7.17,11.85
			c-1.86,3.07-4.59,6.36-5.61,9.87c-1.2,4.11,1.91,8.6,6.38,7.09c5.64-1.9,11.22-8.98,14.68-13.5c3.6-4.69,7.96-10.84,7.48-17.05
			C355.33,484.45,354.64,484.13,354.18,484.56L354.18,484.56z"/>
	</g>
</g>
<g>
	<g>
		<path class="st0" d="M181.06,380.14c2.14,3.9,9.72,3.88,13.54,4.6c-0.71-1.25-1.41-2.49-2.12-3.74
			c-2.74,15.22-4.82,31.45-2.89,46.86c0.34,2.71,3.88,2.71,4.22,0c1.9-15.05,2.37-30.2,4.53-45.25c0.29-2-0.77-3.74-2.93-3.85
			c-3.98-0.19-11.32-2.01-14.35,1.33C181.05,380.12,181.05,380.13,181.06,380.14L181.06,380.14z"/>
	</g>
</g>
<g>
	<g>
		<path class="st0" d="M122.5,444.5c0.43,5.92,10.58,9.85,15.62,10.11c6.38,0.33,14.85-3.1,16.37-9.94
			c0.33-1.49-1.24-2.88-2.65-2.04c-5.15,3.07-9.25,7.01-15.8,6c-4.37-0.68-8.99-5.36-13.31-4.43
			C122.6,444.23,122.49,444.38,122.5,444.5L122.5,444.5z"/>
	</g>
</g>
<g>
	<g>
		<path class="st0" d="M502.26,264.36c-29.95,26.41-79.77,24.09-105.39-7.69c-0.63-0.78-2,0.26-1.4,1.08
			c11.99,16.34,31.38,25.67,51.36,27.39c19.61,1.69,43.02-4.51,55.64-20.58C502.57,264.42,502.4,264.24,502.26,264.36L502.26,264.36
			z"/>
	</g>
</g>
<g>
	<g>
		<path class="st0" d="M95.57,305.89c18.14,18.29,47.03,16.6,70.71,17.07c-0.51-1.87-1.01-3.74-1.52-5.62
			c-5.84,2.79-7.68,9.36-11.85,13.87c-4.9,5.31-11.8,8.84-19.07,9.14c-7.58,0.31-15.42-2.81-20.37-8.65
			c-5.89-6.94-5.6-14.68-4.34-23.11c0.39-2.58-2.93-4.42-4.46-1.88c-4.29,7.14-2.7,17.18,1.04,24.22
			c4.12,7.74,11.9,13.15,20.43,14.9c8.15,1.67,16.66,0.07,23.73-4.3c3.63-2.25,6.84-5.16,9.45-8.54c2.7-3.51,4.33-8.38,8.47-10.44
			c2.73-1.36,1.35-5.64-1.52-5.62c-11.64,0.1-23.38,0.56-34.97-0.77c-12.61-1.45-23.66-5.57-34.84-11.44
			C95.74,304.32,94.95,305.27,95.57,305.89L95.57,305.89z"/>
	</g>
</g>
<g>
	<g>
		<path class="st0" d="M84.7,262.38c1.69-0.23,2.71-1.55,4.16-2.37c2.39-1.36,5.19-2.24,7.76-3.17c5.51-1.98,11.18-3.43,16.71-5.33
			c2.68-0.92,2.48-5.68-0.72-5.29c-4.18,0.5-34.69,7.54-28.89,15.77C83.97,262.34,84.28,262.44,84.7,262.38L84.7,262.38z"/>
	</g>
</g>
<g>
	<g>
		<path class="st0" d="M140.6,248.27c2.94-0.83,5.55-2.16,8.65-2.48c3.58-0.37,7.28-0.2,10.87-0.04c8.26,0.37,16.32,1.81,24.42,3.38
			c2.96,0.57,4.02-3.42,1.23-4.47c-9-3.43-18.87-4.68-28.47-4.24c-5.61,0.26-14.93,0.64-17.68,6.59
			C139.31,247.65,139.81,248.49,140.6,248.27L140.6,248.27z"/>
	</g>
</g>
</svg>
