<?xml version="1.0" encoding="utf-8"?>
<!-- Generator: Adobe Illustrator 23.0.1, SVG Export Plug-In . SVG Version: 6.00 Build 0)  -->
<svg version="1.1" id="Laag_1" xmlns="http://www.w3.org/2000/svg" xmlns:xlink="http://www.w3.org/1999/xlink" x="0px" y="0px"
	 viewBox="0 0 566.93 566.93" style="enable-background:new 0 0 566.93 566.93;" xml:space="preserve">
<style type="text/css">
	.st0{fill:#1E1E1C;}
</style>
<g>
	<g>
		<path class="st0" d="M144.52,181.53c7.28,4.23,14.02,8.2,22.09,10.8c7.7,2.48,15.63,4.05,23.66,4.95
			c16.69,1.88,34.15,1.52,50.65-1.71c15.55-3.05,29.88-10.43,40.31-22.53c9.76-11.33,16.86-26.22,9.92-40.79
			c-6.89-14.49-22.8-20.92-37.81-22.98c-14.61-2-32.72-1.49-45.16,7.56c-12.2,8.88-13.04,25.28-5.4,37.54
			c8.12,13.04,23.62,19.38,38.65,17.6c6.8-0.81,14.2-3.16,18.49-8.85c4.35-5.76,3.41-13.4-1.71-18.37
			c-5.39-5.24-14.79-5.98-21.43-2.74c-5.24,2.56-7.5,11.16-0.19,12.66c3.84,0.79,5.46-4.81,1.63-5.92c-0.17-0.05,5.99-2.08,6.5-2.11
			c1.35-0.08,2.8,0.01,4.1,0.33c3.25,0.8,6.43,3.25,7.01,6.74c0.98,5.89-5.98,9.05-10.58,10.19c-11.42,2.84-24.32-0.01-32.56-8.63
			c-7.78-8.14-11.42-22.44-2.24-30.99c8.06-7.5,20.97-8.78,31.43-8.71c11.97,0.08,25.4,2.32,34.96,10.09
			c10.13,8.23,12.29,20.37,6.24,31.76c-5.13,9.67-13.24,17.77-22.71,23.21c-10.58,6.08-22.65,8.2-34.65,9.34
			c-13.49,1.28-27.09,1.28-40.53-0.48c-13.05-1.7-27.53-4.42-39.58-9.86C144.36,179.06,143.27,180.8,144.52,181.53L144.52,181.53z"
			/>
	</g>
</g>
<g>
	<g>
		<path class="st0" d="M141.94,181.36c-1.83,7.47,0.39,16.39,0.66,24.02c0.32,8.86-0.16,17.64-2.3,26.26c2.23,0,4.46,0,6.69,0
			c-2.18-8.13-14.39-15.42-22.48-11.59c-7.26,3.43-9.54,15.24-9.08,22.45c0.49,7.64,4.7,13.87,11.73,16.97
			c7.57,3.34,20.42,4.22,24.78-4.6c1.18-2.38-1.39-5.76-3.98-3.98c-5.31,3.67-9.98,4.83-16.31,2.78c-4.37-1.41-7.83-4.29-8.96-8.87
			c-1.1-4.45-0.16-9.55,1.41-13.78c0.46-1.24,1.15-3.12,2.2-4.03c1.91-1.67,4.36-0.86,6.54-0.12c3.24,1.11,6.54,3.17,7.46,6.61
			c0.88,3.26,5.86,3.35,6.69,0c2.21-8.93,2.79-17.99,2.17-27.16c-0.54-7.92-0.88-18.32-4.91-25.27
			C143.72,180.13,142.2,180.29,141.94,181.36L141.94,181.36z"/>
	</g>
</g>
<g>
	<g>
		<path class="st0" d="M129.34,233.73c-0.18,1.86,2.1,3.37,3.22,4.57c1.7,1.82,3.01,4.02,4.07,6.26c0.94-1.22,1.88-2.45,2.82-3.67
			c-3.35-0.79-6.34-2.56-9.7-0.69c-2.77,1.55-4.15,5.16-1.18,7.24c0.94,0.66,2.5,0.21,3.01-0.79c0.55-1.07,0.52-2.06,1.88-2.13
			c1.46-0.07,3.24,0.87,4.65,1.19c2.22,0.5,3.77-1.7,2.82-3.67c-1.45-3.03-3.58-5.64-6.32-7.61
			C133.87,233.88,129.56,231.39,129.34,233.73L129.34,233.73z"/>
	</g>
</g>
<g>
	<g>
		<path class="st0" d="M259.67,185.12c-2.27,19.37,5,39.76,12.68,57.21c4.08,9.27,8.96,18.21,14.21,26.86
			c2.03,3.34,7.64,9.15,7.09,13.22c-0.54,4.02-5.04,8.87-7.26,12.18c-11.65,17.32-27.49,31.88-45.73,42.02
			c-2.9,1.61-5.46,3.4-8.98,2.66c-2.11-0.44-4.28-1.57-6.26-2.4c-4.9-2.04-9.67-4.39-14.31-6.96c-9.08-5.02-17.66-10.92-25.64-17.55
			c-8.89-7.38-17.5-15.54-24.36-24.87c-6.97-9.48-11.04-19.84-15.92-30.41c-1.56-3.37-6.37-0.87-5.7,2.4
			c4.4,21.53,21.22,40.46,37.24,54.48c8.24,7.21,17.1,13.78,26.53,19.37c4.34,2.57,8.8,4.95,13.37,7.09
			c4.78,2.24,10.45,5.44,15.75,5.97c4.56,0.46,8.58-2.09,12.4-4.26c5.09-2.88,9.99-6.1,14.67-9.62c8.63-6.49,16.51-13.89,23.42-22.2
			c3.69-4.43,7.11-9.08,10.25-13.91c2.51-3.86,5.89-7.66,7.05-12.2c1.13-4.45-0.85-7.55-3.19-11.15c-3.13-4.82-6.12-9.75-9.04-14.7
			c-6.63-11.22-12.81-22.87-17.47-35.06c-4.77-12.48-7.08-25.3-9.74-38.32C260.6,184.33,259.74,184.56,259.67,185.12L259.67,185.12z
			"/>
	</g>
</g>
<g>
	<g>
		<path class="st0" d="M201.34,142.5c-12.47-5.35-27.35-3.39-40.33-1c-12.61,2.32-25.22,7.12-34.4,16.37
			c-19.02,19.18-20.32,49.54-10.58,73.53c1.47,3.62,7.35,2.21,6.01-1.66c-7.85-22.64-9.28-49.24,8.81-67.63
			c17.68-17.97,46.66-17.72,69.95-17.65C201.78,144.46,202.35,142.93,201.34,142.5L201.34,142.5z"/>
	</g>
</g>
<g>
	<g>
		<path class="st0" d="M275,275.17c-2.97,3.03-4.43,7.59-6.74,11.15c-2.76,4.26-6.23,8.08-10.11,11.34
			c-8.66,7.26-19.93,11.16-31.21,9.47c-10.4-1.55-20.01-7.34-25.82-16.17c-2.77-4.21-4.71-8.91-5.75-13.84
			c-1.13-5.41-0.3-10.31-0.36-15.71c-0.04-2.85-3.81-3.11-4.74-0.64c-3.95,10.4,0.58,24.82,6.59,33.56
			c6.71,9.76,17.32,16.26,29.01,18.04c12.36,1.88,24.51-1.99,34.29-9.61c7.13-5.56,17.98-17.19,16.56-27.13
			C276.61,274.83,275.5,274.67,275,275.17L275,275.17z"/>
	</g>
</g>
<g>
	<g>
		<path class="st0" d="M273.14,214.73c0.03-0.09,0.06-0.19,0.09-0.28c0.24-0.79-0.15-1.82-0.9-2.21
			c-6.41-3.35-13.38-5.73-20.49-7.07c-6.59-1.24-13.88-2.41-20.44-0.56c-1.5,0.42-1.62,2.81,0,3.16c6.54,1.44,13.37,1.16,19.97,2.43
			c6.68,1.29,13.07,3.29,19.45,5.62c0.84,0.31,1.76-0.22,2.21-0.9C273.07,214.86,273.11,214.8,273.14,214.73L273.14,214.73z"/>
	</g>
</g>
<g>
	<g>
		<path class="st0" d="M214.55,209.88c-5.41-5.22-15.02-2.69-21.09-0.01c-8.35,3.68-18.01,9.63-24.16,16.41
			c-1.03,1.14-0.04,3.47,1.64,2.82c7.21-2.78,13.08-8.15,19.62-12.15c3.29-2.01,6.75-3.8,10.48-4.86c4.44-1.25,8.63-0.63,13.1-1.21
			C214.6,210.82,214.95,210.27,214.55,209.88L214.55,209.88z"/>
	</g>
</g>
<g>
	<g>
		<path class="st0" d="M213.65,237.8c0.53-1,0.85-2.17,0.51-3.3c-0.4-1.31-1.28-2.17-2.55-2.62c-0.98-0.34-2.51,0-3.17,0.84
			c-0.54,0.69-0.96,1.38-0.96,2.29c0.04,0.28,0.08,0.57,0.11,0.85c-0.03-0.2-0.05-0.4-0.08-0.59c0.04,0.39,0.09,0.71,0.24,1.07
			c0.41,0.97,1.41,1.71,2.5,1.66c1.63-0.08,2.7-1.49,2.35-3.09c0.03,0.18,0.05,0.36,0.08,0.54c-0.12,0.43-0.23,0.85-0.35,1.28
			c-0.47,0.36-0.94,0.73-1.4,1.09c-1.02-0.41-2.04-0.83-3.05-1.24c0.01,0.02,0.02,0.03,0.03,0.05c-0.11-0.25-0.21-0.51-0.32-0.76
			c0.32,0.77,0.76,1.66,1.58,2.01c-0.22-0.17-0.44-0.34-0.66-0.51c0.02,0.02,0.04,0.03,0.06,0.05c-0.17-0.22-0.34-0.44-0.51-0.66
			c0.02,0.02,0.03,0.05,0.05,0.07c-0.11-0.26-0.22-0.52-0.33-0.78c0.04,0.08,0.07,0.17,0.07,0.27c-0.04-0.29-0.08-0.58-0.12-0.87
			c0,0.05,0,0.09-0.01,0.14c0.04-0.29,0.08-0.58,0.12-0.87c-0.01,0.1-0.04,0.19-0.08,0.28c0.11-0.26,0.22-0.52,0.33-0.79
			c-0.04,0.09-0.09,0.18-0.15,0.27c-0.91,1.47-0.36,3.7,1.18,4.52C210.66,239.79,212.79,239.43,213.65,237.8L213.65,237.8z"/>
	</g>
</g>
<g>
	<g>
		<path class="st0" d="M255.84,233.81c0.93-1.31,0.65-3.08-0.12-4.39c-0.4-0.68-1.01-1.18-1.74-1.49c-0.7-0.3-1.62-0.45-2.37-0.18
			c-0.41,0.15-0.81,0.29-1.22,0.44c-0.89,0.32-1.65,0.81-2.14,1.65c-0.45,0.77-0.64,1.9-0.36,2.76c0.6,1.85,2.47,3.04,4.41,2.5
			c0.42-0.11,0.83-0.23,1.25-0.34c-1.37-0.56-2.74-1.11-4.1-1.67c0.02,0.04,0.04,0.08,0.06,0.12c-0.12-0.29-0.24-0.58-0.37-0.87
			c0.21,0.49,0.37,0.98,0.61,1.46c0.53,1.1,1.88,1.75,3.05,1.75C254.12,235.56,255.1,234.85,255.84,233.81L255.84,233.81z"/>
	</g>
</g>
<g>
	<g>
		<path class="st0" d="M232.37,236.79c3.15,2.72,6.69,4.87,9.58,7.92c2.3,2.43,4.12,5.29,1.09,8.12c-1.5,1.4-4.85,1.83-6.76,1.67
			c-5.95-0.49-7.76-6.67-6.33-11.64c1.06-3.68,4.38-6.42,3.07-10.42c-0.5-1.52-2.67-1.96-3.51-0.46c-3.36,5.97-6.95,12.5-4.22,19.46
			c2.39,6.11,8.61,8.73,14.84,7.55c5.46-1.03,11.22-5.12,9.32-11.37c-1.91-6.27-9.76-11.74-16-12.66
			C232.48,234.8,231.44,235.98,232.37,236.79L232.37,236.79z"/>
	</g>
</g>
<g>
	<g>
		<path class="st0" d="M178.13,381.72c1.07,16.14,7.46,31.89,12.27,47.18c5.12,16.26,10.18,32.64,12.39,49.59
			c0.85-1.12,1.71-2.24,2.56-3.36c-5.08,1.41-10.16,2.83-15.24,4.23c-0.59,0.16-7.63,2.09-7.62,2.11c1.97,1.71,2.45,1.4,1.45-0.92
			c-0.27-1.3-0.55-2.61-0.82-3.91c-2.2-10.43-4.39-20.86-6.59-31.3c-4.37-20.76-7.73-42.09-13.36-62.54
			c-1.14-4.15-6.88-2.3-6.28,1.73c1.74,11.83,4.76,23.56,7.22,35.26c2.53,12.06,5.07,24.13,7.6,36.19
			c1.23,5.87,2.47,11.74,3.7,17.61c0.81,3.84,0.76,10.28,3.55,13.29c2.7,2.92,6.97,0.84,10.14-0.04c6.03-1.66,12.07-3.31,18.11-4.98
			c1.98-0.55,2.71-2.42,2.44-4.29c-2.49-16.93-7.54-33.28-13.31-49.35c-5.59-15.56-10.43-31.67-17.07-46.81
			C179.02,380.86,178.09,381.14,178.13,381.72L178.13,381.72z"/>
	</g>
</g>
<g>
	<g>
		<path class="st0" d="M188.38,475.31c4,3.43,9.13-2.7,9.65-6.35c0.83-5.8-4.03-11.26-9.86-8.13c-4.64,2.49-6.53,9.25-3.4,13.6
			c2.94,4.09,9.24,4.14,12-0.11c1.42-2.19-1.66-4.27-3.46-2.67c-1.06,0.94-3.1,0.52-3.96-0.53c-1.32-1.6-0.18-4.31,1.23-5.42
			c2.88-2.26,3.39,2.82,2.5,4.64c-1.03,2.1-3.19,2.54-4.7,4.06C188.16,474.64,188.12,475.09,188.38,475.31L188.38,475.31z"/>
	</g>
</g>
<g>
	<g>
		<path class="st0" d="M283.18,352.81c-4.49-0.85-9.27,1.73-13.41,3.21c-5.39,1.92-10.8,3.75-16.31,5.28
			c-11.1,3.09-22.46,5.23-33.82,7.09c-22.88,3.75-46.45,5.13-69,10.69c-4.33,1.07-2.42,7.23,1.81,6.55
			c23.27-3.72,46.68-6.7,69.92-10.59c11.37-1.9,22.62-4.36,33.63-7.79c5.16-1.61,10.3-3.38,15.24-5.56
			c4.25-1.88,10.01-3.99,12.13-8.43C283.44,353.09,283.39,352.85,283.18,352.81L283.18,352.81z"/>
	</g>
</g>
<g>
	<g>
		<path class="st0" d="M274.47,357.16c0.2,7.79,3.02,15.67,5.22,23.08c2.42,8.16,4.89,16.31,7.4,24.44
			c5.03,16.27,10.04,32.55,15.12,48.8c0.74-1.31,1.48-2.62,2.23-3.92c-8.68,2-17.5,3.74-25.95,6.59c1.24,0.71,2.49,1.41,3.73,2.12
			c-2.54-16.21-4.21-32.42-8.36-48.35c-4.02-15.43-8.62-30.15-9.86-46.14c-0.28-3.6-5.57-3.69-5.67,0
			c-0.42,15.34,5.18,30.47,9.11,45.08c4.41,16.36,7.17,33.35,8.82,50.21c0.2,2.01,1.77,3.38,3.84,2.92
			c8.72-1.93,17.27-4.5,26.03-6.28c1.65-0.34,2.71-2.36,2.23-3.92c-5.02-16.27-10.11-32.53-15.18-48.79
			c-2.54-8.13-5.12-16.25-7.75-24.35c-2.38-7.35-4.54-15.55-8.78-22.09C276.05,355.64,274.44,355.95,274.47,357.16L274.47,357.16z"
			/>
	</g>
</g>
<g>
	<g>
		<path class="st0" d="M290.13,434.38c0.36,1.6,2.35,2.59,3.26,3.97c1.1,1.67,2.05,4.52,0.01,5.93c-1.59,1.09-3.07-0.01-3.02-1.83
			c0.07-2.55,2.61-3.74,4.13-5.37c1.72-1.84,0.05-5.54-2.65-4.54c-4.57,1.69-8.08,7.07-6.88,11.98c1.19,4.85,6.29,7.28,10.79,5.01
			c4.66-2.36,5.69-8.38,3.16-12.72c-1.19-2.04-3.24-3.48-5.52-4C292.33,432.56,289.71,432.48,290.13,434.38L290.13,434.38z"/>
	</g>
</g>
<g>
	<g>
		<path class="st0" d="M267.15,397.75c-6.14,1.95-11.47,6.96-17.15,10.01c-6.05,3.25-12.42,5.65-19.06,7.4
			c-6.61,1.74-13.35,2.64-20.18,2.69c-7.06,0.05-14.06-1.38-21.09-1.15c-1.9,0.06-2.63,2.58-0.97,3.58
			c12.28,7.44,30.87,5.1,44.08,1.53c7.08-1.92,14.06-4.93,20.35-8.71c5.59-3.36,12.72-7.91,15.12-14.26
			C268.48,398.21,267.76,397.56,267.15,397.75L267.15,397.75z"/>
	</g>
</g>
<g>
	<g>
		<path class="st0" d="M248.28,365.22c-2.35,1.53-2.82,3.8-3.95,6.35c-1.34,3.03-2.76,5.97-4.8,8.6
			c-4.21,5.41-10.45,8.44-17.21,9.17c-14.61,1.6-26.68-7.65-37.32-16.4c-2.31-1.9-5.19,0.97-3.28,3.28
			c10.21,12.39,25.94,21.55,42.44,19.12c6.9-1.02,13.74-4.16,18.37-9.49c3.69-4.24,9.51-14.35,7.12-20.08
			C249.44,365.26,248.84,364.86,248.28,365.22L248.28,365.22z"/>
	</g>
</g>
<g>
	<g>
		<path class="st0" d="M305.79,390.23c-3.24,0.35-4.79,5.53-6.32,7.96c-2.71,4.3-5.87,8.53-7.84,13.22
			c-1.18,2.82,2.95,4.69,4.86,2.83c4.13-4.05,6.6-10,8.48-15.38C305.09,398.5,308.25,389.97,305.79,390.23L305.79,390.23z"/>
	</g>
</g>
<g>
	<g>
		<path class="st0" d="M293.41,447.77c-2.29,12.13-1.52,24.82-1.67,37.15c-0.16,12.91-0.61,25.81-1.63,38.68
			c-1.01,12.79-2.54,25.52-5.01,38.12c-2.51,12.76-7.32,25.3-9.16,38.13c-0.29,2.02,2.21,3.35,3.43,1.44
			c6.82-10.67,9.49-24.69,11.9-36.94c2.46-12.54,4.06-25.27,5.06-38.01c1.03-13.16,1.36-26.38,1.41-39.58
			c0.05-12.9,0.56-26.37-2.23-38.99C295.27,446.76,293.61,446.72,293.41,447.77L293.41,447.77z"/>
	</g>
</g>
<g>
	<g>
		<path class="st0" d="M182.12,478.85c-1.39,4.18-0.55,8.76-0.33,13.08c0.26,5.23,0.5,10.46,0.59,15.7
			c0.18,10.19,0,20.36-0.86,30.52c-0.85,10.14-2.18,20.23-4.15,30.22c-1.94,9.89-5.34,19.65-6.47,29.66
			c-0.31,2.72,3.87,3.65,5.07,1.37c4.67-8.84,6.49-19.39,8.34-29.12c1.96-10.3,3.39-20.75,4.12-31.21
			c0.72-10.44,0.93-20.99,0.3-31.45c-0.29-4.88-0.71-9.76-1.38-14.59c-0.67-4.81-0.9-10.29-3.73-14.38
			C183.22,478.07,182.36,478.16,182.12,478.85L182.12,478.85z"/>
	</g>
</g>
<g>
	<g>
		<path class="st0" d="M268.66,431.94c-3.88,1.67-6.52,5.49-9.69,8.19c-3.65,3.11-7.84,5.61-12.26,7.47
			c-4.4,1.84-9.12,3.03-13.89,3.38c-4.66,0.34-9.29-0.84-13.89-0.45c-1.88,0.16-2.7,2.55-0.98,3.63c8.42,5.26,22.4,1.99,30.87-1.57
			c7.32-3.07,20.88-10.88,20.59-20.22C269.39,431.96,269,431.79,268.66,431.94L268.66,431.94z"/>
	</g>
</g>
<g>
	<g>
		<path class="st0" d="M266.65,550.48c-3.81,0.29-7.86-0.57-11.7-0.79c-3.9-0.23-7.81-0.26-11.71-0.33
			c-6.88-0.13-15.51-1.92-22.12,0.2c-2.39,0.77-2.13,3.75,0,4.61c6.43,2.59,15.32,1.05,22.12,0.69c3.92-0.21,7.83-0.51,11.71-1.1
			c3.95-0.6,7.73-1.98,11.7-2.29C267.27,551.41,267.28,550.43,266.65,550.48L266.65,550.48z"/>
	</g>
</g>
<g>
	<g>
		<path class="st0" d="M242,552.47c-2.64,4.11-2.48,10.01-3.08,14.75c-0.81,6.35-1.58,12.69-2.63,19
			c-1.55,9.42-2.08,23.58-9.94,30.17c-2.84,2.38,0.99,7.45,4,5.19c9.46-7.08,10.27-19.94,11.84-30.79
			c0.95-6.57,1.78-13.17,2.31-19.78c0.46-5.75,1.84-13.22-0.85-18.54C243.32,551.8,242.37,551.9,242,552.47L242,552.47z"/>
	</g>
</g>
<g>
	<g>
		<path class="st0" d="M330.76,70.59c3.9-1.81,3.67-8.66,4.04-12.42c0.53-5.43,1.39-12.27-1.39-17.19c-0.85-1.49-2.9-1.01-3.43,0.45
			c-1.83,5.05-0.54,11.42-0.6,16.74c-0.04,3.64-1.64,9.69,1.3,12.4C330.7,70.6,330.73,70.6,330.76,70.59L330.76,70.59z"/>
	</g>
</g>
<g>
	<g>
		<path class="st0" d="M320.38,77.12c-2.75-2.85-8.19-2.26-11.86-2.25c-5.47,0.02-10.86,0.39-16.23,1.41
			c-2.93,0.56-2.09,4.91,0.68,5.02c5.54,0.21,11.02-0.21,16.53-0.76c3.59-0.36,8.4-0.15,10.89-3.05
			C320.47,77.38,320.48,77.23,320.38,77.12L320.38,77.12z"/>
	</g>
</g>
<g>
	<g>
		<path class="st0" d="M328.9,87.06c-0.22,4.35,0.01,8.71-0.38,13.06c-0.35,3.91-1.55,7.74-0.83,11.64
			c0.28,1.51,2.66,2.22,3.64,0.96c5.07-6.51,4.23-18.78,1.64-26.21C332.2,84.31,329.02,84.68,328.9,87.06L328.9,87.06z"/>
	</g>
</g>
<g>
	<g>
		<path class="st0" d="M341.71,78.7c6.09,4.96,18.94,6.5,26.31,4.14c2.07-0.66,2.11-3.6,0-4.25c-4.24-1.31-8.86-1.08-13.26-1.34
			c-4.23-0.25-8.58-0.96-12.72,0.19C341.54,77.58,341.26,78.33,341.71,78.7L341.71,78.7z"/>
	</g>
</g>
<g>
	<g>
		<path class="st0" d="M114.18,112.81c0.09,0,0.17-0.01,0.26-0.01c0.83-0.03,1.36-0.53,1.66-1.26c2.17-5.44,4.14-16.38,0.5-21.48
			c-0.75-1.05-2.57-1.37-3.24,0c-1.49,3.04-0.94,6.02-0.88,9.32c0.06,3.9-0.17,7.81,0.24,11.7c0.09,0.83,0.49,1.36,1.26,1.66
			C114.04,112.78,114.11,112.8,114.18,112.81L114.18,112.81z"/>
	</g>
</g>
<g>
	<g>
		<path class="st0" d="M106.4,117.76c-1.16-2.7-5.73-2.31-8.19-2.38c-4.52-0.12-8.99,0.13-13.41,1.14
			c-2.95,0.67-2.06,4.82,0.68,5.02C87.43,121.68,107.93,121.33,106.4,117.76L106.4,117.76z"/>
	</g>
</g>
<g>
	<g>
		<path class="st0" d="M112.29,125.31c-0.37,3.3-0.2,6.62-0.53,9.92c-0.3,2.97-1.39,6.1-0.4,8.99c0.53,1.56,2.4,2.13,3.64,0.96
			c4.57-4.31,3.58-15.11,1.36-20.42C115.45,122.59,112.56,122.91,112.29,125.31L112.29,125.31z"/>
	</g>
</g>
<g>
	<g>
		<path class="st0" d="M122.4,119.08c2.4,2.77,6.53,3.42,10,3.91c3.66,0.52,7.34,0.88,10.79-0.61c1.97-0.85,0.97-3.4-0.53-4.03
			c-3.35-1.4-7.37-1.06-10.95-1.24c-3.09-0.15-6.29-0.58-9.16,0.77C122.08,118.12,122.11,118.75,122.4,119.08L122.4,119.08z"/>
	</g>
</g>
<g>
	<g>
		<path class="st0" d="M508.03,335.9c3.73-1.74,3.59-8.04,3.96-11.65c0.52-5.22,1.35-11.78-1.37-16.48
			c-0.86-1.49-2.89-1.01-3.43,0.45c-1.79,4.81-0.55,10.94-0.61,16.03c-0.04,3.49-1.44,9.04,1.36,11.63
			C507.97,335.91,508,335.91,508.03,335.9L508.03,335.9z"/>
	</g>
</g>
<g>
	<g>
		<path class="st0" d="M498.2,342.08c-2.62-2.8-7.58-2.26-11.12-2.26c-5.26,0-10.41,0.33-15.57,1.34c-2.93,0.57-2.09,4.9,0.68,5.02
			c5.32,0.23,10.59-0.16,15.88-0.73c3.43-0.37,7.77-0.18,10.12-3C498.29,342.34,498.3,342.19,498.2,342.08L498.2,342.08z"/>
	</g>
</g>
<g>
	<g>
		<path class="st0" d="M506.16,351.52c-0.25,4.12-0.04,8.26-0.42,12.38c-0.34,3.71-1.51,7.38-0.74,11.07
			c0.32,1.52,2.62,2.21,3.64,0.96c4.97-6.04,4.1-17.98,1.58-24.96C509.44,348.77,506.3,349.13,506.16,351.52L506.16,351.52z"/>
	</g>
</g>
<g>
	<g>
		<path class="st0" d="M518.39,343.62c3.23,2.79,7.5,3.55,11.63,4.17c4.38,0.66,9.12,1.28,13.37-0.16c2.07-0.7,2.11-3.56,0-4.25
			c-4-1.31-8.42-1.07-12.6-1.31c-4.01-0.23-8.18-0.91-12.08,0.3C518.21,342.52,517.94,343.23,518.39,343.62L518.39,343.62z"/>
	</g>
</g>
<g>
	<g>
		<path class="st0" d="M151.5,378.78c-7.47,3.67-13.49,11.68-19.12,17.64c-6.54,6.93-12.79,14.19-18.81,21.58
			c-11.67,14.3-22.54,29.18-32.92,44.43c-1.22,1.79,0.14,3.83,1.83,4.5c13.42,5.34,26.54,11.75,39.01,19.02
			c6.12,3.57,12.07,7.41,17.92,11.41c5.71,3.9,11.26,8.89,17.53,11.83c1.89,0.89,4.88-1.16,3.27-3.27
			c-4.18-5.47-10.33-9.51-15.88-13.48c-6.24-4.46-12.77-8.54-19.4-12.37c-13.08-7.56-26.67-13.8-40.82-19.04
			c0.61,1.5,1.22,3,1.83,4.5c10.31-15.41,21.43-30.27,33-44.75c5.59-6.99,11.33-13.85,17.06-20.73c5.33-6.41,12.8-12.89,16.2-20.56
			C152.41,379.01,151.98,378.54,151.5,378.78L151.5,378.78z"/>
	</g>
</g>
<g>
	<g>
		<path class="st0" d="M167.21,405.78c-5.11,3.28-9.32,7.9-13.73,12.03c-4.61,4.31-9.31,8.54-14.09,12.67
			c-10.06,8.67-20.42,16.89-31.15,24.71c-1.86,1.36-2.31,4.33,0,5.59c10.7,5.86,21.4,11.73,32.15,17.51
			c9.06,4.87,18.59,9.35,27.37,14.69c4.03,2.45,7.01,5.1,8.09,9.85c1.01,4.45,0.77,9.2,0.53,13.73
			c-0.64,12.15-3.21,23.98-6.14,35.75c-0.65,2.63,3.42,4.64,4.58,1.93c5.01-11.69,7.41-24.09,8.23-36.75
			c0.58-8.96,0.98-19.6-6.26-26.16c-7.45-6.75-18.29-10.55-27.06-15.29c-12.77-6.9-25.46-13.92-38.21-20.85c0,1.86,0,3.73,0,5.59
			c10.61-7.79,20.88-16.16,30.51-25.14c4.83-4.51,9.54-9.14,14.09-13.93c4.36-4.59,9.14-9.27,12.13-14.9
			C168.57,406.17,167.87,405.35,167.21,405.78L167.21,405.78z"/>
	</g>
</g>
<g>
	<g>
		<path class="st0" d="M114.11,420.57c0.03,4.42,5.25,8.01,8.3,10.63c4.28,3.68,8.93,7.31,13.99,9.83c3.58,1.78,6.3-3.02,3.1-5.3
			c-4.43-3.17-9.15-5.9-13.59-9.07c-3.21-2.29-7.15-6.73-11.33-6.57C114.33,420.11,114.11,420.31,114.11,420.57L114.11,420.57z"/>
	</g>
</g>
<g>
	<g>
		<path class="st0" d="M155.73,503.71c-3.69-0.59-5.22,3.95-5.74,6.87c-0.79,4.41-0.08,9.28,2.41,13.04
			c0.15-1.19,0.31-2.39,0.46-3.58c-3.03,2.44-6.07,4.88-9.1,7.32c-1.98,1.59-4.8,3.17-6.05,5.45c-2.17,3.94,1.22,8.39,2.9,11.89
			c0.61,1.28,2.51,1.68,3.67,0.96c6.52-4.04,12.47-8.78,18-14.09c-1.33-1.02-2.66-2.05-3.98-3.07c-4.09,6.87-7.04,13.98-9.11,21.71
			c-0.3,1.1,0.17,2.69,1.3,3.2c3.49,1.56,8.64,5.13,11.54,0.89c1.71-2.5,2.61-5.98,3.73-8.76c1.68-4.19,3.3-8.4,4.89-12.62
			c-1.84-0.25-3.67-0.5-5.51-0.75c-0.06,5.62-0.1,11.25,0.01,16.87c0.03,1.52,1.27,2.84,2.83,2.83c1.17-0.01,2.33-0.01,3.5-0.01
			c3.5,0,3.43-5.16,0-5.39c-1.17-0.08-2.33-0.16-3.5-0.25c0.94,0.94,1.88,1.88,2.83,2.83c0.09-5.62,0.02-11.25-0.06-16.87
			c-0.05-3.25-4.49-3.69-5.51-0.75c-1.48,4.26-3.04,8.49-4.72,12.67c-0.37,0.91-2.14,6.18-2.66,6.41c-0.66,0.29-3.8-1.67-4.5-1.98
			c0.43,1.07,0.87,2.13,1.3,3.2c1.89-7.16,4.44-14.16,8.03-20.65c1.4-2.54-1.87-5.05-3.98-3.07c-5.28,4.94-10.93,9.3-17.12,13.05
			c1.22,0.32,2.44,0.64,3.67,0.96c-0.58-1.24-1.74-2.87-1.98-4.25c-0.53-3.07,1.92-3.94,3.94-5.58c3.28-2.65,6.56-5.3,9.84-7.95
			c0.96-0.77,1.13-2.58,0.46-3.58c-2.54-3.8-2.19-7.99-1.24-12.24C156.46,507.49,157.64,504.02,155.73,503.71L155.73,503.71z"/>
	</g>
</g>
<g>
	<g>
		<path class="st0" d="M441.85,324.74c-6.29-1.06-12.88,0.06-19.23,0.17c-3.21,0.05-6.43,0.06-9.64-0.05
			c-1.39-0.05-3.92,0.36-4.82-1.04c-0.43-0.67,0.04-3.2-0.03-3.99c-0.52,0.69-1.04,1.37-1.57,2.06c9.68-1.51,19.27-3.2,28.81-5.46
			c2.65-0.63,1.89-4.37-0.61-4.54c-12-0.8-23.98-1.51-36-1.86c0.9,0.9,1.8,1.8,2.7,2.7c-0.21-1.81-0.62-3.8-0.66-5.62
			c-0.06-3-0.32-2.77,2.55-3c3.48-0.27,7.37,0.47,10.88,0.55c7.61,0.19,15.19-0.02,22.8-0.26c2.99-0.09,2.94-4.39,0-4.6
			c-8.3-0.59-16.58-1.38-24.84-2.42c-2.08-0.26-6.45,0.44-4.84-3c1.08-2.31,2.73-1.35,4.89-1.2c4.19,0.3,8.38,0.27,12.56-0.09
			c3.72-0.32,7.74-1.33,11.47-1.05c0.58,0.01,1.17,0.02,1.75,0.03c2.08,0.07,3.17,1.04,3.26,2.91c0.82,1.5,1.05,3.75,1.41,5.38
			c1.9,8.5,1.2,16.56,1.68,25.11c0.14,2.49,3.87,3.24,4.51,0.61c1.45-5.88,0.91-12.22,0.16-18.17c-0.69-5.51-1.47-12.21-4.09-17.19
			c-1.97-3.75-5.67-3.77-9.57-3.62c-6.47,0.25-12.78,1.58-19.29,1.49c-3.47-0.05-9.29-2.12-11.96,0.98
			c-1.88,2.18-3.11,7.83-1.29,10.31c2.29,3.11,9.85,2.45,13.14,2.8c7,0.74,14.01,1.31,21.03,1.73c0-1.53,0-3.07,0-4.6
			c-10.89,0.12-21.82,0.32-32.68-0.53c-2.88-0.23-6.13-0.98-7.99,1.77c-2.07,3.05-0.56,8.31-0.28,11.69c0.12,1.48,1.14,2.65,2.7,2.7
			c12,0.32,24.01,0.6,36,1.09c-0.2-1.51-0.41-3.03-0.61-4.54c-9.46,2.42-19.03,4.49-28.71,5.81c-0.89,0.12-1.59,1.21-1.57,2.06
			c0.07,2.65-0.96,5.72,0.7,8.05c2.01,2.82,6.37,2.29,9.38,2.33c8.9,0.1,20.16-0.01,28-4.73C442.21,325.3,442.2,324.8,441.85,324.74
			L441.85,324.74z"/>
	</g>
</g>
<g>
	<g>
		<path class="st0" d="M337.85,225.55c-3.44,23.59-2.59,48.01-3.39,71.8c-0.83,24.54-1.94,49.08-3.5,73.59
			c-0.11,1.77,1.52,3,3.12,3.12c33.47,2.44,67.66,3.53,101.11,0.11c1.7-0.17,3.23-1.33,3.2-3.2c-0.23-15.39-0.27-30.78-0.35-46.16
			c-0.02-3.98-6.21-3.99-6.19,0c0.08,15.39,0.2,30.78,0.13,46.16c1.07-1.07,2.14-2.14,3.2-3.2c-33.74,0.34-67.37,1.42-101.11,0.06
			c1.04,1.04,2.08,2.08,3.12,3.12c1.65-24.51,2.88-49.03,3.46-73.59c0.56-23.69,1.9-48.33-1.85-71.8
			C338.72,225.08,337.92,225.08,337.85,225.55L337.85,225.55z"/>
	</g>
</g>
<g>
	<g>
		<path class="st0" d="M337.83,222.79c6.24,4.05,14.47,4.57,21.69,5.52c8.74,1.14,17.48,1.99,26.28,2.49
			c17.24,0.99,34.52,0.88,51.75-0.43c-1.14-1.14-2.28-2.28-3.42-3.42c-1.29,21.05-3.84,42.11-4.4,63.19c-0.12,4.5,6.36,4.27,6.84,0
			c2.36-20.96,2.76-42.17,4.39-63.19c0.14-1.78-1.68-3.5-3.42-3.42c-16.91,0.79-33.86,0.94-50.77,0.14
			c-8.45-0.4-16.9-0.98-25.32-1.74c-7.56-0.68-15.99-2.57-23.44-0.6C337.33,221.52,337.27,222.43,337.83,222.79L337.83,222.79z"/>
	</g>
</g>
<g>
	<g>
		<path class="st0" d="M366.08,240.28c0.04-1.65-1.52-2.4-3-2.37c-1.93,0.05-3.84,1.47-4.88,3.02c-2.5,3.71-0.49,8.42,3.09,10.53
			c3.66,2.16,9.56,1.84,11.04-2.83c1.47-4.67-2.31-8.53-6.37-9.96c-2.39-0.84-3.97,2.42-2.37,4.07c0.53,0.55,4.01,3.12,3.23,4.12
			c-0.54,0.69-2.7-0.59-3.14-1.03c-0.98-0.99-1.09-2.2-0.09-3.22C364.22,241.99,366.05,241.35,366.08,240.28L366.08,240.28z"/>
	</g>
</g>
<g>
	<g>
		<path class="st0" d="M395.54,219.36c-10.95-6.13-17.32-20.78-11.01-32.39c1.64-3.01-2.62-5.4-4.54-2.65
			c-1.6,2.29-3.72,5.43-6.53,6.34c-3.65,1.19-6.42-1.94-8.6-4.44c-4.45-5.11-7.14-11.6-7.9-18.31c-0.39-3.42-5.69-3.59-5.49,0
			c0.58,10.42-1.31,28.23-15.58,27.93c-12.19-0.26-19.21-13.43-26.84-21c-1.23,1.23-2.46,2.46-3.69,3.69
			c8.57,8.08,14.4,19.04,16.7,30.58c1.25,6.31,0.82,12.28-5.53,15.39c-6.31,3.08-13.26,4.6-19.88,6.79c0.67,1.58,1.34,3.17,2,4.76
			c6.11-3.33,13.98-2.95,19.8,0.92c6.08,4.05,8.39,10.91,8.43,17.91c0.02,2.92,4.87,3.81,5.29,0.72
			c1.24-8.95-2.81-17.93-10.26-23.11c-7.84-5.45-17.59-5.04-25.89-0.94c-2.85,1.41-0.68,5.18,2,4.76c7.64-1.21,17.35-3.72,23.9-8.07
			c5.2-3.45,6.95-9.41,6.52-15.39c-1.05-14.49-9.59-27.82-19.4-38c-2.34-2.43-5.95,1.22-3.69,3.69c8.98,9.79,18.73,25.6,34.38,22.65
			c15.33-2.88,18.11-20.4,17.21-33.27c-1.83,0-3.66,0-5.49,0c1.06,9.96,5.42,20.25,13.64,26.43c8.01,6.03,15.14-0.37,19.41-7.38
			c-1.51-0.88-3.03-1.77-4.54-2.65c-6.59,13.67-0.71,32.51,14.9,36.58C395.8,221.14,396.39,219.84,395.54,219.36L395.54,219.36z"/>
	</g>
</g>
<g>
	<g>
		<path class="st0" d="M384.91,155.53c-2.86-8.44-6.65-16.46-9.15-25.05c-0.94,1.23-1.88,2.46-2.81,3.69
			c4.41-0.41,8.83-1.05,13.25-1.33c1.68-0.1,3.47,0.24,4.45-1.49c0.96-1.69,0.12-4.02-1.84-4.51c-5.02-1.27-11.62,0.83-16.64,1.6
			c-1.52,0.23-2.47,2.22-2.04,3.59c2.71,8.57,5.86,17.68,11.14,25.03C382.5,158.76,385.69,157.83,384.91,155.53L384.91,155.53z"/>
	</g>
</g>
<g>
	<g>
		<path class="st0" d="M378.27,147.1c2.86,0.21,5.82-1.33,8.53-2.11c2.64-0.76,5.91-1.01,6.72-4.09c0.22-0.83,0-1.74-0.62-2.35
			c-2.52-2.47-5.84-0.62-8.54,0.65c-2.66,1.25-6.01,2.84-7.42,5.56C376.37,145.86,377.08,147.01,378.27,147.1L378.27,147.1z"/>
	</g>
</g>
<g>
	<g>
		<path class="st0" d="M397.47,124.96c-2.71,2.15-1.26,6.36-0.76,9.35c0.84,5.03,1.54,10.53,3.22,15.36
			c2.69,7.76,12.39,5.51,17.68,1.84c3.62-2.51,0.39-8.31-3.5-5.99c-1.52,0.91-3.09,1.74-4.85,2.06c-3.01,0.55-2.62-0.77-3.32-2.99
			c-1.24-3.92-2.08-7.98-3.32-11.91C402.44,132.1,399.96,122.99,397.47,124.96L397.47,124.96z"/>
	</g>
</g>
<g>
	<g>
		<path class="st0" d="M417.61,123.01c-2.4,1.82-0.95,5.74-0.37,8.15c1.25,5.19,2.77,10.45,4.57,15.48
			c1.45,4.02,7.42,2.47,6.46-1.78c-0.16-0.78-0.35-1.55-0.56-2.31c-0.5-1.96-3.76-2.69-4.67-0.61c-0.42,0.97-0.83,1.94-1.23,2.92
			c2.15,0,4.3,0,6.46,0C427.66,142.78,420.66,120.7,417.61,123.01L417.61,123.01z"/>
	</g>
</g>
<g>
	<g>
		<path class="st0" d="M429.76,121.26c0.72,6.07,2.07,12.02,3.58,17.93c1,3.91,1.2,8.41,5.85,8.98c1.36,0.16,2.68-1.09,3.03-2.31
			c0.32-1.11,0.19-2.05-0.44-3c-0.92-1.41-2.41-1.65-3.89-1.02c-0.08,0.03-0.16,0.07-0.25,0.1c-2.12,0.91-1.6,4.7,0.66,5.05
			c0.09,0.01,0.18,0.03,0.26,0.04c-0.7-0.91-1.39-1.83-2.09-2.74c0,0.14,0,0.29,0.01,0.43c0.49-0.86,0.98-1.71,1.47-2.57
			c-0.12,0.05-0.23,0.1-0.35,0.16c1.27,0.16,2.54,0.33,3.81,0.49c-1.27-1.49-2.13-7.61-2.78-10.11c-1.07-4.07-2.09-8.16-3.31-12.19
			C434.43,117.6,429.37,117.97,429.76,121.26L429.76,121.26z"/>
	</g>
</g>
<g>
	<g>
		<path class="st0" d="M427.45,126.7c5.59-2.57,12.51-1.61,17.93-4.84c2.74-1.63,1.52-5.81-1.6-5.9c-4.54-0.13-9.97,1.98-14.16,3.64
			c-2.53,1-5.71,2.8-4.87,5.99C425.08,126.84,426.4,127.19,427.45,126.7L427.45,126.7z"/>
	</g>
</g>
<g>
	<g>
		<path class="st0" d="M448.46,137.38c0.24,8.19,17.58,9.59,18.98,0.83c0.74-4.66-2.55-8.43-6.54-10.24
			c-1.99-0.9-6.21-1.53-7.36-3.57c-2.4-4.24,7.53-2.06,9.37-2.08c2.05-0.02,3.58-2.89,1.81-4.36c-6.14-5.08-20.23-3.87-18.78,6.7
			c0.55,4.03,3.93,6.73,7.51,8.17c1.57,0.63,6.45,1.41,6.89,3.34c0.68,2.93-6.95,0.49-7.96-0.41
			C450.97,134.49,448.4,135.29,448.46,137.38L448.46,137.38z"/>
	</g>
</g>
<g>
	<g>
		<path class="st0" d="M467.07,115.55c0.38,2.71,1.28,5.28,2.11,7.88c0.75,2.36,1.36,4.83,3.67,6.08c1.54,0.83,3.04,0.02,3.65-1.48
			c1.01-2.48-0.36-5-1.27-7.32c-0.97-2.47-1.88-4.94-3.27-7.22C470.27,110.71,466.67,112.69,467.07,115.55L467.07,115.55z"/>
	</g>
</g>
<g>
	<g>
		<path class="st0" d="M475.64,141.67c0.57,0.96,1.61,1.45,2.72,1.3c1.61-0.22,2.71-1.82,2.27-3.41c-0.4-1.46-1.92-2.23-3.36-1.91
			C475.55,138.05,474.77,140.21,475.64,141.67L475.64,141.67z"/>
	</g>
</g>
<g>
	<g>
		<path class="st0" d="M281.89,353.36c-0.94,10.69,7.16,21.55,14.71,28.44c7.86,7.18,17.63,12.33,28.04,14.57
			c10.17,2.19,20.99,1.75,30.69-2.18c4.83-1.96,9.35-4.68,13.24-8.17c3.88-3.48,8.86-8.68,9.36-14.08c0.14-1.53-1.87-2.61-3.1-1.78
			c-3.91,2.62-6.42,7.39-9.97,10.57c-3.6,3.22-7.71,5.86-12.21,7.62c-8.67,3.39-18.32,3.7-27.33,1.58
			c-9.31-2.18-18.11-6.75-25.11-13.27c-7.45-6.94-10.79-15.59-16.17-23.88C283.38,351.78,281.99,352.23,281.89,353.36L281.89,353.36
			z"/>
	</g>
</g>
<g>
	<g>
		<path class="st0" d="M294.23,407.44c7.25,8,19.53,11.31,29.89,12.56c11.45,1.39,23.31-0.22,34.15-4.08
			c10.37-3.69,20.25-9.24,27.58-17.59c6.06-6.9,12.01-17.35,9.66-26.87c-0.48-1.96-3.1-1.69-3.71,0c-1.57,4.39-2.36,8.8-4.55,13
			c-2.16,4.15-4.96,7.96-8.27,11.27c-7.02,7.01-16.21,11.79-25.59,14.82c-9.22,2.98-18.83,4.08-28.49,3.26
			c-10.59-0.9-19.51-5.5-29.54-8.33C294.2,405.15,293.46,406.6,294.23,407.44L294.23,407.44z"/>
	</g>
</g>
<g>
	<g>
		<path class="st0" d="M153.95,244.15c11.36,22.77,36.14,38.04,61.09,40.68c27.16,2.87,54.42-9.13,71.11-30.59
			c0.69-0.88-0.51-2.15-1.26-1.26c-16.51,19.76-42.56,31.37-68.36,29.32c-25.95-2.06-47.84-17.28-62.33-38.29
			C154.09,243.86,153.87,243.99,153.95,244.15L153.95,244.15z"/>
	</g>
</g>
<g>
	<g>
		<path class="st0" d="M332.92,375c36.79-46.27,72.43-93.46,108.94-139.97c0.75-0.96-0.59-2.33-1.36-1.36
			c-36.83,46.29-73.57,92.89-107.91,141.07C332.45,374.94,332.77,375.19,332.92,375L332.92,375z"/>
	</g>
</g>
</svg>
