<?xml version="1.0" encoding="UTF-8" standalone="no"?>
<svg width="183px" height="16px" viewBox="0 0 183 16" version="1.1" xmlns="http://www.w3.org/2000/svg" xmlns:xlink="http://www.w3.org/1999/xlink" xmlns:sketch="http://www.bohemiancoding.com/sketch/ns">
    <!-- Generator: Sketch 3.3.3 (12072) - http://www.bohemiancoding.com/sketch -->
    <title>logo TEAM 4 eps ill 10</title>
    <desc>Created with Sketch.</desc>
    <defs>
        <path id="path-1" d="M0,0.722941935 L182.824774,0.722941935 L182.824774,15.3610323 L0,15.3610323 L0,0.722941935 Z"/>
    </defs>
    <g id="Page-1" stroke="none" stroke-width="1" fill="none" fill-rule="evenodd" sketch:type="MSPage">
        <g id="logo-TEAM-4-eps-ill-10" sketch:type="MSLayerGroup">
            <g id="Page-1">
                <path d="M5.63870968,3.17192258 L5.63870968,14.8755097 L3.50549677,14.8755097 L3.50549677,3.17192258 L0,3.17192258 L0,1.29868387 L9.1252129,1.29868387 L9.1252129,3.17192258 L5.63870968,3.17192258" id="Fill-1" fill="#1A1918" sketch:type="MSShapeGroup"/>
                <path d="M10.7467871,14.8755097 L10.7467871,1.29868387 L18.0913548,1.29868387 L18.0913548,3.17192258 L12.88,3.17192258 L12.88,6.56583226 L18.0913548,6.56583226 L18.0913548,8.51385806 L12.88,8.51385806 L12.88,12.8906839 L18.0913548,12.8906839 L18.0913548,14.8755097 L10.7467871,14.8755097" id="Fill-2" fill="#1A1918" sketch:type="MSShapeGroup"/>
                <g id="Group-6">
                    <mask id="mask-2" sketch:name="Clip 4" fill="white">
                        <use xlink:href="#path-1"/>
                    </mask>
                    <g id="Clip-4"/>
                    <path d="M23.3383226,9.53357419 L27.0076387,9.53357419 L25.6590968,6.44 C25.5819355,6.24175484 25.5000258,6.01383226 25.4157419,5.75979355 C25.3326452,5.50219355 25.2483613,5.21729032 25.1640774,4.90152258 C25.0928516,5.19829677 25.0156903,5.47370323 24.9349677,5.73130323 C24.8542452,5.98652903 24.7723355,6.22276129 24.6880516,6.44 L23.3383226,9.53357419 L23.3383226,9.53357419 Z M29.2571871,14.8755097 L27.7638194,11.3700129 L22.5477161,11.3700129 L21.0187355,14.8755097 L18.7715613,14.8755097 L25.1474581,0.760929032 L31.5138581,14.8755097 L29.2571871,14.8755097 L29.2571871,14.8755097 Z" id="Fill-3" fill="#1A1918" sketch:type="MSShapeGroup" mask="url(#mask-2)"/>
                    <path d="M43.4964129,8.1707871 C43.4714839,8.06632258 43.4323097,7.77548387 43.3788903,7.29827097 C43.3302194,6.90296774 43.288671,6.57532903 43.2530581,6.31535484 C43.1996387,6.6251871 43.1224774,6.93501935 43.0239484,7.24366452 C42.9242323,7.55230968 42.8007742,7.86807742 42.6512,8.18859355 L39.2050581,15.4322581 L35.7612903,8.04020645 C35.6176516,7.73868387 35.4930065,7.44547097 35.3885419,7.15938065 C35.2828903,6.87566452 35.192671,6.59432258 35.1131355,6.31535484 C35.1072,6.60144516 35.0858323,6.89940645 35.045471,7.21042581 C35.0062968,7.52381935 34.948129,7.84908387 34.8709677,8.18859355 L33.4595097,14.8755097 L31.488929,14.8755097 L34.6003097,0.722941935 L38.4868645,9.29259355 C38.5462194,9.42910968 38.6376258,9.65465806 38.7598968,9.96923871 C38.8833548,10.2850065 39.0317419,10.6743742 39.2050581,11.138529 C39.3320774,10.7491613 39.5303226,10.255329 39.7986065,9.65465806 C39.8710194,9.4944 39.9256258,9.36975484 39.9612387,9.28309677 L43.7563871,0.722941935 L46.9401806,14.8755097 L44.9529806,14.8755097 L43.4964129,8.1707871" id="Fill-5" fill="#1A1918" sketch:type="MSShapeGroup" mask="url(#mask-2)"/>
                </g>
                <path d="M59.3239742,5.69450323 L55.9633032,10.5722839 L59.2693677,10.5722839 L59.2693677,7.03948387 C59.2693677,6.85310968 59.2741161,6.64774194 59.2812387,6.41744516 C59.2907355,6.18952258 59.3049806,5.94854194 59.3239742,5.69450323 L59.3239742,5.69450323 Z M59.2693677,14.8755097 L59.2693677,12.1119484 L52.9445161,12.1119484 L60.6143484,1.15029677 L61.2162065,1.15029677 L61.2162065,10.5722839 L62.8116645,10.5722839 L62.8116645,12.1119484 L61.2162065,12.1119484 L61.2162065,14.8755097 L59.2693677,14.8755097 L59.2693677,14.8755097 Z" id="Fill-7" fill="#1A1918" sketch:type="MSShapeGroup"/>
                <path d="M72.3416774,9.21899355 L76.9309935,9.21899355 L74.6814452,3.3108129 L72.3416774,9.21899355 L72.3416774,9.21899355 Z M68.9726968,14.8755097 L74.7633548,0.760929032 L80.3047226,14.8755097 L79.0012903,14.8755097 L77.3179871,10.2755097 L71.9380645,10.2755097 L70.1918452,14.8755097 L68.9726968,14.8755097 L68.9726968,14.8755097 Z" id="Fill-8" fill="#1A1918" sketch:type="MSShapeGroup"/>
                <path d="M82.9780645,2.37419355 L82.9780645,7.38255484 L84.1805935,7.38255484 C85.2940903,7.38255484 86.0704516,7.19855484 86.5108645,6.83174194 C86.9500903,6.46374194 87.1708903,5.83932903 87.1708903,4.95731613 C87.1708903,4.02544516 86.9429677,3.36185806 86.4871226,2.96655484 C86.0336516,2.57125161 85.2644129,2.37419355 84.1805935,2.37419355 L82.9780645,2.37419355 L82.9780645,2.37419355 Z M89.7730065,14.8755097 L88.3164387,14.8755097 L83.6974452,8.40227097 L82.9780645,8.40227097 L82.9780645,14.8755097 L81.7731613,14.8755097 L81.7731613,1.29868387 L84.1995871,1.29868387 C85.6252903,1.29868387 86.6936774,1.60495484 87.4035613,2.21630968 C88.1146323,2.82885161 88.4683871,3.75597419 88.4683871,4.99886452 C88.4683871,6.05656774 88.1644903,6.88872258 87.5566968,7.49414194 C86.9477161,8.09956129 86.1096258,8.40227097 85.0436129,8.40227097 L89.7730065,14.8755097 L89.7730065,14.8755097 Z" id="Fill-9" fill="#1A1918" sketch:type="MSShapeGroup"/>
                <path d="M102.087948,3.78446452 C101.433858,3.2027871 100.76671,2.77305806 100.080568,2.49527742 C99.3956129,2.21630968 98.6750452,2.07741935 97.9188645,2.07741935 C96.2153806,2.07741935 94.8312258,2.63416774 93.7640258,3.74647742 C92.6980129,4.85997419 92.1650065,6.30941935 92.1650065,8.096 C92.1650065,8.99344516 92.2944,9.80067097 92.5591226,10.5164903 C92.8190968,11.2334968 93.2167742,11.8709677 93.7509677,12.4277161 C94.2792258,12.9725935 94.882271,13.3845161 95.5636645,13.6706065 C96.2450581,13.9555097 96.9774968,14.0967742 97.7574194,14.0967742 C98.5124129,14.0967742 99.2496,13.9650065 99.9713548,13.6979097 C100.691923,13.432 101.373316,13.039071 102.014348,12.5203097 L102.014348,13.9673806 C101.367381,14.376929 100.682426,14.6926968 99.9594839,14.9146839 C99.2365419,15.1354839 98.5219097,15.247071 97.8120258,15.247071 C96.8599742,15.247071 95.9482839,15.0701935 95.0769548,14.7176258 C94.2091871,14.363871 93.4625032,13.8700387 92.8369032,13.2325677 C92.1970581,12.5761032 91.7103484,11.8128 91.3815226,10.9462194 C91.0503226,10.0808258 90.8865032,9.12996129 90.8865032,8.096 C90.8865032,7.08103226 91.055071,6.13372903 91.3945806,5.25527742 C91.7329032,4.37563871 92.2208,3.61708387 92.8558968,2.9796129 C93.4743742,2.3540129 94.2186839,1.86492903 95.0923871,1.51236129 C95.9672774,1.15979355 96.8730323,0.982916129 97.8144,0.982916129 C98.6560516,0.982916129 99.4336,1.104 100.149419,1.34260645 C100.8688,1.5824 101.520516,1.94209032 102.106942,2.42049032 L102.087948,3.78446452" id="Fill-10" fill="#1A1918" sketch:type="MSShapeGroup"/>
                <path d="M104.666323,14.8755097 L104.666323,1.29868387 L105.872413,1.29868387 L105.872413,6.8068129 L113.031794,6.8068129 L113.031794,1.29868387 L114.236697,1.29868387 L114.236697,14.8755097 L113.031794,14.8755097 L113.031794,7.86451613 L105.872413,7.86451613 L105.872413,14.8755097 L104.666323,14.8755097" id="Fill-11" fill="#1A1918" sketch:type="MSShapeGroup"/>
                <path d="M117.505961,1.29868387 L118.712052,1.29868387 L118.712052,14.8766968 L117.505961,14.8766968 L117.505961,1.29868387 Z" id="Fill-12" fill="#1A1918" sketch:type="MSShapeGroup"/>
                <path d="M124.323458,14.8755097 L124.323458,2.4667871 L120.706374,2.4667871 L120.706374,1.29868387 L129.164439,1.29868387 L129.164439,2.4667871 L125.528361,2.4667871 L125.528361,14.8755097 L124.323458,14.8755097" id="Fill-13" fill="#1A1918" sketch:type="MSShapeGroup"/>
                <path d="M131.144516,14.8755097 L131.144516,1.29868387 L137.673548,1.29868387 L137.673548,2.4667871 L132.349419,2.4667871 L132.349419,6.6964129 L137.673548,6.6964129 L137.673548,7.86451613 L132.349419,7.86451613 L132.349419,13.7074065 L137.673548,13.7074065 L137.673548,14.8755097 L131.144516,14.8755097" id="Fill-14" fill="#1A1918" sketch:type="MSShapeGroup"/>
                <path d="M151.189832,3.78446452 C150.536929,3.2027871 149.863845,2.77305806 149.182452,2.49527742 C148.49631,2.21630968 147.776929,2.07741935 147.021935,2.07741935 C145.31489,2.07741935 143.928361,2.63416774 142.862348,3.74647742 C141.799897,4.85997419 141.26689,6.30941935 141.26689,8.096 C141.26689,8.99344516 141.396284,9.80067097 141.656258,10.5164903 C141.916232,11.2334968 142.315097,11.8709677 142.848103,12.4277161 C143.376361,12.9725935 143.984155,13.3845161 144.665548,13.6706065 C145.343381,13.9555097 146.075819,14.0967742 146.854555,14.0967742 C147.610735,14.0967742 148.352671,13.9650065 149.070865,13.6979097 C149.790245,13.432 150.471639,13.039071 151.116232,12.5203097 L151.116232,13.9673806 C150.46689,14.376929 149.780748,14.6926968 149.056619,14.9146839 C148.333677,15.1354839 147.620232,15.247071 146.915097,15.247071 C145.959484,15.247071 145.046606,15.0701935 144.178839,14.7176258 C143.30751,14.363871 142.560826,13.8700387 141.938787,13.2325677 C141.294194,12.5761032 140.807484,11.8128 140.478658,10.9462194 C140.149832,10.0808258 139.9872,9.12996129 139.9872,8.096 C139.9872,7.08103226 140.153394,6.13372903 140.492903,5.25527742 C140.831226,4.37563871 141.322684,3.61708387 141.957781,2.9796129 C142.575071,2.3540129 143.320568,1.86492903 144.193084,1.51236129 C145.064413,1.15979355 145.973729,0.982916129 146.915097,0.982916129 C147.754374,0.982916129 148.53311,1.104 149.25249,1.34260645 C149.965935,1.5824 150.620026,1.94209032 151.208826,2.42049032 L151.189832,3.78446452" id="Fill-15" fill="#1A1918" sketch:type="MSShapeGroup"/>
                <path d="M156.1056,14.8755097 L156.1056,2.4667871 L152.488516,2.4667871 L152.488516,1.29868387 L160.946581,1.29868387 L160.946581,2.4667871 L157.31169,2.4667871 L157.31169,14.8755097 L156.1056,14.8755097" id="Fill-16" fill="#1A1918" sketch:type="MSShapeGroup"/>
                <path d="M162.926658,14.8755097 L162.926658,1.29868387 L169.45569,1.29868387 L169.45569,2.4667871 L164.132748,2.4667871 L164.132748,6.6964129 L169.45569,6.6964129 L169.45569,7.86451613 L164.132748,7.86451613 L164.132748,13.7074065 L169.45569,13.7074065 L169.45569,14.8755097 L162.926658,14.8755097" id="Fill-17" fill="#1A1918" sketch:type="MSShapeGroup"/>
                <path d="M172.381884,14.8755097 L172.381884,0.722941935 L181.711277,12.0846452 L181.711277,1.29868387 L182.824774,1.29868387 L182.824774,15.283871 L173.513187,3.89486452 L173.513187,14.8755097 L172.381884,14.8755097" id="Fill-18" fill="#1A1918" sketch:type="MSShapeGroup"/>
            </g>
        </g>
    </g>
</svg>